<mxfile host="app.diagrams.net" agent="Mozilla/5.0 (Windows NT 10.0; Win64; x64) AppleWebKit/537.36 (KHTML, like Gecko) Chrome/141.0.0.0 Safari/537.36" version="28.2.7">
  <diagram name="페이지-1" id="TqOdk9ih8OGtxrfaj7W6">
    <mxGraphModel dx="1678" dy="874" grid="1" gridSize="10" guides="1" tooltips="1" connect="1" arrows="1" fold="1" page="1" pageScale="1" pageWidth="1654" pageHeight="2336" math="0" shadow="0">
      <root>
        <mxCell id="0" />
        <mxCell id="1" parent="0" />
        <mxCell id="pIxflDysJiSax5W7jK0K-14" value="" style="rounded=1;whiteSpace=wrap;html=1;fillColor=none;dashed=1;" parent="1" vertex="1">
          <mxGeometry x="570" y="87.5" width="210" height="228" as="geometry" />
        </mxCell>
        <mxCell id="pIxflDysJiSax5W7jK0K-10" value="" style="rounded=1;whiteSpace=wrap;html=1;fillColor=none;dashed=1;" parent="1" vertex="1">
          <mxGeometry x="1140" y="82" width="220" height="240" as="geometry" />
        </mxCell>
        <mxCell id="pIxflDysJiSax5W7jK0K-1" value="Client" style="sketch=0;outlineConnect=0;fontColor=#232F3E;gradientColor=none;fillColor=#232F3D;strokeColor=none;dashed=0;verticalLabelPosition=bottom;verticalAlign=top;align=center;html=1;fontSize=12;fontStyle=0;aspect=fixed;pointerEvents=1;shape=mxgraph.aws4.client;" parent="1" vertex="1">
          <mxGeometry x="90" y="165.25" width="78" height="76" as="geometry" />
        </mxCell>
        <mxCell id="pIxflDysJiSax5W7jK0K-2" value="Chat-Server" style="outlineConnect=0;dashed=0;verticalLabelPosition=bottom;verticalAlign=top;align=center;html=1;shape=mxgraph.aws3.traditional_server;fillColor=#7D7C7C;gradientColor=none;" parent="1" vertex="1">
          <mxGeometry x="416.75" y="51" width="46.5" height="63" as="geometry" />
        </mxCell>
        <mxCell id="pIxflDysJiSax5W7jK0K-3" value="Chat-Server" style="outlineConnect=0;dashed=0;verticalLabelPosition=bottom;verticalAlign=top;align=center;html=1;shape=mxgraph.aws3.traditional_server;fillColor=#7D7C7C;gradientColor=none;" parent="1" vertex="1">
          <mxGeometry x="416.75" y="157.5" width="46.5" height="63" as="geometry" />
        </mxCell>
        <mxCell id="pIxflDysJiSax5W7jK0K-4" value="Chat-Server" style="outlineConnect=0;dashed=0;verticalLabelPosition=bottom;verticalAlign=top;align=center;html=1;shape=mxgraph.aws3.traditional_server;fillColor=#7D7C7C;gradientColor=none;" parent="1" vertex="1">
          <mxGeometry x="416.75" y="266" width="46.5" height="63" as="geometry" />
        </mxCell>
        <mxCell id="pIxflDysJiSax5W7jK0K-5" value="" style="rounded=1;whiteSpace=wrap;html=1;fillColor=none;dashed=1;" parent="1" vertex="1">
          <mxGeometry x="230" y="30.5" width="270" height="343" as="geometry" />
        </mxCell>
        <mxCell id="pIxflDysJiSax5W7jK0K-6" value="" style="endArrow=classic;html=1;rounded=0;entryX=0;entryY=0.5;entryDx=0;entryDy=0;" parent="1" source="pIxflDysJiSax5W7jK0K-1" target="pIxflDysJiSax5W7jK0K-5" edge="1">
          <mxGeometry width="50" height="50" relative="1" as="geometry">
            <mxPoint x="430" y="280" as="sourcePoint" />
            <mxPoint x="750" y="380" as="targetPoint" />
          </mxGeometry>
        </mxCell>
        <mxCell id="pIxflDysJiSax5W7jK0K-7" value="master" style="image;sketch=0;aspect=fixed;html=1;points=[];align=center;fontSize=12;image=img/lib/mscae/Cache_Redis_Product.svg;" parent="1" vertex="1">
          <mxGeometry x="1165" y="121.5" width="50" height="42" as="geometry" />
        </mxCell>
        <mxCell id="pIxflDysJiSax5W7jK0K-8" value="slave" style="image;sketch=0;aspect=fixed;html=1;points=[];align=center;fontSize=12;image=img/lib/mscae/Cache_Redis_Product.svg;" parent="1" vertex="1">
          <mxGeometry x="1165" y="218" width="50" height="42" as="geometry" />
        </mxCell>
        <mxCell id="pIxflDysJiSax5W7jK0K-9" value="" style="endArrow=classic;html=1;rounded=0;exitX=0.52;exitY=0.917;exitDx=0;exitDy=0;exitPerimeter=0;entryX=0.52;entryY=-0.071;entryDx=0;entryDy=0;entryPerimeter=0;" parent="1" source="pIxflDysJiSax5W7jK0K-7" target="pIxflDysJiSax5W7jK0K-8" edge="1">
          <mxGeometry width="50" height="50" relative="1" as="geometry">
            <mxPoint x="1245" y="321" as="sourcePoint" />
            <mxPoint x="1315" y="185" as="targetPoint" />
          </mxGeometry>
        </mxCell>
        <mxCell id="pIxflDysJiSax5W7jK0K-11" value="master" style="image;aspect=fixed;html=1;points=[];align=center;fontSize=12;image=img/lib/azure2/databases/Azure_Database_PostgreSQL_Server.svg;" parent="1" vertex="1">
          <mxGeometry x="698" y="95.5" width="48" height="64" as="geometry" />
        </mxCell>
        <mxCell id="pIxflDysJiSax5W7jK0K-12" value="slave" style="image;aspect=fixed;html=1;points=[];align=center;fontSize=12;image=img/lib/azure2/databases/Azure_Database_PostgreSQL_Server.svg;" parent="1" vertex="1">
          <mxGeometry x="698" y="204.5" width="48" height="64" as="geometry" />
        </mxCell>
        <mxCell id="pIxflDysJiSax5W7jK0K-13" value="" style="endArrow=classic;html=1;rounded=0;entryX=0.5;entryY=0;entryDx=0;entryDy=0;entryPerimeter=0;" parent="1" source="pIxflDysJiSax5W7jK0K-11" target="pIxflDysJiSax5W7jK0K-12" edge="1">
          <mxGeometry width="50" height="50" relative="1" as="geometry">
            <mxPoint x="721" y="195.5" as="sourcePoint" />
            <mxPoint x="722" y="211.5" as="targetPoint" />
          </mxGeometry>
        </mxCell>
        <mxCell id="pIxflDysJiSax5W7jK0K-15" value="" style="points=[];aspect=fixed;html=1;align=center;shadow=0;dashed=0;fillColor=#FF6A00;strokeColor=none;shape=mxgraph.alibaba_cloud.kafka;" parent="1" vertex="1">
          <mxGeometry x="970" y="108.5" width="56.7" height="42" as="geometry" />
        </mxCell>
        <mxCell id="pIxflDysJiSax5W7jK0K-16" value="" style="points=[];aspect=fixed;html=1;align=center;shadow=0;dashed=0;fillColor=#FF6A00;strokeColor=none;shape=mxgraph.alibaba_cloud.kafka;" parent="1" vertex="1">
          <mxGeometry x="970" y="178.5" width="56.699999999999996" height="42" as="geometry" />
        </mxCell>
        <mxCell id="pIxflDysJiSax5W7jK0K-17" value="" style="points=[];aspect=fixed;html=1;align=center;shadow=0;dashed=0;fillColor=#FF6A00;strokeColor=none;shape=mxgraph.alibaba_cloud.kafka;" parent="1" vertex="1">
          <mxGeometry x="970" y="251.5" width="56.699999999999996" height="42" as="geometry" />
        </mxCell>
        <mxCell id="pIxflDysJiSax5W7jK0K-18" value="&lt;div&gt;&lt;/div&gt;&lt;div&gt;&lt;br&gt;&lt;/div&gt;&lt;div&gt;&lt;br&gt;&lt;/div&gt;&lt;div&gt;&lt;br&gt;&lt;/div&gt;&lt;div&gt;&lt;br&gt;&lt;/div&gt;&lt;div&gt;&lt;br&gt;&lt;/div&gt;&lt;div&gt;&lt;br&gt;&lt;/div&gt;&lt;div&gt;&lt;br&gt;&lt;/div&gt;&lt;div&gt;&lt;br&gt;&lt;/div&gt;&lt;div&gt;&lt;br&gt;&lt;/div&gt;&lt;div&gt;&lt;br&gt;&lt;/div&gt;&lt;div&gt;&lt;br&gt;&lt;/div&gt;&lt;div&gt;&lt;br&gt;&lt;/div&gt;&lt;div&gt;&lt;br&gt;&lt;/div&gt;&lt;div&gt;&lt;br&gt;&lt;/div&gt;&lt;div&gt;&lt;br&gt;&lt;/div&gt;&lt;div&gt;&lt;br&gt;&lt;/div&gt;&lt;div&gt;&lt;br&gt;&lt;/div&gt;&lt;div&gt;&lt;br&gt;&lt;/div&gt;&lt;div&gt;Kafka Cluster&lt;/div&gt;&lt;div&gt;&lt;br&gt;&lt;/div&gt;" style="rounded=1;whiteSpace=wrap;html=1;fillColor=none;dashed=1;" parent="1" vertex="1">
          <mxGeometry x="940" y="95.5" width="120" height="213" as="geometry" />
        </mxCell>
        <mxCell id="pIxflDysJiSax5W7jK0K-19" value="" style="endArrow=classic;html=1;rounded=0;exitX=1;exitY=0.5;exitDx=0;exitDy=0;entryX=0;entryY=0.5;entryDx=0;entryDy=0;" parent="1" source="pIxflDysJiSax5W7jK0K-18" target="pIxflDysJiSax5W7jK0K-10" edge="1">
          <mxGeometry width="50" height="50" relative="1" as="geometry">
            <mxPoint x="835" y="380" as="sourcePoint" />
            <mxPoint x="1130" y="202" as="targetPoint" />
          </mxGeometry>
        </mxCell>
        <mxCell id="pIxflDysJiSax5W7jK0K-20" value="" style="endArrow=classic;html=1;rounded=0;exitX=1;exitY=0.5;exitDx=0;exitDy=0;entryX=0;entryY=0.5;entryDx=0;entryDy=0;" parent="1" source="pIxflDysJiSax5W7jK0K-5" target="pIxflDysJiSax5W7jK0K-14" edge="1">
          <mxGeometry width="50" height="50" relative="1" as="geometry">
            <mxPoint x="780" y="390" as="sourcePoint" />
            <mxPoint x="800" y="560" as="targetPoint" />
          </mxGeometry>
        </mxCell>
        <mxCell id="pIxflDysJiSax5W7jK0K-21" value="" style="endArrow=classic;html=1;rounded=0;exitX=1;exitY=0.5;exitDx=0;exitDy=0;exitPerimeter=0;" parent="1" source="pIxflDysJiSax5W7jK0K-26" target="pIxflDysJiSax5W7jK0K-18" edge="1">
          <mxGeometry width="50" height="50" relative="1" as="geometry">
            <mxPoint x="1040" y="310" as="sourcePoint" />
            <mxPoint x="850" y="380" as="targetPoint" />
          </mxGeometry>
        </mxCell>
        <mxCell id="pIxflDysJiSax5W7jK0K-26" value="Outbox Processor&lt;br&gt;(각 Chat-Server가 담당)" style="outlineConnect=0;dashed=0;verticalLabelPosition=bottom;verticalAlign=top;align=center;html=1;shape=mxgraph.aws3.traditional_server;fillColor=#7D7C7C;gradientColor=none;" parent="1" vertex="1">
          <mxGeometry x="840" y="170" width="46.5" height="63" as="geometry" />
        </mxCell>
        <mxCell id="pIxflDysJiSax5W7jK0K-31" value="" style="endArrow=classic;html=1;rounded=0;exitX=1;exitY=0.5;exitDx=0;exitDy=0;" parent="1" source="pIxflDysJiSax5W7jK0K-14" target="pIxflDysJiSax5W7jK0K-26" edge="1">
          <mxGeometry width="50" height="50" relative="1" as="geometry">
            <mxPoint x="700" y="410" as="sourcePoint" />
            <mxPoint x="750" y="360" as="targetPoint" />
          </mxGeometry>
        </mxCell>
        <mxCell id="UPaCZ7ILLn1rJXRc9_oi-2" value="" style="shape=image;verticalLabelPosition=bottom;labelBackgroundColor=default;verticalAlign=top;aspect=fixed;imageAspect=0;image=data:image/png,iVBORw0KGgoAAAANSUhEUgAAAJsAAACiCAYAAABWFL/pAAAAAXNSR0IArs4c6QAAAARnQU1BAACxjwv8YQUAAAAJcEhZcwAADsMAAA7DAcdvqGQAABiKSURBVHhe7Z17XBNX2sd/SoBwiQKGUAwFKla21V1QsAV1q3brpbtr7esFLWpXrVhtV8VLX0Vr61apWi/1sq1WW6Fau4rWVmlXrb6vl3WFraDwrrqitSWskAoREaQJEJz3DzNs5syEXJgMITnfzycf/TzPIZlMfmfO85zzzJlODMMwoFAkoBMVm/2cuVWAXM1pXK+vgFreDaMjB2Nk9CCyGYWAis0ONLVapJ59C+fvXQa8g6Do5IU6phloNiAhMAqfJGUgLjSW/DOKCSo2G9Dpa7Dm4sfYUPoFFD7d4NvJi2yCBqYZdY13MOvR32Nl/9eh9Asim3g8VGxW2Hn5IGYWbwC8g6Ds7EO6eegeNAJNNdjY+zXMj59Cuj0aKjYLnLlVgHH5K6Ez1kMpCyDdVtEZ64HO3jj61DIaz5mgYiPQ1GoxJ38dcqvyLA6Z9qBrqsUARU98+PQij4/nqNjMWJq/Batv/kUUkZlD47mHULEByL56GNOKNwFecpviMkdh47kdcQuR1mcc6XZ7PFpsedpiTMrPxI+GKii9u5Bup8HGgQeTlmNwRCLpdls8Umw/1esw9/xaHKg8J/qQaSvs0DoqNBlbk95AVJdwsonb4XFie7dgJ5aV7LJ5KsPZsKJb3GMiVvR9FXK5nGziNniM2L74/gTGFawFAIemMpyN7kEj0GxAVlw6pj45mnS7BW4vtqKqa5iRvwaF9zWSxmWOomuqxWPyUOxNWobk8DjS3aFxW7Hp9DVYfuEDbP/31+0WlzkKO7SOUQ3CBwMW45EAJdmkQ+KWYnu/aA8WXPnQZeIyR2GnSjJjp2NpYhrp7nC4ldiOlZ7D899lAg+aXDIucxSdsR4AkJPwBsY/PoJ0dxjcQmzFVSV47R/rcb7u+w4RlzkKG88dGvQO4kN/Qbpdng4tto4clzkKG8+NVw3Ch4OWdailrw4rNntLf9yNjljK1OHEduZWAUblrUBds8Gt4jJHYeO5o0krXL6UqcOITezSH3ejI5QyubzYDAYDVlz6CGt/2EdFZgVXL2VyabFJVfrjbrDx3NY+c/DHuFTS3W64pNh0+ho8dWym5KU/7obOWA+FlxzXf5vtEqsQLim2Hl+m4MemOno1E4EGphl1zQYwE0+SLsnpTBramy++P/HwikaFJgpsjLvz8kHSJTkuJ7aTFd8BXs6t6WpgmqF70Njyai/Mj8OZKLzkyK04T5olx+XEdqehBgonZZy6B43QNVRiSNdeWPzoSGREPo9Zjwx6aG+qRQPTTP6JU2hgmluOI7PHmP8cg2nOzBlUNFSTJslxuZgt5cQbOHD3sujDqK6pFgsjf4cl/WYITgkUV5Vg+aWPkHvnklOTEt2DRowKegK7fv0W7ziyrx7GtEtroPRVcextpYFpRi+5EgWjskmXpLjclc0Z6Iz1yHw8FesHLuL9wCxxobE4MnwjchKXQNdQSbpFoYFpxgD/CBwZvlHwOKY+ORoHn34HuqZa0uUWuL3YGphmPOYbYnM92PjHR+D04K1OEVxd4x18/sw7pJnD2J7DMEDRU7IhXUrcXmx1zQYs6PEiaW6VwRGJ2BG3UPQrjNJXZdNdVOmx41DXbCDNHR63FxsAhPl3I01WSeszDgsjfyda0N7ANCO5SwxpFkTl1w2gVzbPYv3ARRgV8iunT014ClRsVjgyfCOUnX3cMoaSGio2G/jn85+gTqTh1JOhYrOBRwKUuPTcNqdkqJ4EFZuNxIf+All9nTcH5wlQsdnB1CdHIyPmJdEyVE+Dis1O3k2aSzNUB6Fic4AjwzfiMW8FzVDthIrNQb4buYNmqHZCxWbG0vwtpMkiSr8gFD23nSYMdkDFZsbdxjq88O0C0myRuNDYh1UaVHA2QcVmRoCXL3Kr8uy6wo3tOQyZsdNFX7R3R6jYSLyDsPrmX3DgxnHSY5GliWkYo0ykGaoVqNgEUPqqkPLdChRVXSNdFvli2DqaoVqBis0CSl8V+p6cDZ2+hnRZhGaorUPF1goKWQCeOjaTNFuEZqitQ8XWCr6dvPBjk/0Z6tGB66jgBKBis4Kysw9yq/8PS/I2ky6LjIweRDNUAajYbEApC8DaH/Yh++ph0mWRpYlpGK9MpIv2ZlCx2YjSV4Vpl9YgT1tMuiySM2wdEgIiaIZqgorNDpS+Kgw4nY6f6nWkyyLHntuEumbDw2fJezhUbHaikAXgl0dfIc0WUfoFofS3e4Am26dQ3BUqNjvx7eQF3YNGDPzatpueASCqSziODlznEvtttCdUbA6g7OyD8/d/xKK/ryddFhkZPQgZT0wizR4FFZuDKGUB2FD2jV37no3tOYw0eRRUbG1A6d0FM4s34MytAtJFEYCKrY0ofVUYcmYONLVa0kUhoGITAYVPN0Qfmw6Dwf02gxETKjYRYPet/c3JOaSLYgYVm0iwGerss5mki2KCik1ElLIAbC8/iT8Xf066KFRs4qP07oI5l7fiWOk50uXxeITYOneS9msqfVV4/u9v0AyVQNpfoZ2oa/yZNAlS39xAmhxG4dMN0X+dYldZubvj/mLr7I3Ld2+QVkGO3ykW7RkMvp28oPCSY+TJdNJllX/euQ6IdByuhNuLTdnZBxvKvrE6B3bmVgF+NFSJ+ohJ305eKNTfxtgTb5CuVplTssctH9zr9mIDAHjJkXJ2KWltQaevwZBzS5zysA1lZx8cunsZA79OsymGs+d+h46GR4hN2dkHuTX/Qo8vU3DmVkHLVU6nr8GBG8cR+tV/QeHE52UpO/vgn3otonPHYPbZTORpizmxnE5fgy++P4HQg6ORW/Mv0Z9u4yp4zOOEwD4O0VgPPDAAneUP//UKkHTI0j1oBJoNDz8b4ByHwksu6jDOQh8nZIGeikdJk2j4dvKC0rsLlL6q//wrodBgusq1fDZxHM4QGgDUMc3o3/Vx0iw5Lie2CTEjaAm12DTVYGKPEaRVclxObHGhsVgYPZbecykSuqZajFcNwuCIRNIlOS4Xs7H8ufhzzLm8FfAOckr85u40MM2oa7yDzNjpNj8kztm4rNhgytJeO5eJA5XnoPDp5rSYxp1gRTYqNBlbk96w6cFsUuHSYmMpqrqGGflrUHhf45S5MHdBZ6yHUhaAg0nLXWLYJOkQYmM5cOM4UgrWAJ28JM8iXRndg0agqQY74hYirc840u0ydCixsbxbsBPLSnZ5fDzHDpkLo8dafBy5K9EhxQYAP9Xr8Pr5tTjkgfEcOzk9QNETnz/zjkvFZa3RYcXGkqctxqT8TPxoqPKIeE5nrIfCS46c/kswMnoQ6XZpOrzYWLKvHsa04k2Al9wth1Y2LtvaZw7+GJdKujsEbiM2liV5m7H2h31uM7SycdmsR3+Plf1fd/m4rDXcTmwAoKnVYk7+OuRW5XVo0emaajFA0RMfPr0IcaGxpLtVLhYWtvz/yd69IZc7r6rFVtxSbCxnbhVgXP7KlvmnjoLOWA909sbRp5Y5FJedPn0KSUnJuHv3LsLDw5Gfn4/4+Ph2F5zLrY2KyeCIRFSNO4wdfWZB11Dp8g/F0D1ohK6hEht/8QcwKUcdEtrFwkIMGTIU5/72NwQHB+NATg6SkpJQVFRENpUctxYbS1qfcagacxQL1b+BrqHS5bYdbWCaoWuoxKxHBqFqzFHMj59CNnGIq1eu4NHISACAj7c36ZYcjxAbTDtArh+4CKWjDuGXfuHQNdW6hOh0TbXoJVeiaHg2tj2zTNQEoF9CAu7X1QEAGpuaSLfkuHXM1hrHSs/h+e8ygQdN7RLPsbuIH0xcLOq+bQaDAUVFRS0xmsFgwNUrV1wiSfBYsbFIXcrEzpc5s/SHFRhMVzRXSA5AxfYQnb4Gyy98gO3//tppUyXsfNl41SBsGbAYjwQoySZuDxWbGcVVJXglf7XopUy6plo8Jg/F3qRlSA6PI90eAxWbAGLFc+ydVDmJSzD+8fa/B6C9oWJrhfeL9mDBlQ/tjufYuCwj5iW8mzSXdHssVGxWsKc03ZVLsl0BKjYbsVaaTuMy61Cx2cmBG8eRUrgOYJof7jRkmhjOikvH1CdHk80pZlCxOUiethgV9ZXoHqCiVzIboWKjSIbHrI1S2h8qNopkULFRJIOKjSIZVGwUyaBio0gGFRtFMqjYKJJBxUaRDCo2imRQsVEkg4qNIhlUbBTJoGKjSAYVG0UyqNgokkHFRpEMKjaKZFCxUSSDio0iGW59w4vBYECZRoMKbQWqKqvQ0NAAX19fBAcHIyQkxCW2kfIkRBPbwvnzcenSRfia/XiRkZH4aMdOTjtrXCwsxOuzZyMoJLjFVlVZiXPn82wShlarxfFjx/DRtm3Iv3ChxR5otvHifbN98WKiozDtlRmY8vLLiDTt0miNKZMmQXdHx7EpuymxZ+9ejm3zpk04/NWXnHPi6+uLrw4f4bSzhlarxZjRoznnpKb6LvYfPNhyzNlZWdj9aTbns9h2p86etencmVNWVoYJ48ZxPhOm3yL3m78iPNyBu/0ZkZicmsoEB/ozURHqlhcAJi8vj2zaKoUFBQwA3vvo9XqyKY9VK1cyAJhA74d/HxMdZfUVFaFmggP9GQDM5NRUpqKignxbHgl94xlVSBCjDlMx6jAVowoJYhL6xpPNmIwlS1qOxfy77Nm9m2zaKhqNRvCclFy7xmkXHOjPqMNUnHbBgf7MzLQZnHa2MHTwM4wqJIj3matWriSb2oyoMZt/QCBkMlnLKypCjckvTSSb2YT5+1hDq9Ui4pEwbFi7GjHRUQhTR9n0dzB9TogyFDHRUTj1PyfRvXt35Ofnk814+PkHQO7nB7mfH/z8A+AtE96z1l8RxPkuMdFRmPLyyzAYTM+ItwNr5+RQ7tcov13JaReiDMWOnR9ztqq3xoGcHJw6cxaKLl05nxcc6I9lb75JNrcZUcVGIpPJcLNUg+ysLNIlGlqtFt27d4fM2xshylDS3YLRaGx5WULu54eY6CgkJyfbJDhHCQ70xzt/+hNpbjNDhgzF5NRUGPR6jj0qQo2UcWM5NksYDAakTJiAmOgojl1zqxyHcr/m2OzFqWIDGxNNn+5QT7aFMaNHQx2mEuzt1boq3CzV4GapBsrQUDzRuzd6xMS02G6Xa8g/AUzHnJyc7LRjDlGGYvWaNSgrKyNdbea99etRfruSY2M7/eZNmzh2IV6bNQuqEO4m0ga9HpNTUzFkyFCO3V6cLjYAUIUEYVlGBmluMwdycpB/4QLkfn4cu9FoxM1SDRYuzkDJtWtgGAYFFy/h6LHj+N/TZ8AwDCoqKrDtk92o1lWhrvYe5+9huvpsWL+eNIuGOkyFV2eKv6dueHg4snbtws1SbkeKiY5C+vz50Gq1HLs5p0+fQtann0LRpSvHXn67Eu+JcC4kEZuiS1ds3LQJ10tKSFeb2PbhB4iKUHNsRqMRMpkMFRUVWPbmm+gVK/wYnvDwcEyeMgXVdfUYPvK3PMGFKEPx5vLlHJuYyP38cOz4tzh54gTpajNTp01DQt94XsigDlPhvxct4tjMmTB2DO983izVIGvXLseyTwJJxAbTF503T7xdGA0GA06dOcsbPjW3yvG383l2nZw9e/dC0aUr78cB4NTYLSpCjalTJpNmUdix82NobpVzbHI/P3z2+eeCAs9ctQpNjY2c82k0GpHQNx5Tp03jtHUUycQmdk9mt143p672HjKWLLFLaCyr176HO7e5P06gN/D9jRscm5jIZDLcq660KZayl34JCViQns67YkdFqJEy5kWO7XpJCd5cvpyXYGlulWPHzo85trYgmdhg+qKTJqaQZoeorq4mTaisrsGzzz5Lmm3i6aQkzmQvAHj7+uPOnTtco8iEqR/GUs5IRjJXr0ZldQ3Hxl65MletarGlvjSRN3zW1d7DgvR09EtI4NjbglPFRvYqmUyGn+tqnNKTWQIVCtJkEyqVijQBAO7fv0+a2oRBr+cN16qQIMybO4djEwO5XI6c/ft5yQIbj2q1WmRnZaHwUhEvHKmsrkHm6tUcW1txmtjqau9h7vyFpLmlJ7eWFbUn7LTIzVIN7t7/mXS3CYNej9+98AKe6N2bIzhFl67YsfNj0RMoABifkoKhg58RnHub9NJELF60gDendrNUg5z9++1e4rKG08TW1NgItVqN7Tt28nqWKiQIK95+i2Nrb+RyORiG4b3aMmMuRGBAIDZv3sIL3qMi1Jj16kyOTSyyd+8RnHv74eZN3jSHQa/HyBHDMT5FnHDHHKeJDQDu3buH54YNQ1L//oI92Z4lFHfhfv199IqNxbQ//IETZshkMpw6c1a0BMqcyMhIrFq5EtW6Ko6dHDphmlOzt3jCVpwqNpZP9+wR7Mmvz57NsXkSQsF7THQUhg0fzrGJhS1X6NvlGmx6/32bq1/sRRKx9YqNxcy0GbyenH/hAg7k5HDaOpOysjLk5+fb9XJGHAXTpPKm99/nLZkFB/o7LYHKOfQVL6RhMRqN6Bqiwrz0dNIlGpKIDQA2b9kq2JNTJkzg2JzJl4cOITk52a5XdnY2+TaiMS89Hf6KIE6IEaIMdVoC9dywYVCHCWfdmlvlOPjVYdIsKpKJTS6XI2vXLsGebD7n42yCA/0REx1l0ys40B8BAY4/KM0W9u7L4YUY1paVHOXkiRO8RIEl0Bv4txMKA8yRTGwwrdl1C1PzejI75+OJPDdsGEaOGM6ZmmCXlcROoFLGvMibvGUJUz8cZZwxucwiqdgAIFsgWXBWT+4ofLRjJ++KExWhxsy0GRxbW2BHD6EMlMVZk8sskottyJChGP3CKEl6shB37//Mmbg1f7UXkZGRyFiyhDM1IZPJUHipCAdycuDtLVwFbCtlZWWCa58k7JSUs4oPJBcbAGzZ+meLPTkwMJBjF5N56em8SVv2pdfr21Vwb739Nm/FIiY6CtMnT0BdbS3Hbi+vzkwTTAyEvm9bSvmt0S5iE5pklMlk+KmiAvPmzbUYV7gzcrkce3bv5gmga8jD0ixHz8nJEydw7Pi3vALTm6UaFBYU8D5PJpPhdrltVb320i5iA4CFixbxerLczw//unKl1bjCnZk8ZQqv6LGt5yRlzIu8tU928rZfQoLgQr2z1q/bTWyWKhJsPakyb367ttSflWn4QwoApw7rQggVPdp6TkiEppSMRiPC1FEtk7fjU1J4y4kwJW2zZ73KsbWVdhMbWvmittCjRwxpQrcwNT7YupU020R2djbvRo+7939G9+7dOTZn0y8hQfAOKXuxlBRobpXjs7/s49iElhPlfn44fCRX1LXadhUbAHywbRvvi9qC0PoduwRmb7xxsbAQq9es4VVAwFRUKTVCd0jZy9w5f+QlBXW19zAzbQaSiO/UKzaWlw2DXeEhqnptwdJcXbuLrV9CAm/d1FbIJANmdxEtzciw+KXNyc7KQkJiIi+uMRqNSOrfX1DUzsbSuqmtnDxxAoeP5PKSgsrqGmzeInzlf3f1ajQ1CNfvCQ3HQlwvKcHFwkJUVlbiYmEhbyqr3cUGACv+9A5v3dQWpr/yCi/JgElwn+zYDj8/PyycPx+f7dmD06dP4WJhIU6fPoUDOTlYmpGBEEUA5rw6nSc0mIab1e+tJc2SMS89Hd6+/g6FGEIrBbYURH75zbe8GJpd4bFWkKDValvEbdDrERgYiCd79+b8nUuIzdGeHB4eLphkwDRBGRMdhc92Z2P2Ky9j6NBnkZCYiKFDn8X0yRPwyY7tCFGGIkzNF9rtcg1mps1o8025bSXn0Fd2hxhCKwUGvR5DBz9jtSBSaOkMNhZ2aisqEBkZierqavSKjUVZWRnkcjmnrN4lxAZTT+4aorK7J49PScGqlSsFBQeT6MLU3AX2MHWUYHwG0xXgN8+PcloBoT1Y+vEtYSkpKL9diezdezg2S+zKyubFi2xhp63lYBcLCwVnC1xGbADw2b59dvdkmAoD2SscGcPZSl3tPdws1WDVypV2b2nlTDZv3sL78S0htFJgb0GkpVEmxlQOZikOVoaGwmAwIFChQL+EBMjl3HgREHHLrNEvjGIAcF6ObK80csRw3vvYumWWXq9v2TYLAGcLKXKbLHWYqmWrLADMzLQZjEajId9SEHb7KPNXTHQU2YxZkJ7Oazc5NZVsZhWh9wGxZVbO/v08PwBGFRLEeS9bMT83th5/YUEBo9FoGL1ez1RUVPC2SxNtM8DrJSW8296UoaE29ygWg8HAuwG5samJl65bIz8/H//Iz8fVq1dw4/p1nDpztsWX0Dcev/pVHOLi49G7d28M+vWvWw2cSYQWqn28vXn3WJaVlUFXxb3SBgYGWtwSwhIGgwFFRUXwMVuQb2xqQnx8fMtxk5kfS3j37g7dtK3VaqGtqCDNVn8LdrdPRZcuvM8VTWwUijVcKmajuDdUbBTJoGKjSAYVG0UyqNgokvH/Qn4JTT1vxZIAAAAASUVORK5CYII=;" vertex="1" parent="1">
          <mxGeometry x="240" y="151.25" width="97.11" height="101.5" as="geometry" />
        </mxCell>
        <mxCell id="UPaCZ7ILLn1rJXRc9_oi-3" value="" style="endArrow=classic;html=1;rounded=0;exitX=1;exitY=0.5;exitDx=0;exitDy=0;" edge="1" parent="1">
          <mxGeometry width="50" height="50" relative="1" as="geometry">
            <mxPoint x="337.1099999999999" y="162.25" as="sourcePoint" />
            <mxPoint x="387.11" y="113.75" as="targetPoint" />
          </mxGeometry>
        </mxCell>
        <mxCell id="UPaCZ7ILLn1rJXRc9_oi-4" value="" style="endArrow=classic;html=1;rounded=0;exitX=1;exitY=0.5;exitDx=0;exitDy=0;" edge="1" parent="1">
          <mxGeometry width="50" height="50" relative="1" as="geometry">
            <mxPoint x="340" y="201.25" as="sourcePoint" />
            <mxPoint x="400" y="202.75" as="targetPoint" />
          </mxGeometry>
        </mxCell>
        <mxCell id="UPaCZ7ILLn1rJXRc9_oi-5" value="" style="endArrow=classic;html=1;rounded=0;" edge="1" parent="1">
          <mxGeometry width="50" height="50" relative="1" as="geometry">
            <mxPoint x="337.11" y="257.5" as="sourcePoint" />
            <mxPoint x="397.11" y="287.5" as="targetPoint" />
          </mxGeometry>
        </mxCell>
        <mxCell id="UPaCZ7ILLn1rJXRc9_oi-6" value="" style="shape=image;verticalLabelPosition=bottom;labelBackgroundColor=default;verticalAlign=top;aspect=fixed;imageAspect=0;image=data:image/png,iVBORw0KGgoAAAANSUhEUgAAAb8AAAGXCAYAAAAj7F4pAAAAAXNSR0IArs4c6QAAAARnQU1BAACxjwv8YQUAAAAJcEhZcwAADsMAAA7DAcdvqGQAAP+lSURBVHhe7P1psGRpet+H/Z53OUsud69be+/VPT3Tsw8wG2Yw4AggAIokIJnmohAjaIVlWwp9YEimI8wIU45wyOGQLclh2jJF2SEFaQukSYkkAIIghgMMgMHMYPbunul9qa696u65neVd/OE9eetWTfeQklARw57zq3gr857MPJl58t7zz2eXEEKkp6enp6fnxwh1/4aenp6enp53O7349fT09PT82NGLX09PT0/Pjx29+PX09PT0/NghfcLLjyZC+lhOfjgRATm5Te67z/IxQui2KEARUTF0++x2IIrYbYlATLsCQGLas3Q7PnHTDxAlAoEogUiA42fWCNL9HLtXoiHquw8WB7R3XxcGCbbbL/e9+56enp4/Onrx+xFEiBB9p0DqWAoD0q2IILQx4L1HG4PuJMoTaCK0ojBABlgilgblXVIVMSCGqBS+kyd/Qmo0YAKoTgSPOfmbIulnF1tcrImmRZRDcIBCUQIQqDpRtCiGKIoTD18Q2QcaFAaJK0i7AhHELoW1p6en54+e3u35I8uxTQbE+36C2jUYUeTGYgEXKqpmgmum4OZIqAmxBhZYahQtqJA+cQEQQkzCF05YdzFAcCCS1l0TcLm6C5cujbYU2YBMZUCkpaZmTsARCSjAoLFkKLLjx8cIYFDo7n+FEhDd6X1PT0/PA6S3/H4kCRBdJwK6c2Mu3ZTpHwQMguCpFhOCaxjkFsnMXVeja6Btk4opC2iCg4UTstEGHkXoRM4svwl5D6FGW98p3FIBNUQDIYOo7no3k18VABfnhLgghICVAVrpJLiiIOSEIPgWQgSlk9Ap06CoOtvTEENBDAbRnWnZ09PT8wDoxe9HkkDEJcsLTYrWLc2hCHhUDCgJ4CqoZmAl+SvbCnZvw8CCd0lpRIMdQD6EbAy6xJPh0IQoKBEsEUVn9lGDXnTil2y3tDKIGUSbXkZIliIxIqoFaUG3IOGuoShyVzRDfrw9prcGCqJ4AjUR15mgGqOKJLI9PT09D4Be/H4UkUDAdT8ky48ufQQCKjqa2SF5mUFsoJnBbB8O7nB47TK7V99EzfcprEHKIZQryHiTfPMs47OPoNZPgylBciIq7TkGCF3kT1pQi86C1Mki6yKHSQQ1BJJYRpdeQ6ggLKBztaLqtL/QCZ8agBmCHUIs0iI9XQjgYiCoCmUrjBigQGJKfunp6en5o6YXvx9BogR8J37SBenSv4jCkXyHNbgFTHZor7zG9VefZ//6ZdrpAWWsmd+4QpFZGAypTEmVDYkrmwxOX6TcPMul93+EfLQOw7W7WZguJhelImViqtiJnyZ0IhwBwRHCAqsaoII4h/YQ5nv4+QFtu4/SU0Js8a4gSoEyA7JijClXwKyCOQNsQVxNHloPUXu0nXcu0EEvfj09PQ+MXvx+BIkScF1GieryOJPwdZaWr6Gd077xItdf+i77b73M9MYb+MkOq7ni7OqYrFlglKYxlqMQ2feRqVhcOSQWI848+iRb5x7l9CPvgY1zQAneghRgirsxvS7kFwSCgsgCxYTILsIu0t7GV7eIi9uEeo/YTAnxgCC7RBzel4SYIzpDZwUqKxC9wXDwNKIvgX4GZAMCeAGxVeduzZFo7jsyPT09PX809OL3I0g4Fr9ULaeWwkcnfK7Cv/ESL3/zy1z9/jcZ+RnbpZD7OdYtGGpFfThBa0OwltYaFlpRCSwEGmXYm9U89OQHePLDP4V9+Bkoz0AcE7I1lFZJf5ZpoKoTPh2BA4QdFDdp4+vMD1+mOnyDWN2kkAUDG8myBrIZRIf3Bc4pPB4vEUcgsIbN30ORf4Qs+zSYpyCO8RGiXaAEwCInawJ7enp6/gjpxe9HkCCRBofzDVYJhQjgmN64wujUKoff+Tp/+IVfZ+BnjNyEgZ9R+jlFqMhCg44gwRJE4RV4CXjt8OKJyuNFqKLAYIMbC8tH/5U/y+Djf5J2UeJG24iGrCKJkKSYHBaUroDbBC4jvMlk9hzT/edR/iZrRUthWqinNIsJ2UAnezXkaR+qJqgGr1tcHLKotvHuaYblzzLe/GnQD4MvacIcZTRasr4Sp6en54HRn11+JBF8BERhRUNISS2jUsOtt7j16nMM/ISh74QvLIWvxsYWHT1RIHSl5ApPFloGfsG4nbDWHrAdDskPr3CKKdde+CbT57+F1ULtoQF8CvWBdGFAqYFD4A4+XGXv4FnqxasYdYsi20erPYgHoCuyXKVEF59clxJBR4emwlBj1B6ZvU1mrxPCKzTT56C+DGEXqzw6pbn29PT0PDB68fsRRbpEE4Wk8oPpARjP7gvf4sZL32HkJwz9lCLMyUKNiS06BiSmKkAngleCF0n9YCKYECmCY+AqVqSlmO2xqRpuvvgdvvf134dmhhZo2pTUGVVNVHPQe6B2gVuE9k2a2evM9l8i1jcYmBmlcYj3hDpCm6dEFncW3HloT4PbAreBcisob9BBkytHZo/w/nUOD7/F5OhZCDcQUyG4Ew3aenp6ev7o6cXvR5CIoEXj266QTilYTODoDtde/A7h4DoDP6X0M/KwwIYGHT1AcnWKEJUnKE+QSBBF6MoVCAYVNHgYa0MZHLaZcXD9dfavvcpAaqw4okzw6oAgB4g6Ag4g3KZdXKOdvkXOIYWakKkq3d9HXKPxTUlsBsQwJoYhxAGEEfhV8Gsot4Z2Q0w0ZKpG4g2a5mXq6iUI14BpVy7Ri19PT8+Doxe/H2GCh9C2yfJrF8TLr3B07TW2Syjvs/oAgmhasTiliNIgUqWyCVG0UtDIkEZWcKwQK0NRruMXDefWVxnFiqvf+xp6foMBByjmeCqiqkEqYALVDmF+m7i4w2reUkiFcgtC45Bg0WpMjGu0fkAQwStHUCEV6McB+A1oT6PaU9CW6Biw5gCjr6O4DP4q+D3wVS9+PT09D5Re/H6EMSZDQuwK0BtuvvEyuj5ie2QowoIsVNjYdJmg4EXhxOJFIdK1DRN/LH61jKlklVpWmTYZyJDQRtbKghXj2HnzeaobL2DDEeAIqOM6Q1yNm08I1RHGzcmp0H5OaGYEV6NEoXWJsmPE5ngzIdg9vNkn6Hma0hCKYwuQNgfvycycsjhC6zs09VWodklRx178enp6Hhy9+P2I4iOUmUahYD6H4Dm4fZ2VTMhDTRZrbGzQMcXHggheNE6lLE9NjWYBtARRNCpnoUbM1RpztY6zm9Qux9gh7WKOcXMKd8DB5WdBFl2BxRDFECigVfiqhaYlk0hs5ihfoWkwyiMSCJIEOJgGn1/HF68T8rcI9hZRT0A8xBxCicQMfETJgiybAXvM59eJi/10v76vZ09PzwOkF78HgCBIFCScWP6+tdwelyXs0glYynSMC7CB1BtzfghSsagOGJYaV80wIaCiEEXjRNGqSKs9TjcEVYO0CD61SpOAV+C61Sowg4IaRzEqOJoe0rYVo2HBwe5tUBoJOULRJd44iBOCTxmdRtdE5xFfomUbFbcIfkjTehp/RBtmEAokDNI7UwtQU1Bd95ag0T5DWo32ESue6GfU9T6Nm4DuGnN3Dd2OG4kSuu4vy+tLgZQ0qunkOn5sT09Pzw/Si9+DIHZNStKs1uTFu3+1d8/j0jV6Xt49AqOY+ksTIwwVqClHfo8mzInBp6GvoaCRgkpbFlmgyma4bI9gDokSiZgkD+KIUiUB0oeg95lUV8mGDbcOrjLYGNIoxVELCxlAmyN+iI1596oOQK4i9goqv4noI7QeQjgHiyehegrcOZQUqGwfrRvs/Gns5CfQ1UWUzxE1Bb0LMkkHwIxQbQlzg9QKFVOD65oF+Nm92iUhWYPSNc+WNrVfk64KP3YH7aRG9oZjT0/PD6EXvwfF0vi4f528rSPStQ87OVR2ebuOYKESxyw6ZnVNiAqJNvW+jF2z6SioCCZ4TIhIsEjMUdGgg2Cix8aGLFZksWJoPc10j5UyI7YthcnJVEFoFIQMkazrsBI7tZ6CnhDVIVFNkwBF1bkxu2kNUiN6H1ETJBiUL9LbUHV6jJ52DbNd8utGnSzLKAQ8QVq8akG5E0diqWbvtE6oXC94PT09/4L04vcA8ApqC1UGTQYuA593o/DyNBWITre8Sa5I35ku0s09DzZNEHIWQllS6RxvR1Qhw+YrEA06KKxX5E4xaDJGVcnKYsSwGpO1Q7QrMa7Auoyi1QxaYdDCoI2skqEnFSsqp6gD6yqnqBzrYrsG19KNVFKp6XUwhChECQRZgD4AexvsDbDXEHMTZXZQ6gDRO8T8dUL5KiG/SrD7BFMld6xyoHwSVB0gi3jtaGloaQjHt7vOulu6OZfKdr87M9z9MtHl5vzAXXp6enruoxe/B0Ak4vE4PK14GpVWrdNqtKNVASeBQCCmsbKkarw0P8EraI5nOwyIekw5PktQY0yx3rk0FSpGTADrNZnLyJshWTuCMCTEEmKGDgYbBOsh85HcR2gcQ51B7TBesFEx2TnkzMapTj1SvDANrrXEWKaFIeCJqgI9AbMP+gClJigW6X1IDWaXYG4T9YSgkmXrRROXo9qDT1atAa8CXkIa33c8xNafiO+dFD51YtFNmffp8uTNvQD29PT8EHrxewAIoetS0qZsS1o8joDrJDH9i3gEj+5K0POYlg0ei09z8hAgJ8Yxq2uP0voR83pZ0gBBeaL4dN4PBu1LJAxxFLQqw4shdEk0ioCK6TljU8N4TL1YgDY0ASZ1w+DCwynJRto0XDYKUCKsoGQN4pAQM6JEkAZk0dUBBlQwKFegQoZIA6pK9mykm9A+JsQBkZzQjU4KEvEEghJ0lqHscpLDSfFLRzX9uqb5gseTcIkn4oF1t5rusT09PT1vTy9+DwCBbvRrsuSSNRc6UUyuzeVSRHQEtQz4ua7OgUBG7KY65GhWOLX1OIERe0ctrdK0OtLqtlsuuU9F40TTaEWjwamIV56g2m45vPLU4iEzTEWYG8t+iAzPXYCtbbAGlO8mqxuQIegttNpGZJPIGE9OFNO5RQ2EEvwKym2h2k3ED1ChRPwYcavgNsCvEcOQGC0oTRQhRCEEjdED8nyVPFsB8u4oLi2+TvSiuW+dNPGWB6/tXKZ9ALCnp+ed6cXvAaACGAeZg9xDEYQ8CjkKi2BQGASDoEI3L8ifWE6gCdCCbQyEgpE9xcMXn2G4cpYaS60VlfUssoZFVlHZmiprWFhHZT21aWlMQ2sqnFngzBxnFjSmprION87ZqefU6+vsZBl3bM4jn/w05AVk5oSQGJAxqG2UPkfgNCGewodVfBhDGENYTf0727NQP4zUD6Pqs+j6DKo5n1Z7BuU2ET9EYpaK56MQvQKfY2WVgT1FobaAUQqKHlt6S+FLyTFdeLRLuFlagEsRXN7Y09PT88704vdA6Ca/ep1WUKjlisuuKYp47LrrlnQLBa3vZuqZFLcbbKLOPc5o8xwMVqiMpjJQG09jWlrT4HQaGxRUndqSqQqRBdK5JqOqU3KJhjgccWNeE9a2ONAlB7rkwod+gt2gaFVGeywgeWpNpjYR2SKyhYureEZ4SrzkRHKIBYQB+BG4MfgxuDG6XUG5EcqXSDCd9dsinas2OgtuhAlbFHIexRlgPRXWL92bS9HjhLYtX16UzgJcLukDfj09Pf9cevF7IAgoC0EIVUtsIqgsbRNL7SINwsx55iHQKsEpaIKj9W2KcxUF2Bxyg9cQ8xJ85OH3fwi9tkFtMybeMfc1KhNsBtHPUXHOailYP8O6GdbPUO0E1U4RX6O1YMshB5Vn9dxj7FSaptjk0kc/g8vXWN1+lIPKIWQQLb5RKV1VraEH57D5Nq0fMm80LQasJehI7RfUbkqUBWSxq0RIBedKQGuPNjXKTsFMYJzide3CoNwGY/sEJnsKwiPQbEIYIJ2dLKTMU+nihyF0y6efk+s1WYgxqjR/cCmWPT09PW9DL34PiMVsBlqjRiOkLKhax6xpaIkYY5P1ZwxeC62A0+ALTRxYYmlACS5GDgMcBDgkwOqY0aUneOonPs5MMpwdofI1RJd4B65uoa1RvmVsDGtZxnpRsF4MGOoMHRTNInI48YzWH+LqnZqbB5ELj3+Y93/885jxaSI5RiXhUTFLFlYAYgl6hXy4zXj9PE5KqiDMXYvTLWYYMIOaRnap5ldAz0BVXV3fhBD3cWGHxt+mDftQTQjekNkzDIsnwD4BPAzhTHL9hiRiIXQJM10jAJE05CJ0Py9vA5UcypKh1TJm2NPT0/P29JPcHwBB5G7uSggoJWjk2FvXhharLC0OiBg0AC1pOkNGhkWo0ywFKgKEmrNKU/hDuPMGR1//Anfe+BZ3brxAqWpOD4asRk05DeAcO0e30bmiyDO0SWURTRQasdSq5IiSiYzZvPRhHvvMn4AL74E2YxFz8nGWnIcxzdFVsfuaZO6Aeg74Prt3fhvXXCa2RxTaM8wtVnva5pB2tmAgo+TC1Z5oPNEAohAxEHLmR2DUafL8CRh8EPKfAP3+NPmBzuuZDgt0InfiJ+S+gbfL25eb470P6Onp6bkH/df+2l/7D+/f2PM/Di/QIjhg4SpC9OTKoImIa3CzKUOjsK4lC55CR3RsoFmAq7tpBzlNWO4rUMc5SlqGCmhb8gsPsxoUB5OaxSJCzFHBEmtoa8/q6bPkwzWUHdLGjHmrmbSWics58gMqu8VTP/F5zvzUL8KpR2AOdR0xdoA2XYF7Vzp3bERJ6Cy5lqxoQaBpAs5FUIK2EW1brBUEk0w0E/E6EgwErYmSE2WFql7BmEcx5TOQPw3qcYjbEDVBllPkPdLV8Yk4otT4sMCHBVoFIi0htITgiSHejfctTcSenp6ed6C3/B4ATuDALzDakqMxBMJigWlajEpxshSYCtB243skJuvKapAMFprGWOqhYU7LUdhnpOAsBmaLFNOa7MPtt7j15otcf+U55jfeYrVtWCsyggYfPN57Wu8JyiD5ED3aJAzWeeyDnyB//Bk4dTH5XCVPmZ4C1XRBMcpA6XtrzFUL+i3gOnCFEK4xPbxJM7+DhD2sPkCpHUxsKRhDULTSUNPQisdHQwwj8BuslE+R6yfAPgXZYyCngTWc6urqfYMxLVrRlTGkEgZHQ4i+EzmFiEXIUis3lSfR7VyifdZnT0/PO9GL3wPAS2ROjQJKNDpGaDzMK5guoGrg2lX80RHTySE+tCgj5IOccn0V1k7D+qOQ5XDK0qiWQ46wwBpF6od2+wjKEeQK5nvMr77I/pWXCTvXUc2CK9euIkphjKEoBwxX11ndPsfqmYdQa2fg/OMQDD5aoskxnfARwbUVWgdEF105QdoeAMwOSvaAw+SUdXN8tUOzuEZTvUXrLiN+RhYGgMJphzeBYBXKDNBqAxW2Wd34KISHgIdANkFyvE5fHCIOQ4PhZHfwmkhDpCUS0NjOPMy7VXTNACwhgFLdm+np6el5G3rxewBESRE/oUXmDdQBFi3cuEP94ivsv3GZqy++hJ9Naao5RIdo0JmmHA2wo1Nc+ujP4jY2GDy9DY+sEQpHFI2mgDqDmQZliUUyFFE1hEO4/Sbz3VuU+QBRqssQ0WAsFGMYrkG+gosZUyd4ZTBG4Z2nqWaUVjHODYo6lVmE4XE8LUpXkSELCHWKYgbAzcDdhPotWv8G0R9RTx2ihJBFyAQ9yDD5CpndQjgD6gnwp8GVqTLEQiORhn0UDQWWGBuqesKiOqBxR4S4QJRHBAaDEVoVWD3G6DGaEcSSGDJi0BhzImDY09PTcx+9+L0D6aDIceLHye3LOuvj8BIkIYixS5/1VPURhTXQRri1B8+/zJVvfIdrzz7P5No1LmxsQNtgtJBZQ8TTNDXOObwecPXAM3z0YZ74/Ec595kPwfl1GA9Tn8+FRuwAgKChCuCjo9AVVlUnBiN1Uxkiqe6wKwoPkrHQOU7M8cQlunsvu9LkRCKKtk0ionQK4XX6hwpdj+rUfBTUDPQ+yG1gnl4US1dpIBgQXSCMuzq+U+AGxDbFNUMOTmY03CIyxeCoZofs7d9id+8G0/kuzs9ROiUQVYuWslhldeU0G2vnWVs5y7DcJFerSGcFpokXy/q/k3QjkpYm7fJdHdcLLun/NHp63q304vc2xOPOkIIOXbbjydsU1D4ZUx6o64pBZrEi4BxKw+HhHVbHY7i1yxv/6J9w5UtfYTyZs6kE1VSAI0pqYB0BFQUdBBsUEaEWoSoMB4XiYJzz6b/45xh94hNMDiaMT11MptLy/K2A2Ha9QD3kwiHgiYwJ2MUiWZ46S7WDSkOW0SjNHpF5FLwYluX3AjQOlNztQR0DaAWl6ZqPBSgFitCN1WsaqPfBNpDZ5JqN3UimTIg6Je4kSTRYBjQ1lNmAGANHi9uMhoLnkFdufY23rnw9zQCUbryRuE600h60ygle41pNcJY8W2Fr8xwXzj/Gln2UNm6i/BpGDxA03oP3oDVo44ndlPtkuuo0QiPmXb1gdxB68evpedfSi9/bECVFmoiCWYpfd5SiJEulCnfFL0RPLgodPdK0KImgA9MXX+S13/4yh9/5HqNbe2w2jqKtCe0cU5rUm1OlDp8qpvFEmVMoIot2Qr65yo2q4roWyve/j0uf/2Oc+ejHYDDuTtadlSKSRCZ2RXFWuCMwp2HsIhu6TBaoi9C0RCXMByWHRrEL7LZwa3/GlWu3uX71Nrt7RywciDJorSmygrXxCtubm5zf3mJ7RXhsC0ogD1A4GGsguiTAtUuWl7aQKdABR6TBdVKjU+UEQvQVsED0nIP5da7ffoWjxZsc1S+mwbt00yWOM2+SpaZUmgnlncK3GqFgUK6yvnaK1eHDXFj7JJYzCIMUC+weLiopd2Ta2by+E78i1TJGfdcY7PuD9vS8a+nF7204Fj868bv3vJvGDaVZrEl3ukZctDXKdeZYaHn17/49vvNrv8natOaJfMBwUaHqGZkVauVpdaTRQpDU+syEJH46BqDBjkuuT6fMx2NeaWrKJ57gT/47/w6cOQ+ms+AURK1Ad+UJwRMDVCpHq87x2ULbphBek6XawddqeHkv8O3LV/j+W9e5sTuhbgWjc5TN8VrTOkdTV/i6QofAKNNsDDLWM8VDGyM+/YEn+cijY1aAPLRsKCGjgbZGNxpsllp0SqRF4bt2ZQKEFnILbbuPqAMyPee7r32Z7738DTZOW6LeSa7UdxA/UChJAuhahXcaISOzA3J9ivdf+jlWikewrBIpCT5Hq1T+EIkg8xPip7ovE0XXQ7QXv56edzt9nd/b0U1VB0kVCCfPgSnAh9LQthGjJZ3SY0R8SGpYNbivfI0bX/sm/spNLmYFZ4wlHh2iXMN4PKTyTephrYQogsRk/emYZvSVhWE+m+ADbJ06jXORmzduMSiGbFx8GAYlWE3QQiOBoLjbBiwadKUwXUuwgwb2BCYFvOjgi1fgb/3u9/nt127xh1cPeWnfs+tKjvQaR9k6R3bMUT5img+pihWawQp1OWJhMg59YK+u8ZnlN77023z7xVc59fAjbA4LdvDcqWaU+RpRAkYFoqppqAkCiiK9Rp+MRKtB6TlebrO3eIXLN77LrL7FaEUR4rxzdcZOhLolaXnvERFEVLcEESHGQPDgW8hsTpmXRATnYiqJEHA+oHQSwrsf6okxSd1n3NPT8+6lF7+344T4qeX5ttt+fBcNzgWsVsnqq5ukiFFgZ4/n/vavYK5cZ73xnNaGfFERZlMktJhM0+C7IQ4nxU/SIhJ8RVNVZCYjNIHVYoyvPNfeus7D585hLp6DXIMRKhVwMaBEExG0MmnEnodFhFkJ+xa+W8Hf/cYuf+t3v8n3Dhw32py53YTVC6jVC8Ryi6hGBK8JdU1EEUxOGIwJwxXUYIVYDKEoeePGLTbOnWfm4Qtf/iov3tnlzKVLjLMBU4SxtlgltDKjDXNEFEYGKC+4BViVPLRaH3DUvMzzr/wzpvUVNk6VRFkQYnNX9CTerYXsRDDGmDSqK2YXEZRKH4FWmv29PfI8Y7w6xpARl2OQOoFTy+ydzopMqxvRdN9n3dPT8+7j/jS4nrfjPktg6RFTMSbhi0DdJsWsHfHyW9RXrjKazFhzHjWdIPWCUZFRDnKquiJKJHaW2fL0u7wuRKq6YrQyZDQo2L9+jXJa8fTKJtmdfS5//Vuwvw+uTi48wIeIIxJQaUsOPsBUw47Al67B3/jNZ/kH336WW7qkOPc4Zu08yJg4E8LEQ6NAlzBag9V1KMr0yhpHXLTUC8e8Fg4aw/jck1xfZNz0I9rNS/zea0f8lf/b3+O//PZtJl0V4AKbphJqIXaJK9GDb8CoVITfssft/Ze5cutZvOwyGEcaN+1cnUuT+6TpncRPa0FUIISGEOtuVYRY4eOEqr3F4fRNjqZXiczITETpiAgYTZeym903GLenp+fHhf4v/h1ZWhnvQNeQBQDvCU2TxO9owuUXXqR0LcPgyEMDbUUMDTpX6NwQdMQvyyVIblWVcmTQ3Tk/GoUqLG1oGeYZdlExXjQ8Wo6588JLcO0qTA4RAgaD6SxHQdGQzuvzVbga4Asv3eC/+dI/5Xee/zZTAtsXH2J2NIVJxaCJrIlhXYRxW2Gme7B3g6I6wswPYXoA0wmmrimjYqhLxvk6Wq3ShFX261V23RbV6D0c5k/yxe/P+I9/4xbP78FtDwuKbqyvJ1KjVJqVi4DoGbcOXuL6zvfJhwuysmW+OMK5zt35A5xwf9LFAcWl2j/VItoR4gIXjhiuOOb1dXb2X2fhd4Cm6xZzclfSlUP0Fl9Pz48bvfj9UN5GALuTo/eg5MRgVd9lWk6nXL98GTefgq/QKoCOVLFh0iyY+RpnZDntJ1l9S+GLXewQiEbYX0y4M9nn9LnT2BjYv3KVLWOZX7/J5M5tqskE6aYC5miMVwSSq/NqC5cjfO3adf7h177Gd6/fYHD+IQanznD72i1yDIWL5IsaO52QLY4Y+BlrpmYzDwzbOaO2ZuRaRt4zcB5TNbhpxfxwzt7uDNSI4foFstWLuOIME9nkrSPLdy/P+e5b8OY+HFFQk9Hi8Z345SW4ANpO2Tl8nYPZFbZODxmOM44OJxid3T3Qx0knJz4HAR8cIaben0pFjBW0DijtEd0wHEPj9tg/vMa82jtObllOirjLsr7vPvO+p6fnXU0vfu+AEFPhuiRX2XFYSCUvWYwRm+k0W0cp1OpqEr+2ZTadoDPBK0+tPL5Q+NJQZ1AZwRudEl0QJAoqpNiiDrFLromINVBYso0VdudHiIazZ7aRqmZsDa9873sUm5vgHDhHFi1WFLNJixfYz+BXv3eVX/mDb/H6zFOcfpiYrdLWmsyOGKucovVkTcVYO0a2gXaXurqJlgnaNxRRGCpDKYLxEe0DmQiFtpRZgdEZbRuZLVoar5BsSMxGzOKA/98XXuJLz025A+yhUQyo45yoPFE8Jj9i3l7lcHYFWzh8bJjNFwwHa2gpktYdZ3ku430dEbQ2qYWZQAgO5xp8aEA8SnkW9QFZEbh56018WOBIQdC2bVHL3/rj7zbdN5Genp4fG3rxe1tOuNdOjsY5YRyYLJ14Y/DgXVfkXTGbzZhOJ3iJqY5PRxoNtYZaSze4NgkfpASXZPEtd59uCSHggFpFKh2pYov3DVoiZWYJ3oFriXVLprPUFLOGrLTMgd9+fcE3bi54qyo4YI2ZX6FuB7RNRnQZe7sThqMVbGE5WhzidIsMIo2aU+uWRmtqlVGrjEZZWqVxSuEFvIoECUTxScyUI6o2LWlplXCnzfnutRm/9c2rKNa45edkUtD4I0RPCRzgOKCNU3xsCJAG10ZDSB0G7itvoLvsPoS4dFsu77u8XyqEVyq5RLWB2XxZ8u/JMnvveKRjzTux356ennc9vfi9HV2CoYqda7Pbdnxzlw0aABf8XcvEJ8uicS1OJaFrtFBrodaKVimcUgRJJqSKKrUJiyAxWZopgSWm2kIfaSVSqchCPIvY4sSjrabxLThHaH3qcZa0kGBSnO+ffucK37riuLVYp4pncH6L0K6CHxPVEI+lspZZYZiUmqM8sis1tVRMMsVBPmQ/X+UgH3OYDZlkJVObMbeK2gRa0+B1RVQzRE1RcoSWA4zaJ+gFVTnk21f2+PL3rnIlwqS2OCxRe7xMCUxwcUbjG1ofiTHV7BGE4PyJ6YcnszyXSrX8FnJy3YukanastRweHqYvFCQxdMuWbPc8rFe9np4fJ3rxexuE1Nqr86p1aphuu0f4CASJKYMjt5AZjDXYLOucpknoTi5QqawhKHQQdEwuT4gEiXiVskALDLYVvI94LYTc4KxQR8fC1XgVQavjziX4VKc9B776yoTv35hwa57j9CY620bJSiriVjlic8rtLe5UR8yNJ9scMvELWl8jg5IQIigLOk8t0bRNfcGU6kJkkSCeqFqQFqROjbWlBqlwuiWuj7jpIzvO8mu/8yyjwTnmaDQ5rW8IOHz0OKdw3hLCckpDmuBwt53Z/aK0FLuTcbr7VxqaG4PCmIz5fJGOb/dFxYdwQvhOZpX29PT8uNCL3zugUjl25/ZM66TwNcHhYuhyJdIwV7RC55ZyOOhq9pLIqaBRQaO7ZbzGdB1ddEiF9FHAqUhjkqCOo2XQCuIiYgxS5rhMs8AzdQ3FygiKDGUzkKR9roSXFvDF559nqnJCNsYWa1hdoIJ0RfieqB0MIbQHxKEQTMDt7/Do6TN87r0fpJjW4DuXbwwnlr+7jo/J3RW6usVGR45sgzq9ygGWL3zl+TQAqbYESrQeELBAjsgI4ghikYRcKpRedKJ60u15n8DFLvh6TzC2W1ERg0HIUJKhxHZdS5MlKdKJn8T0HF2/0BOK2NPT8y6nF79/HvdMBI+EGPF0Yrc8By+LsINHZ4a1tbXUpNongbsrdArTbbM+NbLWMYls6GJpjU6uT+MUw0Zho0aUxmuhURFnBHLD9sXzYC1iLa4Fbzqr7/U3eO7GVUKRoTKD0pEYGsRXaCqULPBxwmJxC4qGLG9ppncoVeBPfPgxfvkDIx5qhVFdgVuuGnEN4luU96gQ0+uOGqIhxAxHgaOkpaRVGU11gN4acuNoyt4cvvL1WzQuZ+E0mhFCidZjrFnHmlWIOSEERC3Qtkri9wNWWZeYEpcC2H0Ay23HS+OdQkjjjVZW1hA00s34M1Y6q7JzWbMspO/p6flxoRe/fxE6AQwxWX8RUJ3VcZwk6FpQkK2tcfHiQ8d9OjOnyHxqWn13SSeIKdNTonSWH7Sd25M6kLWaUixKFIu2ZeZaJM8Yb67z0BOPp/O/0bQCUsCdGr784veZ2IizDUEm+HBAcHtoOaLMFuTZDK0OQPaRssFNbjCsD/ljTzzGL5yHjwl8drzO2dkhpxZ7bC0O2ayOWK+mrNYLhk1L0QRypzDeQijxcYSPq3jWCWyCGkEWmMUjpsGzeuoiX/vGi+ztg/dCoASGGL1Knp3C6DWINk1olznGVndbmx2vkzp4nxV4v+WHxrUgZASvWF/bAgSFwvkGreVEJukJAVw+x4mn7OnpeXfSi987sjyx/iAnT7l04/IiQJ7D5gZbDz/EwgqVSU2wIWCjJ/MOG1sER1AtjXbUJlCb2E0AEnTQqKBS3aBEBkDmPG3TMHOOthyQb51GzlyEFlSIKA2NgZsLeOnKAWZ0hjpGXKjwfpoExTRkJehMgVEUoxGFFpo7NzhnPD///kd5HMjuwEfODNlqbrDV3GSrucN2tcfZxR4X5js8NLvFhfkttusdVtoJNrap0lAKoExxxaBhWMDBLtnqGvbUOV7en/PinRkhh8miIcMypGTMiEEYYlyOeI0oEJOsYKfTcXFKcCI4pXBK40Tj71kKL9ItCCi8zyAMCD5jPNroGmor2ra9/+O8l5Oa2tPT866lF7+3RVK468S3/ygp89OQBhVYIENR6jyl6GddKzCg+IkPY99zEX3pNDvMuLF7FSstKzmInyKmosorDvIFe2XNbCT43KKCZtBYBhSEUlHpmhWJPDwcURrLUetwm6e59PHPgl4BZ0E0wXkOgN999iomf4z5dJ0QR6AN1go2CwTVMm0bpk7j/IgY11ncqTmfD3jf5ogPX4Ah8NBZ+OynzvLY1hFr7Wucam/wgXHgFy6s8L/40CP8Rz/3Af6TX/oY//Gf/wgfWp2jFzcpBpJSVts2Df+bz2DvCFE5IRvw8mzOjZUxv/bKC+wDUhgkBrLK83i5xaYbIhNFoVbxLmNaew7bmqPYMtOBhREqo6m0odEZzhYsMDTK4ozFaU2rhVZHvAXJc2IY4uoBD114D0pK0icnGGOJMR4P9r3b3iy5RHt6en486BtbvyNvbwIcW33STXnv/o8iKRlGKZR4zq4N+OrXvky1qHn/0++FecXejRsM8gxthEZ56uho8GmPLqDaSNaCUUK+PuLOdJ95PUOVBTNj2bc5g/e8j/Of/DRsbYIWyDQLbbijhC+9vMfzdwJVvkGjLFEClhqFI4rQKktQQ5AMX3vUfMK2n/Kpx87wqUe2WUstQfG65v0ffS8feN8lfuqDH+JnPvAon3x0m488tMIHzudcWNc4BWsXz3GgB7xyYycNOMwHZESy6MhigxZodYZXiiiOURb5zDPnWZNIPrmDKgxlbjnYucnOdAddCmYAC1cxHI7JlEFHhSZNu9BRQYgE5xkMBiilCMEToifEQCSk660hLkaslhfY3nqYtfE5NGMiNiXBKHv3c5Xuv9hdyjLFtxfCnp53M73l90fIcsIAysD7PsAz/+ovU50+z9feusksG3Pq4pNILGAa2darXFAjzqsB2ypnPcsYFgY7MqhxxvXDA8rTZ8i2t3lpd4eXD/cYP32JRz7zCXjqYRhnzAeauVZMtHAAXJsdcRRapMgJclK8FXE5p32ZstrUjPOcXOCJhy8y6uwfDeRKcZqMS2vrvHfL8PgKnFmBcQkh1dIzzOCRDVgbF3C0A7FCKUdbzTEqCZaKCgmC1RmiDEezObs1tGjmgVRCMVhl5cxD2PEW09Ywaw25WaGYOEYHFaODBeOjitWqZa1tWfWOkW/g6ABmRxhXkwsMsoxBVpLbgswUWDNgbfUUG+tnyBh2TeA0WnWNRe+nF7yenh8revH7I2I5T05EQBtQBWf/+J/iyc/9ca5Fy8vTmkkxwpVrBDNgcVjTHFSEw4pwNKeZzpjNJxwuDrkzP+QgBKbasofi0FiGjz7C45/6BOMPPgPDgpk2TLRmH88CmAF3JodUzqGsPa4zjOjuxH+ih2UELcJqkbE+yHn03AoWiDgUkSxGIg3GVxQBrIe4iMSQOmQeAneAr1yueOH7z4I0lAONbufEuiKGiKDRYlJNozIoZZjOKw6mjhbI1jbSdHks2xee5Nyjz9DGEfuHYGWVOBPyRjOKOUMsgyDkPpB5RxEDfj7FeEepDQOTk0WL8hobciwDTm2cZ2vzPCOzAWT4qBBs+iLwAxrXRW2Pi+l7enre7fTi9z+Q+INnUOhEMKoMynXaheKxn/2T/NK/95eZbG3z+9euc9NmHGYlYbCKLlcoizHDcsSwHFKUJXqQI6MB9tQ2L9za4fJkzlOf+ik+8xf+TdY/+jFinjNFMUdoyJgSaLvS8Pls0c0DXIqcIsYkfnE5yy6k2sUsBvLoOb+xxinb5Um2NRrPUBk2yDinC04rz7pyrNiW3EIF7ABf/N4tfvW3f4drN65warUg8zOojsiLjKb1xCholQGa4EGUpfGRSdWSihgKZkEx9wZYZ2v7Eqe2nyQzZ1jMC5ReIStWKYfrFOUYUQbnPcF7iIGV4ZDxYESpC2IFi4OGat8R5xkFqzx07j2srZxDGODQXd1fEj/XhhPW38n0zpOrp6fn3Uwvfn+EnLT+YgBbjmFtldEnP81n/uK/yenPfpq3BjmvG+GqUdwU4abz3KlbduqGAx+YIBwqzbWmZXzpKT7687/IhZ/9eXjfB2D9FNEOjpPzlw48RaoMkMZRKIO0HlnWwrFM7NDHNXEqRHTbEGcTHj+7zQAw0VEoMBEyICeS02DcFGmO0NQ44EaAb1+p+Y0//A5v7B4yWltjPMypp/uo0DIarxBE07iIshkRhXMBJQalNC5EHDAnYItVlF5ljsGwzqVHPsrj5z+M8hvM/Ih9V7DXGg6cYRosjSrwuiTqAcoMCd5SzRXVRAiLgoGc4uzqEzxy+hm2R4+Qs5bmCYYMIQlxDPwQ4evp6flxoU94+R/BcYzv/m0RZNqlhNbgqznFex7jwlOPM9Ues73OzWrGkQQOgucowkwpKm0IoxFhbYPyiaf42M//ccrPfw42t9IMoGyI2CydqgMUCmLlMMYyqeDLX3+NhazSmgG1QJSIjg4BoiiiGAIWGwIDP2ew2OXPfvaDPD4ShrGlVBFcQLSBGJG2QYU6TbbICo7E8rVbLb/+7Ct84+od4uom+WBA3Ti8E5Qe0MqQoCxtO2cwHjJvA7GtGVgY+Dk/9dRFHloxZE3DSOcIGc5HtMpYlTHjPMNoy1QrpsZw0MCRg0bnBDvEqZw2GOpG0zSW6AaU5hRbq49wcfs9XNx+mlPjx1FsECgIIcOoIVqVeJeyeFOdHydq/WIniMdfJe7/WHt6et5lSAih/8r7P5C3Ez/o6qYbcLcrzGoBI/CuQdEiRuDwkHD5CmHvAL9/iKrbFJUrcthYg41NOH8xjRxXPvXVxEC0RMlpVHqKvISj6YK2KHmtgv/d/+ufcFmfZ7fY4MhqvArkoULFQBBNwOLJyUPLZjhidf91/ua//4tcUrBGhY6edu6w5SiJgKtAVSDQ6AGvtDn/9beu8De+8DXi2YdQoxGz/VuI85zeusjhTDOZZORbZ6j3rrBx7hR70wXMDjk91mxWN/jLv/AT/NSFnFPeUboWbQqMFiKeGA6w8QB0xVVu8dbhW9y48Rbz2QGZCVgdcdWMZr5gpRxhY84wW2Nr9SynNx5ifbyNUsM0yVdG1E5QUmL1EKJmWeJnLamBuDjgZJdr3VnJ7/C59vT0vGvoxe8BIL5LiaTTLBOptScSUASy6JG6hTakc+9ysm0MaTySgqNBTj4akMc2zQx0Giigm56U5dDUgWygOFRwx8L/6j/7NS7nF7guI+pyQJBIFmoUEY/pJqpbSlcznt/iU2cz/tqfeT/ng2dd1alGL+YELyhjmR/uMxgbUMKeGvHdOfyl//RXaC6+j10zpBEo4hztPToY2jBgIVtJOMMBeWmpa09pBNl5iyeLiv/NL32anzmjGbaeEQKiCB5a5zCha21WtMxpWNDSMGVWHzCb7tLUMyS2GBFWBisM8zHjcoOSVSS1A0iTIWJqwp0SfTKI5q5nc6lr4jvxW85PWorfcqp7/2fR0/Nupo/5PQgkgvFgHGiHV45ISM2nUTRiCfkAyiEUA6LNaI2lLYf4rW0W29tczw3XiRyIsCCkfqLd+Xk5jDWzCkwyEB2wsjVi6iaoUhG7vpXLdmxLt14a1RSxwbGSGQrARpeEN6QO26IMofXk5QBUxjRaZsAXv/0yeuMs+62ikRKkpGJAvZzWLrrrmRlAC7VryMocXEOpYKwVp0pNBhQRaF3qUqMhzw26GEMcwpFGLQaUYYNtHubR/H08s/lJPnLuc3z4/M/w/nOf5fza+1kvL2E4g4trNG5E24xx7RjnhsT0zu4VvuPPh/tcnvffePKyp6fn3Ugvfg+AqAM+b/B5jTMNSIvFUxApI2RBERqIkhPLArcypF4bcjTK2TGwC2g7xJNRk9PqHJdnRAutgkaBi8kQRHu8Sobm+SfOMWeOKiFKe9y4OZ3el5PjQRNRwbE+KiiAXAHBgfdplK6S1AOzyGhUzh45t4Hf/MNnMWunqJxKgwNjDrHEMaSWHIfu3Ih1ysYJLblRmNBShJZzK0POjCCPSbDR0LaO2QwWTXfwTA7FBoXaZlBvomcj9HSAng3R1QhdjZFqTM5ZMrbJ2EbJJsqsQzYgGEvQppsPqN9e14id8J1cyzv2otfT8+NAL34PAE+kIrIg4AgIYEIyBFWrEKcwKo0iWkadwn37qJ2n9TWumRObFu1TLxltwBbQhJASOUm9QjXw1KWHyZQnujkKhyzzQqVrlr00emJER8+p9VUywEjXmixGPIqoQOtIJFABMw0v7sJb+wuaqFNxuic1Lo15UuGYdQ3Aa4gLrApoBWExY0BEL+Y8cfY0qxpKgfnuTWjn2LHBrkIYwL7APHpCvDs/kZh1jbLXwGxCtoXKT0EY4H1JGzLA3NU4dfJYnhCykwad+M7deV9T6+Wdeo9nT8+7nl78HgABoUHRdAXmKqoUs2t1Gt2Qul0jEZpFoJl5sho2A5x2cKGFZ9A8HXLOxxGrYYBxKrkIXef9tALKE0KFwTEELm3mnB8W+P1dTNdA+96ZeHQ2YMBqYWt9tcttTFPoQeFE4QGdC/PmiIo0Kunbr16n3DjNZDJjaE2yFENMMTay1I2aiGaGZYqlJReoD/dZ0cJYIu+9eI7Mg8SWwVoJA0UtkQnJ2j00cJhlHOQZN6XltgrsFjAZwNzCwsAEYbdqmYmlQlOHSO0DLkBIU6WI4WQc736WVt9S+O4/Pj09PT8O9OL3QJAu2cKkptfegNdp2kHsDnl3zh0WitVCpxjYBLjWwCszeHEBL0zglV14ax+uH8JOdexRzK1A9CjXkNMyBM4CHz5znsF8QRaS5ScE0oRAuv/Tq7Nasbmuu9cbU9G+1seyAA2tm+FIhe3Pv3mV8dZp2rqmELDepckToUsqEQMSyaWmYIH2Ndq1qLom956nLpznibOgHakk30ZQnp1wxE1q7gA3CLwUd/iDyet8y9/mD+qrfHH/VX7r1mv83v41nm8n3FFCWxZUAk4LYjRRR0JYEPwcw4LSJoH/AYS3Eb6Tll+vgT09Py702Z4PACew6L5ZDAKotvNv0m3UMGsr8iLHiMBhBW/ewr92jXD5Dhw0vPzCmyilyEeQbQ6R7XXUudOMnnyC8SNnYRghc1DtwWDAIgw4NBn/7FX4f/zW13g5sxxmGToKMRq8lBAsOihW3JSH/B3+T//zT/B+A9vMCJMj1GCNqZSIgiF3mNYL9vOHeBH4X/8/f4tFucWkCrSqpJaShRrh9LgrxVigOWTsb5HR4hiymDrGknFaAn/xMx/gX3sGtqrAij7kaP8qblQyGWyzQ8kbTHjh8qu88tKzvHH7La62U2beEaqWPGi2h+s8fvoC7zn3CA+tbfG+i4+wZQs2yRkQsTQoV6MFUMsyfXuvmMmyvKFN7tnjTE/dtfTOUiyTpVD2fxo9Pe9W+iL3B0HnbdNI127sBJ2HLTMG1Qrh2i5Xv/pdXv6N3+W1L3yFw2++RP3aDVbaDA7mNDv77F27ybU3rnDj8jUObu8xvbXDqTPn0sylugFbohrQ1rKyCi+9sc+N+RynDIjCi6FVGUE0IoEiLNiQGX/iJx5iHRhET3AOlQ+oSdZfLhNaI0wZcxv4ja+8ymGlGaxuczBtwQzxKicom8YZSY1SC6zMEBVpQ0Z1NOfh8Zji6A5/6ecf4byBjAYfp7BSsrAlb1DzxVee5e988Tf5ja9+iZduvc6uadgbKmZDQzsuqArNvqu5trfDK1fe5LmXX0CXOTNfo1cyMvLkvhWPrlqkCSkwKrqL8Z2M+d0f41NdrxzT1fh1n9bbeUx7enreNfTi9wAQIkbg6GgfUxQELdy5c4fRaAi7VepCfQj1H3yPb/3qb/PG730HfWPK2TjkTBhSthqrc4zJyLOCQTZk1Y5YcRl6Z8b89etc/cq3uDDcgHOPpligLVC54Fo4/9BpvvGdl5kuAgsvuHJMNAW0NSFWjArPubzhs++/wBZQiAGlEGWZt2CNUDPBUzCn5PIU/vC568z8mEptMIsrSLlJ3UYIDdgWmBCrXWrdokerTKdwfmOb5vXv87/9Cz/HhzZhEMFox65ecMiIr01u8nd+9/f5B7//+1ydHjC+uEXcyLk1OyAWIzwWj8JpC1mGZBliLN4ovvnyC7x1uEu7UpKtbOBQSFCshAGELFWyS/o07v90oJuYezyZsSuJoB9p1NPz40Ivfg8AAUQCTV3R6IhSGePxkHhQoUwBR5H93/w9bj3/KvuvX0f2F6x4w3rMGDWC8WkyRBQQBBUV1ityL5QOCgf7t3ZYTGbUu/tYa7HnN8BDWaSw4p3DgFcFh1XDLEAcDKHMwc1pdq9xaTXjZ953gQ1ggICPGK1pvUdrhcfTUFJhuLGAL3/nDaa+wOVrVFiatkum0S0YRzE0ZKOCNgSa3SPGK1uwc5t//SNP8+lHRjw+BBPn7McDain43Z3X+I3vPMs3Xr9MVRQwLrlTHXEQF5SnNmlbSdaYUqCFIHdLNaISzKDktRvXuLq/gxkXbK6ts6qGrDiDqgMUS/G7n6W11/mflxMv7jEPe3p63u30CS8PgGVayWg0TpUGREyE5miewkwvvsZzX/0GV19+neZoRmksg7zAWou2BukST+4WqN9FuiqAUVFy+ZXX+Obvf4Vbr12GCtTCYwOMFPzip5/g8fUh5eKIlXbBKDQwO4TZhHVrWLE2lQmSSh9MlyqZR08a9bpCpEgFAR4CnsAc5BCTTSDsYEeOYqTAV1SHU2KlyFlHqTH5ZJfHRpHPf/QMZ1eSYxEVUKrgatjnn371q3z1+9/nrYNDKpPhbMnCQQyKrBwTj92PnSDFVK4RJZWSqNwya2teuvw6f/Dtb/Dc6y8zwxFLDbnpdaynp+eH0ovfA6Kpa5TSjLIB88kkWWXlCrx2k2//sy8hk4rCCWvZgJWsJFMG7wKt8/gYCN3MWZY9mDvho7vcXt/EuohMKvbfvMbe159LMa4FDDw8uQKffuoiP/nwGbbCArl9ncHskNOZ4UxZsmKS+KkA4gISA3RjjiyQd4ORlksUeGnxugZbpyfRFcQ5JjRkTYs5WlBOHRtN4CHd8j/9zAd5bBU2M4i0NDQ4LL/6e1/i66++wizPyE5tcxRht2pQK+swXudwMkdEIXTq373vEFO+ahDYnRyydf4MG+fP8OqNK/zON7/KK7evsgAYJqu5p6en553oxe8BEbqTrwCjrICjGrTh9d/9Cje//yrrMWNdcsaSYb3QLmqqRUXdtngRQjd0He4tQxNSfkl1NKUMwnY25PC1q3zlV/9pmjR7VLNiIK/hjz0Of+FnnuaDW0NWJnc4HRpOq0A82KMMHtPtK3X6incL5Xwgb6EM3XgjDdpovIbGBCoTYKBo5/tUR7uUOLaNsNnUbEwnXHQVf+FT7+cXLuWcMzACFrN9PPC1W9/jn3z9a9yRSNjcwJ4+RW1t6kOTF2lVLQqFfhvzzRNxRKZNBWVGvrHCTAW+d/UNvvLis1yuD1kA/gcf2tPT03NML34PiDwrODg8pG5qctvVwb15k1e/8RwbUjDyioET8jai24j4iIhg85xiOMDLvQJ6MiIlQKxbVm3J2WIFtT/jxnMvwytXoHLgYOxhDDy1AX/6Ex/g8+97nJXFAbO3XkPPjlBtk/YnELQmREBJUtnooWnJGyiBUQ5FkYMxNKKSKzIEMIrCCnk1wd94k+LOW3x8q+Qv/fRH+eWnh5QOVgGLQ1nBYfhvv/gFZkVGWF/lQEUOgoNhDoOc0FZQLSCzqLh0fN5VsaXL00lksLbC7vSI3cWUbGMFV1qev/I6z119PYnf8aN6enp6fpBe/B4gmc0QH5L/sg68+pVvEA/mbNkhZRUpm0juIAtgURilEa2ISo4HPRCTdaZicndG0raVwZBVW1DWgXVvOJONeP4Lv3vcWtOqBn9wyLCBTzyq+OWfeorPPP0Ij64P2CoNvl7gYuoVWhtYaA2iqEWSKegOMW56LH5lkWNMjg8WnIFWsCZnXSvW/ZxHsprPPjziz370An/uw5YNIJsfkhGoqhkmG/Dq0U1e291FbW1RlTltcLRuAbozMWMDbgExjXiSY4s3CWDs4n5ewA5LYmipo0ONS1xpuDbd543920y6JuI9PT0970Qvfg8EYVFVDAcjyryEuYODKa8+9wIb2RBbefSiRVce3QTEBfCBpmmYzRccTidJ/E7E+pbxvuWAdo3gZxXzm7uMWuHx9dM8/5Wvp7jfbEI8usP6quV0AaaGS5vwb//iU/y5X/g8q7ng2opGUveWGTAxGYfKMtUZQZvUR023BCATKI2miJGB80jTkjlHtr+HunONC7bllz/5DP/u/+QzfO7pEruI1EdHnFlZgRiYzud4Mr72/RcJ4xVu1xVeYuqobQK0U/BzknEZYD5BEVCS+pmeJHbHYDKfQZEho5JZaNmZHLBbTdmpp1yvdt+uv0tPT0/PMb34PSDKYpAyFF0gLGravUOMgywIY1MwEEseNTYqMjFkJiPPC2yWYbLsONPz2Orr9rtMhGmqmlFWsFWMGLSgZw3r2YC97z4HgxJZG4LUGGpO5bCe+pfwoUs5//6/98t84tOf4PUbNfOuq9rEKG4Dd1TOPpoda1mUY2751Avl0bPbtLeu8VgmbB/tsLFzjU9tDflf/vHP8Ff+ws/ypz79GOdGadDEShkZDwpa52nbwMrGaa5XE25NF9yeVajRKKV/+gW4KVCh3QwWB5h2SpkJEnyy9GIXi4wRRFBKIUqhMwuZJQZPHT0rZ7dxVvHSW2/QqEhLeryI3DN0+P6fe3p6fjzpxe8B4b0n+kj0kdB6mkVNM1/g6xYVQAdBx5RtqaKkzMZuLccPIcniW7o8WYpflwyjQoR5jV60lFGhXGA2m0FbQ3QQGoQai2NASjwZdZOQ3ntpjT98/jn+81/7fX7rtR3ejKm59G0DV4GjYpPfu7PHXkog5b2XzvLIyHJ6scPPPbzOX/2lP8a//Zn38nOPD3nPGNYFTHQ4ajwRYzKMMUSVpRG+dsDOtKIRTeW7mX+45OqMNTY22NhggkNFD8edSO9yUrKM6WoAvYO2YdE2qNxy+2CPyXz2A4/t6enpOUkvfg+I6D0CGFEQAk1dU1c1wXmULA/7XcGDZZDvxCn+RLxv+YjQxbwQSTHCxqPbwFBn4AOzatElrUTaGAnBo3EUwLBbA5Kgfev7L/LrX/4av/LFL/PX//7v89d/81n+1u+8wn/1jev8+iH81k3H92r4nef32Ll9xH/wP/sT/JV//VP8h7/0FH/2Evz8WfhgmRpqD4lEUSzImaBpu6STthvZpHTB/uEMrS0SQkqqiS2EBhMabHToGFBJ9n+QE9mu0sX/EEkWYdvSOkc5GHB4dISLvdOzp6fnh9OL3wNAAIUgSoFWaKUREWLXnUQZTRAhsOxcsjy3nxTD5X6S+JGGrOMlTUQKkqyfwlgKZbAqFQZ4BZQFjTI4MYDCxEgeHCUpezMnGUzD9U1GZx/mZqP44nOv84XnL/Oll2/yD775Gv/Bf/7f8ne/8Tr/6a/8AX/z7/06/8X/+7/ioVV4bB22gdWmYVRNyOsDcjchp0WjcJ2wVl2eT+NiEj8ghEhhM6xIKqkIHgkeEyIS0yQMj8WJIYj6AettGftUEVzdpPIMpaGLDRZ5jtGa8XB03yN7enp67qUXvwdBJJWIdwaIaIPNckyeE7WmIeK7sX5LMTuR1Hi3mP2+mF/sxM0pqKMnCKgsx2qNa1uiCGZYQm4I2RDUABGbusw4R94G8pDCbZsGbDHC5yPCeBtz5nFk+wmmg3NccyOa9Sc4LM7y2mFk9aH3sHr+EV7bgXmbXkumHUgDoYbQYmLAdr9Q0ZGK5oEY2mM53xyP0d6hmwblU5KPjkn4AoZWCio1pJYBgRNNqTtOHo/QtGgEneWgDOIC7aJmY2WVQVacfFhPT0/PD9CL3wNCIqRaggjaUA4GlKMhYg2LtsGJpFo+RYrxScpwWZ605YSls9x2bPkJuBiomjrFvSJMZzNskbO6vYkXiGREyk78JFlJzpGH1MrZAIuq5c7hghkFcXyavTDgdlNgNx8l37jIpLVUasjtucesn+Yf/s4fstPCFGh1AaZrI9bF3TLvWAHWDQy1whDJtWABoueJhy+imhqqBZkP6BDRQQCNJ6OREq9GRFXiRb+95dcJoBGFhIiVVKJhRXG0t8+FM+eQ+A6u056enp6OXvweFEZ3efkxFW2vrTJeW0XnGZV3BEXq5LIUvqWZs0x+WVp/byOAQcDkGXXbQIyEEKibhtWNdbbPn6Pyy3GtkobNhtS4mhixIbk9DXD69FlWN07TSk5NSRMH+FCiyjXaOhDbwHC0xv685eYi8sLOnJs6JcbcQHEgBY3K0+t2Du0qCucYBk9Og6Yl1zH1Cm1rPviep8hCSM8fAjqAiooYDU4KnAxAjUANcKLvbVHWHYPlsciNJbRpoK5GGJUD2qrmPZeeRPfZnD09Pf8cevF7kBgBLUltVoYUa0PiwNDqgJeAELAhkvmI6WYKt1poVJfticIpodWC62KDJkDmU8s0FwLOBKYFTAvIt1dQ2xuID5iYmlY7uu7VJqZiciKjbtOZlVWs0dy5c4fKOYZbp0Bypm/dQWpPnFWIsjx06WkmUXG7dXzpuZvsdeURTllMlkNRgDXQOpgviNM5hIBqG0yMGCI2ep4Yn2OkhZHRmJhyWp2CVkO79GfGrpK/m+KQaj4UdKkwTnXHx2qCc9CmTNdTxZChF95z4WFGZP0vdk9Pzw+lP0c8CJJusbt3h4BLSrOiePyjT3O7PSCONXWoUK5h7AIbGAZBaJqGPRqmmaBtjtEZbZFRlxmusChtGDvFWqto9w7ZPL3F/jDyIgfMLgy48PH3ga8YAEUDpQOnhImBRQ4xT+UFpoHVBbx36xQm1EgBdsUy27+FaSrWizLVDa5uUVctN3d20SsDjnzFC2+9yO3uF0eYo6hSTqdSoHOiGSPFGJyFOqaO2K4mT1E9/vyf/tMc3brN7Ogw1eKNM8KKTXOamEI4IpMGFSPBq7TroLEqQ2U5lVUsTGAaavS4ZG0wYjUoFm9e5+c++FFOm4ItSjJUl2TU1Qp23P9zT0/Pjye9+D0AlqfWze1TYBT1fAoaxs88wWOf+ABvzncIK5bGeEL0GCI6RqJ3KGtYWVulns6pZwumiwVH9YJZU9G4FvEB7QNlWXL7aI/XJ3doTg3ZeO+jDC9sQWnBqmTyde7PGqiINEQggIexwOmRRXxDloELNcSWQiKqbdA6ElTAK8EpjTMFtcq5vjPlq996qZM8TRuli206okBrU3lD6hOaltKGXBQjNE9unePzH/xJnjp1gbwBt3tIbB06M0lEF0e09QxtNLFruRZ8wDtP2zpilyWKMcTWM7lxm8mVm5y2A37yiae5VJ7D4Ptf7J6enh9Kf454AEgkuQAjRBGcVqma/fSIJz77Mexjp7mdO46GitthzpX929Su4ezmFisYbr70Gpv5gNWsYJzllMZgtUZrRTSCy4Q4zNippxzRsvXoBR555mn06a2uL6c7DhK+bfRLwFjY2ATBk2eG2FQQHWI1DS2NaWhsS7AQjAW7ii7OsLOf8dWvX+faPkzaEi9rRLtKaywuF7z11JmjMpFZoQhGEUVjomGA4qnsLL/84Z/m6LuXueCGnMk24fYEvzdj/fQFVi8+QnQOyhw9yFCFRWcGYzSZ1lilMcqyVY7IFi0czrkw3uCTz3yYD196LwVCWy/6X+yenp4fSj/J/QEgQKgaRBta77CDIvXRnM0ptk6xMih59rvPYoxlUA7I8xznPLPZDImRjdEKuvEQUmzQEfAq0qpAI4GFePaaKUfaM7y4zcMffYaVD74HtteIGbQxoiWVCjgT8aTicYtgggIMTsHCwq89/yYH2rJwAjGjMEOatqJVM0ypcaJALCofo6Qg1ODmjpVshZWi4NQYBEVQCicNEY8nEDA0CgwWQfCNRyJk2jAYjFld3WB3d587d3ZZ29ymGK6we+UG9d4h9tRp2rYmOkf0DgkB5QKqdejWY1tPVjva2/tcHKzxix/7NL/4sU/zkFqnJJB3z/O2wt/T09PTW34PiAhKNDSp84gDpspzO1bEVWHrJ5/hU//GL1GdGfG9wxsc2ECxvYbkhhgDa+MVQgxEiUQFkmlCbvClpRkaFkPDlfqI8uEzPP6JD7P5/qdgew0KDbnFltnS49hdCEJKGllubLtQ5PbGCia24BsQT9AR0WAlYAhokwrlq1pY2DWalYscluf4x99+i6+8UXHFp9KHBkPtWnycAgsikYgmtcaGQudYr8g8bKmCP/exn+HzT/8ED5k1ir2W/MBR+hwdSwZOI1EQrciNZaAMAzSjoFhphfVG4a7c4bFync8+8X5++j0f4pI+zRBBNy1jW6TGAD09PT3vQG/5PQAkkqYraEOQyALPAk85HCMihAhrj1xg1ZYc7O1z7fp15nVFOR7SxsCV61cZrY5pVGQmjom0TKTlUFqm2jMxgdNPP8qTn/gIG5/8MFzcTsJnhVZB27bYrkjc60jockcNgokK0DQRpgbeqOF7124w0zmRHCGH4MmVwyrBSYZ3Ctq0h2AyWuBgf48yN6wNx2ysp5ZpuRJy8RRoIhaFRvuQrmlBG0EkhQNvHk148rEneejhh9m7vcPh7V3OrGyybkpuvXUVaw24Flu1mKolm7cMmsDYCevB8PT2Bf7kJ3+af+VDH+fhbIN1DAOE3JPavt3/ofT09PScoBe/B0AqcA+gFDrTHC7m6DzHommJGKWY395j7dIjPPze91MK3DrYZYEjjnLiIGceHYexZp+KA9WyKIWwPsCcXiU7u8FP/qs/S/H0Y3B2FQoBHamjowotwXlybUEiXqdGM4KgEUxMqajBwJFANVrhy8+9QCjG1NHiW4NFMwoRqT1eMlqxKYvHKMgUkQbJYTHfpz7aZ2gGnF3PWBVD0dmXug0UymIDaaahUskN29UpZnlODpwZrfHep59muxjhbu+j96acKoYQHVmIDJvAuIUtLOfzFZ5Y3+bJ9dP8yU/+NJ9/9KOcU0MGCEMUOQKNQ8dOYXsF7OnpeQckhK7ArOePDInQHs5Q2qBWCqbeIdoQgJ29PS5ubGAd+OsTdA2sjeHQM/nDb/D6S6+i2sDs9h54j9dgxwNWzpxi+9GLbDx6AU6tw2aZBDa2xEwRc43XQlBCBkgbQKAxdFmeqbNL7oGocQbeinBZ4N/9L/47jlYvcLsZ0FYFmR6yUje0dUUzHFINBmnGgtGQaZgfsZJF5q88y9nmgF/+yFP8uZ/6IO/b0JTBwXyCFQN5mQ5I00CegxIWIRC1oUl5pyyAWWjRygJwbfc2z731Gi9Mb7PQKbM1R7FZjLi4uc1jZ85xbrCRSifRtK7B+shKnqMCLI6mDFdGQBp829PT0/N29OL3AJDYtWIh1Wf7bgYfnVVkluMOfFeFHpYrppici3AwTfvQkkoXjErCY1Vqz1Io6HqCphZpnXsz0k1HSE/WakXqrpkelvn0HF4LVxwcGviPfuub/L1vvMzGpY+xsxvIyi3KKhBDoDKRUBpCqQniYHEE0wOMq3h8XFDu34Qbl/nsex7i3/rlP8HDK4KfzdkoM2jqNIvPaFCKQEQZm7raoAgIbfREUQhC6A7LFM8B0CBoYudETeJtY3oPK8ZiIY2Fepvf4LhskNrT09PzNvTi90CQ4+bUxyx/jifW/UjSQh1Sz+jj+yRPZedPTJeua4wd6RJsIkgInRiE4w7QTmkcqU+mAWxIXVS8CLtKuA38/Rdv8n/9h79D8fAHuHEokG/BUQPWogtBZR6khrBAuQW5q3l4bYWDN1/jlIFf+MTH+NxHz3LKpudYBU4DNlREQJQ+fjNuUbOYzhivbyZhDJEAyWo1Ci+CR1N3Ynjy7etO/EzXou2e49jdKXTWXvfVo7uxp6en51568XsARITQDaLVsbPqTl5yr6BFDQ1ptd1NOZB1GpYyNtN/y3l+XQ07LIUhJFHQPqZbjE8xP2Vx6OP72QDEgAuOxma8BbzcwF/9L3+N3eIMt8KYoNdgsIFYSy41sdojTG5hmwlrGjasYUjkj33i43z6Gc0YqDojtokQD2c8NRC2M0GjaKsK4wJrxQCFTi/chzSP71jZAnPxLFREUKxQokPXk/uEoOnQWdZp3u0PHEvXfSHQgPSdXHp6et6BXvweAFHkWJjMcmj58mQdu5P10lJR0OgkHg1p9h1ApMVGwQYhI00t0N3jll7TpZYqIAOMA+VJT2abJH6SETDpfjG1+CSmWGFjMm5GYVfg//DffZMvvbFPs/UEk8aALKc21OAmrDDn/NDy+NYmF9bX+cxHLEcHsLsDh5OKw9kuO/vXublzlXb3Kk+X8Auf+Cif/OjHGaGJ0WFrxzgqVOOSoimVeoLqCFmkEs8RLdEFTocReH2PqNG9B7U0CU8eT51czG0nfgZQvfj19PS8A734PQDCCfGzS/G73+ojEhS0EmlVyoJ0XXVcumvKzsxR5J0luHx8kGQlpskNaXcWsB6UA8TdFT+KNBuvEw4dSI8UR+M9czvgOvB3vrXDX//1PyB74qPcnHjQRcqYDAtEKjaN58wo5/zaGpuDEd/5+rcxotBa0boFs8UudXPIcKw5N9TEyy/xp37603zuc59jyxg8YEJk6CGvHSPRqRNNDGCFWGpqJczxKAJrlUkmrhaChqb7oiCd29PSzUtcip/qxa+np+dfnF78HgAnxc8sLZWltcLdk7VTdwUsdsomnfXXkEydohM+c3IfkoyitnM1ynE8r7P8ooOs7oS0TCkjXVxQR9KjpMXVDaFc5bUavnUI//u//c+YbV/i+hzs6il88Jg4x4Q51s9RrobWE11EomaQlegYCM2UjDmjIqDjFD3Z4S//mX+NhzZWGI1TvDEAQ1I9YNldzwHtwbuA0wFnIg4hQyjbzt+pBW9Sf1J/4r3mEWR58OjFr6en578fvfg9AJZuz3giGzEVvt+dx3fSGFwmcxzHBzUcEfFECqBwEbknyCdQqM5aPH5IF/MjqYJZdLpQEONdt2fKjHQQUyamz0a81QivC/yf/8HLfGMvcChDwiKgJKIzD9YTbWqx5kKawCv5mHg4JVOa06XC3blMNr/DL37mI/xbP/0Yw+59HQEHHvZax8HkgNnhHn4y4RNPPc3pvGRbC0XnifXOIVYoRKNcGm0UbHIJV4Dv+tSY5ZeCcMKd3LlHl+Kne/Hr6en5IfTi9wBYJrzA3eGrsgxR3Sd8EJNwxc49GgUUTJUjAEUUMt/NtAvdjroYV+iGNxwLaDwR89N1ElsKQlTHD00xPw/tHGyGC4o9Y7ks8F//7m3+7jdewI/OoBgTRGhkzoIKjwNtwI7BlDCtkLJAZnvY+T4/eekiv/S58zw+hGYBGwp29uClm4e8eOM1Xrr+GjsHN8klcHpQ8IGz5/nwxYf5yUtPcnElR3d9AUQli7AIARUDjZbjRKCQxvxiEHKEbGn9cfeLxTI2aJZfOE6wrPtbfg7L63ft7kQ6TncHCv/3J55Y78S9Rfgn7xmXQ45PbKN7XXfveXf/d++5vJTut+rEE5zgnq0nBiWf5N7n6ul599GL3wMiNRRLnDy5RJIi3n+ylftO1scJHnRu0/s/JUnu1eVJ/J59xJAEDgGVmlgvE2lMF3sjBKhqvM2pcs1LNbw0h//s7/06b8wMi8FjhMEqdTzEU2PzEtdq4jyjsEPcdEIucy6c1nzsg4/zwUvJGnv9Mrz0Ys3OnX1uH+yy1xwgZcCWARNnDJs5a22FuXOHn/3Qh/n5T36CR84UBGDWjV/KgdOxZk3SAFu64+ljQItGo1jMFygURhmU0WDSdwPfWX1UXWZoZxGyLIPoLqvWgRaka4UWgUAk4NHAKJp7k5To9rPk/s/jHuKJAk7uFbrlZTxxXe7+vkTAK80iCvHERHohSVq6TNKYikHSUOS7LzQCBk9O7F7w/U+d9nFi3SeAd2/7oW+yp+dfanrxexeSsku7s6uWNCm9u80AWYhQN+k8meXMDFwHrgX4O1/6Jv/4O2+wN3oPVbmO8wfgayhGGIaoakAeDcwOeebJMzz5hKFpFrz8ysu8efkOPmwwHJ/l2q1dBpuryFCxcIdEmTLWLYPFEWb3Dn/mU5/m5z7yOE+M4NYE/vGXvsKrN69y6omH+eB7LvHxM+usdVmsiqQj4iHXkKf6/ntO2Cn8l75UmJiswpPaQ+ikQSJBAqJVFxO9+y89OqJRFBR3Hx9JDQjiiWXNiWe/n5BmDi4V7n71OfHKk4G5/BKT5CZ5DtL1H3hoetSJdKf7hS81FPdYIknY02OT1bzc1/FaeibuOwsk3e1PDT3vXnrxexeS6uC6U6dOza5PWn42BJgvwFqwGUc+cmRTwfs3bk/5v/zKb3Bn+ASzfIMmVqlTiykx2SrGFcRFSx4qTJxi5BClakQpfLBUVUbdatbWttg53MOblnJzALohLA44Pyp535nT/BufucB8B668dIeXX3mFq3t3mKpIXSRRWZOMixtbXHr0ER47v8HZdVgr7ibMmJCE0QpkErsBth66QbYZeRdc7cRBTqjoUjCiB+8gdFmny67b2uJViSe1XKOTpfTPE4LHKnNCcO6RMwSFitld3+rynicULMSl8P3gbSaAcSG9dtXdsKyJXD5T6Py9Jx5393qX+SSdszsub1zeYXkw7rtteX3548l99/S8y+jF713I24nfMjSW3J4efJoXiDbMYmRqLVcCHCj4P/5//ynfmQyYlVvovKT23cQjO8CS0RwdMc4VoZ4QmkOILSaz2KwEVUA0zA7n2CJjfHqVmEVuXn0Njvb48Md/gj//uTO88K2WvcvXuPbam+wfHeHLAlkZMbOKhQuUZohyEeUaSglsjwseO73BUxdOcWG95NI5GCsYdxmkSTIdLi4ITcvADlAhWTtCRIJHxYhEjwRPXhZJ8OhE5jg5JoLS1MrSSJoJmEZCJSdicjdGwnG0NaT7dI9PImlQMu72d7zXe39O+Tzp+n0ik3lQ9Ty9rqXgieoEUKfLKJ15lhqG34NEkMWJlgndPk5el1T+cvfJl7d3+5V73a49Pe82evF7FyKxMy0QohJclysDYImo0AlfU4MxhCzjCM2rswX5sOS/efZN/uaXnmfPbDBcPYfYFY6mDSiDMkKY7DMYlQytJhNFXS2YzWY03mELy7AocdMaEeFgfgDtjNFjF3nmfU+g6si1l17D703IvEIFTROFqQiVNfjRAFUOWezPQWmshjy2ZL7CNlMKP6NwM86ODFsDxYXNIY+cXeehMxuc3VplXRvyZQLQ3XBfyqZdHh/vyWLAxoilE77QiWBIsVI/HNKIEIMnxojEiFaC7lqrxuCQ2LWbiSdcjxEQQ9DDLnrYPed9l++UiCoRdHTQzk6m94Lq3o1K7yT1RtXHmcMn83NMBBtriM3JPd+71EnH8X23QSd+Jx7e0/Muoxe/dyEp6eWE+HUnRgFMjEjo6iYW89TFpSiZYrnlW5S2PB/gr/7t3+SFvYgpzlOuXmR/7kAEGUTibB+VaULVIs6Qm4JyOMBkQuWPaBczqjtHbJ8+ixpY7kz28aFhtLZGoQyL/QljyWlnLcEpVDHAl0PmWtEEn177aAxVBbMJVFPAkRWazYFhPRMWezewbo4NC3JpGVgYl5bxsKS0hqcee5xBlrEyHLI+HrM2hLHp5g52scS8aw5gurUUyxDvNiO/Xx7u5s/cTThJAcVO/IiAIojGd48+ISnH15eCeo++HP8l+q65a+eKRXWWWnqFEU0bSeK3fNaT4hegDB7iMtLL3WeW7rp04nds3d2rdEn4+lNDz7uXXvzehaTzVpK7IKns4qT4EVzKRmyrFFPKcmZRaKXgoKvN+xvPXuYf/eGr7BwNGW48wUGj8BrMSsTNd4GAsUMKvUFsFfPFnOinkM0wBk6PTnGwd8isrbCjAZJpmrpCAoyzIc3RAisZWTbEieGwaqBtoSxhdQiHd8CALgsKa9Ax4OsFzewIV81ZHw6IrsI3FaGt0RLIrCHPLJkWZns7lFYzKkvWx2M2VtJaKwuGxnDpoTGFQKlhYGFoITd3hTE0KZ5oTbpcCuNSvMyJn09uTxISj8d23JWWZaZmd3vohPL4r+/EdQVeSdfAID0qzbdYOl6XWbDq+CEn/4j1stvPyY0n44uk5zi+fl9Vh3RlM322Z8+7mV783oUscwbpxgadTHrUkc4i6AQwJrfekYvYcoOrR4ewssq3gf/73/8K33+9JV+/xIHPqAyY1Ugz38UMS1yjYFECBVmWIaamiXeIzQwqTWZKvIp4iejcUhQ5EiL1dME4HzI9mNHUHlUkV6dDOhdiizINyleEkNI0BUEp1YmH4L1HiU7bRFAixBjxISLRsVoaYlvR1jWursG36BDIBDIihVYUShhklpVBwdpoyNp4xHg0ZGwVj6wXjC0MhzAeJmHUdIc1wPBu29EfED/TdbBZ2n5ppVhhkiyAcCxhSwtwGTf0SjEHfJetCaBI7126Qn+F6vZz93nTcepYfugdJ0Vuef2en0+w/D25K609Pe8+evF7V5JOtOn/u6cwid2JN7rOMnEpI1CEIBaHpcVwCLwA/PaLO/zqF1/lzV1hdOEp6sKyO7+ezvzOQczBr0HM0hlTVWAPAId2JSoavESiRGKq4EfFmKyK1qOCQkQRUXit8SIErRFaCjfBxLYrA0j3STGu5eVy0t/SHdjJikjnhmxQuE5YkotSxbQ0geia9HO3XUjXiWBjS+FrMhzGaIosYzQoWBkOGA+TJVrmhlFZsDoaMh5mlDkU3RoLnO+60CyF6X4r0b7NtuWK3VeTuBSipch27el0hNiGNLcxpOxWREB3yTCSvhxgDHp5aI5/M+7l7s9dLqv3eO8psoIYQvryASilUGopt8lt29PzLzO9+L0rWYqNpHlJadPxyTUlUizFryuGF4PH4rHMgB3ga7st/59/9C2uTnJm5RbX5nPURk4Vm+QujTmEcepBpgSkAjtJ+/clRLPMvjlODFGkkzatT+3WuphT7LILoxIUHutrVPRp27HwafwJ8UsNu5cOyJM2WOjkY5kwspyDtOybEoh+2TNmGbdbxvDSMOAS0METY0qE0RIxSrBaMBJp6wVG0oxhTUqGyaxhUBSMDay1c1Y0DAcDVlfGrK2ssLYyZjQoKSysjNJLMkJKojnhWl2+K9O9m+X15UDfkz/rE7k2uJC+lEiEQX7cZch5h2sbQvBoJSgldxN4zDLud8IGjKpLjdL3iFyMkRACMUasvVsG0tPzLyO9+L0LiZLq0ZanTuk6vxwXMksEuU/80MRoiRgqSXG/1xr4g+/t8YVvvcmzN2e0a1u4lQGHbRp0CxZCkQRWANWCWqSTaMy7U3Q4zoYU/LH1JdEjcen6i13eRZpEn7aYuzEuWW47WQyeChCSqKfhwdKlJ0ZZHoP0ppfF68vrUSIhtN22Tj1SllB3ABXiLRIEQvfMwR9bhxIDRoHEQPSO4Fui9ygBazS5CLn3mBiSS5b03UABWpJ7c1jmZMYwKHJGgyHj0ZDRcEBZFhRGcWZNkavkbi0zGOUwzFKNYwE0FRSS4pWlSttOxiUXTY01glG627Y81kvB74rkowffpizXZbIRFsrNLvp5L0sBPGkF9vT8y0gvfu9CooSuLbYgWNTS8FkiEFUX8+tEUtAQLQSFV7AQuFYHXK74T/7ut/i1b77CmQ9+givzhqOgiFlOOO4dtswiDGmcksgJx16XCdkJnSKJXuwul4KS9hRQEQKGVkq8pOo9oBMwQMI9MTJ1wpWa6viSFem6VP14/GUgnhBFcKGzkI6/FZwImAUDTQZkKCUYrY9FOrlGU0mEVoLRSdyIAe8d3jlCiJTFqKug8ATvCM4RvCMGj4T0vpdOaa1SzFKRDp0RR6gOyU1MLtbMMioyRrllYBSFirzn0YcpjbBa5qyPBqwOhZXBXXGsK88wU5RKsJ0gQsSHCvEthVGo4CC0iG9RMZAZdeJLTQkqPz7+99O7PXv+ZacXv3chUUJXhC0okgVzbNikoQyETiCXGYkKgwpdg0ygcg1NnjET+I0Xd/nbv/0trvkhR3aLPWdgMMSrSJQ2WY8xdPnxJknZsjNJVwKQJluk61ECopKgLS0R1RWhqwgRQ6sGeEnTKO61zLr7x5jid90yIT02NS0TnKjj3qcROqvvbklAG8KxMMJSHbrr0WB9iY4mxbokvQ/vHdH7rvYviZ9WgtYqxVh9wHtPHSHkI7wySdS6+kAFaJUK5rVKghnCXWH0nThGWrRpEXHJmxyTHWz+/+z9ebBk2X3fiX1+55x7b2a+tfbqfUE30AAaIABiIUEAXCRQpChKJCVa5kjj8ViaCI1mHPLM2B6HJmzKtmJszR/jNTxhK2IipJE0M6GRPJKHmxauIAGQAEkADTSWRqPXqupa35bLvfec8/Mf59x8r6oa3ej3ulGFqvPpOP3yvZd58+bNeuebvx3FasAR6WZ7VAKNFcaVZaWpmTQ1TV2xIpEfesejbFaW9dUV1lcbVkewkks9Rgfcp/uO44CSyischkorbK5TDCEQY7JinXNITi4qFL6XKeJ3B5LEL9V4GWpM3K9y1yx+QcjWYcAgWCw25lYwCvgexhVfuXyZ0amT/Pdf3+H//Pf+B1Yf/jDnZxazso63HrVTkA7ViKiDOCFiCTa318pjlMzgkgSiKGrlelGLARvBqoIagqmJYl5FnIYgV7L0rEZs3Lf8knimjMmYLdJkJy6lLVmGIYnfcPDrCrrVYIJgJCV5iKTTjDEui95XV1fwvsf3PTH4nG9iERGCOBZSg7hUOB9ucC2ig/8TDIizOJsGA1trwCizbgoSc8wxWc4SY+pUg9JUFYSQYpfBJ0EVg7OGRj39K+dYlWQ5ro0bNlfHnD62ztnjGxybNDxw+gTHVhpOrhs2conH4DJtgBudnt57VLWIX+GOoYjfHYhKWIqfpUaivU78Qha/1Mo5uRwdNg3MHfolK+ACL2xfwp44y9eAv/OP/oCvX13hmm6go1V61xHNNTDzLH4N6teJWLxtQQJGBVHBaHYaihANqYDuoLUVc+1bTC3IKkkWXszTK5IVJ3l7PrCSL3M5M3Fo3zwIXzr8oGz7j4shZEt1WPniQBqjofPUH9OY/SW56k7AOUff92jXJXEzQ9cUTZ8uzAjBpR8LKckkJ7cMcVDVgEZPjJ4QPTELq6qAqUGSmA6ZljZ/LyJ0XZ8EKP/5DlokJIt4Y2WE+I7QdcR2jvZzGomsVoYVq0g74+TamPtObnLviU1OH1vn1LEVTmzCPQ2cnUdOWE9d70ugqiJDglIRv8L3OEX87kBSzC+1sjbqELVLjdE8THfoYJJkQrDI/rT4LJQ7l19h9d7jvKKBKzLii5fgb//dX6PffBvbdo1ZZVm4GdF0oB6jBuNH2XLzqBlcoWkpJveoNOBytmB2haIhregPiF+K0yXxGyw5OZDZmW2VLIDLFwgHBG8gnUMyJAUNeczDUkQP3DYe6j59Vb15QeqMo7osMRBr0aFlXBeS3aTZussNVYwoRhSIeN8PVQlJ0IwgJpV+oJa+IyUhDWefO7Jovh3bPh3U2tTyTMx+j9IY8uVJblmjERN68C029lTRMzIRFz3iW8S31CgbqxNOHj/GgysVf+69j3JvA8fWYK3ZzyytTK53XM7RSOQoLCCY4d9SOtkbXM/L1CVYhlnTe6rD+7B868rWVHjrKOJ3R5IyGoGcAWlSIgj7+3zSiP23XjRbNfl+XbZYJC7o+hlVM+FCb/knn3mGv/cbX+aV1UfhwXdzvlOYz2G9gcUO7F1l48RxZvNAwBBTIC7viyZFmeKwyLV2PUKHSAumTa9A6xzlGs45bfzprIeNNv/yuv1yuGWGnxz8bSIf9PqfHvxOiRKyS/aNoum5h8bROa4KHiHklT5dpNeR0oD26xUt6JC9mg8h++e8f5r5eizvc8NrzL/Yr3Mc2qmlpJ2ULDR83f8dKCMf0YuXePTYOu995D7e9/ApnrgH7l+HY27ILO3YWVwhmMhavUHEshvmiFQcM6uMo6SXnT+jBIGApkQnfI4M539sapfDq1TzZ4Yb/n0WCm82RfwKN+FF2Muz8yb0EGZgIoGa3/3WVX71a9f4x1++ysXVh9lZuTfHtuZQByrdod+5RtMcI2LpUyAva5FJtX/RQnCYIDgNWO3BtKhZoKbNKS1jVI9SSzYo7nefZKEO0xaGjNosfjIEVUkCpkOh/oH0E2WZHXsrsBE2mxXY28XsXGa12+aRVeH9j5zgI0/cy+P3bXB8bGiIRFp6FtRUjGgwGEI7Z8OtJBdD/pzi7SB+HoPPI6iyZ0BdtpSTpVvEr/DdoIhf4SaCCDMPtYMRfZ4OEFEZ8UJX8Y0F/N9+6Sl++/lddtfupTl9H4vZLrjIykiZnn+ZlckGAJ2NeKupblr2xU9ChY0GqynjU6Unmp5g+2zRVMlde2hunfglBnMt+5EluQkH62q4z2D9JevngCv3Fm78KhHtZiCROvSM2hmr3Yzj4rlnxXJ6LHzkPY/xfY8/wCMruZNN51kXoRZJg5LrKr0GsZD7lEaTrsdg+QnZ9ax2KNlfXp0ifoW3miJ+hZtQUjNsADf0AAVmvbLrxuwK/PIz8A9/4w956vKCyX2P0Fc1u4s51kIlius6hEhvI95oGqskBlGLiRYTHUYtRpN9E0zEm4gOLUvifobo4bh14ieaslYlVRdeV2d484aeXZykxKBUCCGEWzhSKJoAdg614MRh5x2yN8PNF6wSWZfAyUZ48oHTfOLJx/jAA5YzAqM9mMQAjQHrU5qvJit4KDvJz3BwHkV2VaeCi5jdt+n/N16rQuHNo4hf4VUREVBFg0esIaqy10fmtqZzcB749S8t+O9++w94dqtlfO9DzEzNThfYWFsnTrcweLzR3Nw6e8HUJNGLFlGH5n6dvTGEoQ2KKASP0Zx5cyhunfgZVapct6iSKhmTmC2jb7C0+/KswAOxtyhCb+xSCL7bRNuDbCdjTBvoDbQCWjGuxmxUju7KBUbTa7xt1fLJJx/lJ951mncdh5Xhs1Ld5mny+31nVFMcVhhMu/2yFYa47iB+t0r5C3cN9hd/8Rf/1o0/LNzdJNdc6hOpChhHNBY12Q2Z22k9dMaxmEWef/YbqAiT1XX6YOg6j5P0qX7ozamSrJpU87fcDoEh+9SiYsHkjpYalr8/HHJLxc9pEj/yhq759cXcjDu1bjNDk7Zlp5pB8FON4605f5UI7U76xo7BrUG1DrKC9xV7rdBWK3RYru3u8vK582zvTKnqTdY3LPUYvChqcjao6gHL1uTeoZK/pthoan6uOT6a7n+r3r/C3UERv8JNiCr4DgTEOLwaYi5jMyaFr2oDq8DG2hqxX7A7ndNFwcuIWRcxrsKLJUhFMI4oqVfnsKUZloV5ufbPoOJS8gwC6pdZkYfj1m2eJndiEck9bIwhSJ5EITkTdEiIESBnYBqN+TEQjL1l4mdU2dzYwKijnypMI8xNmt5hR+DqlLc5GeFWRkzDgudfOcfzVy/SjjdYPzOmEotIcpcPH3qWgjdYdfn1p4bm5I5DqWBflhZjofDWUP51FV4FBd/m/AtLiND55KCqgDp4NomY+S5PnnD83Mffz+MnRsQr52m6KauVI4rFS0MvI3rGeMYERgRpiOJSDAgF8UjOhGSZAHHj+XxvoaQuNlGUYJJlG4dSRNnPgBxq4Ibfp/umx93KS2BU2L6wTXdlgVsIIzthdW2T0XiSzrubw0qDdnN2rWDvf4CtzeP85rmL/NOvPsunLipbwIKKTmzqs0qyANPaD/eRLf8hFWiZIHRLr0DhbqDE/Ao3IRpyhqcBGeEFfP6wbiM4jdBvI6OaTi1XZcQXr8I/+q0v85tfu0i3eT9XzZjWjpB6hGsa+uBhMYW4QJxS0+X6Pk3t0Gjw0qAyyhvfAqPJcjgcty7mJxoZVdD3HV2IOe5lwVZQNZiqJu7tpWJ0ya3OCOA7nEBdN7Q+zTG8FdgIVVRcFERTJmoUQxDBG+htKlnAeJAOpMNpz0h76ug5tbjK/+V/+qd4VwNhvse941XarStMxFJN1mHuoUkzIINJDXHUKEKLoc2fDSa5BKJQeGu4NX9dhe8dhu4c+9+mcUSVhdBi2z0mseeR4/Bj73+CD73tLHbvEqfXJ+B7dGeX4JXxZIysbIKboNjceDrHl3Lxt9Ww7FIyTDX/XkQFpvMZne+TuJlcwhd7mO8Sd65CJXkyLZja4poKaodHmXXtLcv0JMcbe6lpTY0Xh4pitafWBU2cMY5TnM6A1MIOBG9qpmbCjlln267zG3/0TS70YMartEA9HlON6uROb7KoZWs45mSXW/VhpXB3UsSv8OoMbciGb/M/lhS70fSTmIe4quc48NGHLT/5oXfy3nvX2X3xaTZdz8b6iDjdYf7KNbQL0Exy+7OUARlF05iiPOvPacTEIR/yexMVQSYrmNVV7MoKtqkxThCb3LzEBSYuwM+hmxH7BTHmPqLOgatuWbwPIBihrxxt7ZhWQuuUYHtEFlTMaOKUsc4Zx5Y6eGwUjLcY30AY4+Mqv/7Zp3n65T0icH6vxTUTqB2xnabeqfnlJeEb1pAEVLalwltP+VdWuBmRZVJGilMNFt+B+/iYQjNVTWMNvvOsAh97GH7+h5/k7ZtwSraYzC+y0u+mjX62B+0CadKcuGV8K2eGyjLj8ZCdxW4TFEF9JHolLDrCdEqcTbH9ghGeRjxrJjAyESsREzyx61JgVRzUo2U5xC1j2W1N6XO5SpQUj5Ocs5rGLAkuCi4YjDdYb9HY8PLVnk8/9TzbQG+aXCmq+QNAmvihB4QvkYRP1JRSh8JbThG/wk0oQ3uuVIAu2eJLUTTNXZprQjAgqTOH+AUS4RjwifvgP/z5H+L7jrW4V77CKb3GI5sNY+lhvkdt0rMcTPYYauDQlP7/vU3uHC4OY2uscUyMYbOyHK+ETRMZ93PWJXC8qdisa2qx4BX6mHsK3MJrIFmgjAcTiUbxInhx9MbRS4WXmkiN5sbpNgpVhCooJlomxx/kc187x7PbUE1gDizaOTKuoNsD8SnWNyQCAaIWiW6/FKJQeAsp4le4Cc2f7dPkuAMuz/xbEHBN2gR9quPbnEyow5xGA+vAhzbhL/7Q2/kzH3yEk3GL9vwzTOKMlcbQ7u2Q2qWlrMaU6ZeOAwfqwL5XUQFbY+2IxtVpcKzvce0cdrfx1y7RXXkFf+0KureD6VoqSAkxuc3XLQ36qab4ZPAQQ7bCU9lKLyM6M6aVES01nVS5jEMQUYxEMIaVk/fz8rWep56ZYYBeofV96mseUqww1fZdb/2lCST2e/v9L3xPUMSvcBMqqfBgvwXzMAEgTyMQQ1CDaVbo1RIQLMrERJhdZhKvUs1e4OOn1/k3P/k+PvbEPRw3c+p2mzq24BepqXF+Ls0ji1KPkzza5nt985suCNMF861dFts76GLORuV44PgGj589zbsfvJ971leo+g4/3YOux2HBNYg5SkPvo2M04nxP1Xc0PtAEMNGi2uCZ0MoKvUzwdkwwTbIGncE7JTpPsMrUG9zqSb7+3Dmm2ZNunQOJuY/B/kikg2v54ed72O1d+N6glDoUbiLKfnl5ssFi6lYylGmJYW+2YGV1TFBYLGZMxhWhm6N+wWjigAXXQmDLnuJCGPGrX9jiH//2F3huFlh74GG2Y4+3Ke6XNrsa0RqJTXJ9Sp/nEqa44P6Mn7wGN2zuGEO+TRbUSI5XHprDP1hxqI6pnWXUb7Pit3j81JiPPPEwTz4Cx2q4sAVf/sacP/jq8zy3NWfHjGlHa/T1OM3o83MM4cZDvwEOf/5GIy4GTP7Yo6TONKncYSi+z3WZy4bdAUdMUzqiQeeW0zbwqLnEL/5PPsx7aliNe7iY5hCqGdHLEAtM76FVcMNoJXO0/j6FwutRxK9wE5oFBFK3l3Qrfb3+u8yQsJInNCBztLtAsMLMHmeLE7wY4HMvwq98/uv89leeY3zPg2wFpVlfR6qaWbuA+QKAzZP3Mrvag1q8jbnRcsi9Ij1oTBPfo1KHPDEppiGqaMpW7GwKux2OwfI83AFUG1Q3GRFops9x1lzmP/t3P8rYw8Nu36J+uYV//QXln3/2Ka6N1lmsbnJtextz6jhxtoPRw4rf0c4/hfxyiopJTc7V5H8PwzT7uD8TkGUD7/RhRrFoZzlBy5N6nv/8r36cM9M97huniv/QQ2zG6f2RLHzE/OElucDT05WtqfDWUdyehZsQUosrsxS+9NObv8tLWQ7NVRyoQ9wYZ0esYNgk8pCF998PP/7et/Hnf+j9HOv2uL+p6C5epPaeU+vr1GsTRpsrbL34LFZ9nvWXLYzrOn8ky89q7heZe0RGkmUScqLO4TnaowHwHe3ONVZNy5/+6Hs5ATzgFmywx+Z8G7ky5x0N/NSHhcdPH+P8M08z371EfXxMXKSY6OE5+vlrnrCQkpE0lSeYgIpH6LHaU6nHxYDVmK3E5DVQI1BZWu1BPA5oZHjrHNaNl++kaPpXYzR1+cl235vwCgqF16aIX+HNRyp8nBBYJTDCYhgDjzr4+GOWn/3gKT58dsQDbPPBe9aZfeurXPr605xZWWWxM8eurmJlDyfXqNim0V1smCG+w/QB10PjBRfSZIggjrmt2Ksqpk3FonJ4c+v+aRt6xqMeCZdw/iofevcqVfCcRThJx9mx4dGNhrqHs8AHHj/DvccMI91ixe2B7iD0Nx72u4u5YaZecgekzx2axRFDzM26k5t5SFhK0zm0m1Plt6FyQ8/WVNg/kD5ODVJXJK/w3ePW7RCFO5aIo9VVWl3Da00IHqewDjwk8J51+MWfe5KffOc9vPyZf8m7jo94732nefHzn2fDVpxcW0NkAWaGkTlWWyr1NDHQeKXxUHtDFQSjyf4MBnAKVQQXb3GhYMSYlpUVQGd0C2is4FBCt4CupbYCPcx6kDDj1PEJ4zrStdcQ04EcxfI7GkPd5fUdRgerP2XlqpgcA0xfh4SlYUup1EM7ZW1UYQBrsvCFm1/XvhehyF/hu0cRv8KbTkSgalBxGLE04pj4jrXQcir2PBADJxX+8kfu5Z/+53+NR+yCy1/6HB998h2MF3N2LpwH6fHGE0xMCS+kuJ6LhipYqihUUXBRU2KIdGAWYOZg21suHtPFLuPNFaKzfOEr38Rh6WmYesfWXs8r1/aoJzCL8IdPPcW5S6/gJTL3Ldjb4M8yN/gRybMdYxowTARVISxdzGnFoSpeLSaC7Rc0seP0xlrymJKOcTDFYBmZ1IMu7SKAhe8Ot8FfWeFOQ3Mu4JCu4bIlILFFwh6jfot6+wJngDPA3/qrP8pf/wt/mktf/jyTvaushgVGY846PehaG/qKDGNxNPcE7XEsQOfANH89bLLI0VEEXI2M1tnuLb/++a/w5R3lJYRucpp4/B70+BovA7/5lT2+emkLXTuBr1eJc7DNaraibh05hQXISU9Lt2ey7lRS9ufS6hOD5hisU8V1czYqeOD0MWqTrDvMYCEeKGzPDtTrJG8/tFwovGWUeX6FN50owtwnyyG1swxYHVx5HnxHszJm++oVjBnTecsjD9R89CPvYHat49q1q7TViM40qFREKoKkmYARl2figRAQ8Rg6jCwwzFEWoAET6yNOBRjskjeO4sCtEcyI2XTGdNbSBuX8bke3vsYFA896+G8+9Qr/8ukXuGjWkFMPsWg26TtLrNfBZ8E5NIc/f0j1I5L9kEKK9UluepBiegdNQ8j3wig0oadpt7ivCfzE+9/O29crVmLAmWQZRjHErO0pWcYnlygmzX1MIcNDn32h8J1QSh0KbzpBhKlP5WqVgg09ji6VKuAheLrpnPrYaTrGTJO9xg5wpYMvvQL/1//fp9muVumMpTcVvUmJLaoWo4LN09Ktdoh0qOmIpiOYnkiN1w1URzee2hvg8NtvpIaugqqikSnH3IL+6vOMdcajD5xlNl8wD4bnL+4wOfUQO8Gx2G2x9zxAEAtXL8NIbtlIJyWCDSkOF0jZtFEgVx6qmOSaFUmxVQU0YqPiojIJUybTl3lyQ/lf/uyP8YENWA8dTgxERydpjJEAtfaIdtnyq+ilQSV5C0qlX+GtpIhf4U0nOSMTqTNMyNvmENuRNCQXi6fCp+E49HntAs9E+JU/aPmtP/ojLneefnWdha1pxWGbMaGPqI+YEHAScVYRE1D19BE678CNcS5ZfyEENAQQQYxJcazX5PDiEbUBXQM1WKY4plTsIbJApScYcn/MBmQMOoLYgFYQLdAjZu+IGZ+HP3+ViIoHIjYajJpUuI4liBCMoFevUD38IPWoYfq1r2JPnuT4ZIVLT3+de0+tYi9+hX/3pz/Gz773NKeBtW5O5WrAsojJF26AWlvQPotfjZeGmKc9HbVgpVB4LYr4Fd50BAVNm+fQsHqY2Tb08UwN0fYjPUru5qKRBRXPb8PKJjzTwj/8taf41DPPIifO0E/WeeXKDvX6SUK0GLU01Yi6qokxMl/MaOdzMALOYW3Kq48xojElwbzV4iexQsIKRgWRFkyLmgXBdATr885ukwJoA6EGXyHBUXuL4PFuRjS3RvyiRDBJkGwwuGiw0QIGLwZvhGhi8nH2HTIZ04TA4uo1JhHOVD1n/Tn+yk98hJ947DgbQDPfo3INwVTL6fZJ/OZpcLIKSBpoHCQl7hbxK7yV3NqoeuEOJeYNrUPUo6IELB0VLY4FljnQZTsQIhWekc5ZiTNO+D0+uA7Hr3keXwT+9p99kr/zV/4sj9fb+Bf+mIePW5p+i7HpccawN+u5enGPrcs9rR6jPv4wmDQ2SVWX67uF1cAk7rESdhnHOXXscrG+Jj0SctG4B1kAM6xOmYQpq37KJCzy/W8hQzu5A+OsTF6iSjUep0n0sx1WJzWxm8PONe7dXIfdLd714D3ct7nCCHCE3JUnptSW3Mw6SXPJ9CzcGor4Fd4CBptufyvLjc+u2+qG3xrAorlNWcD4Bf6lb3JmxfPEOkzaOd+3Af/ZL/w4/8lf+mnuD1usbb/MaPsCo/k11k2gmYxhPIEA3fbechDvdcKX8vbfciEUCRgWWJljtMWqx0aw0SS3ZjT5IsRkIWuH1RanC5wuUhwzfyy4JQwCnUWKQfhi7vwD9PMpMhnB6pjdrcuExR5rq2Pq0DKKLe977EHu3WioAfouJbtYhwLhust/4F/FW/y+FAoHKW7PwpuOaISYsztzHZiXNCJp6GtJFj0HaSiqBggBYkqIQSLMplBXsLrOLjVXMVzL9sIvP3WBp1+8xpeeu8SFmRBWT8P6SfaiZdEuUi/QGxJGBlenqmJetwPM4d2GVkO29mJKFlGTJmUIeKv0JhJtSGqiClGog9B4Q+1TNuSsMvS5n+bhOPz5RxPBJben6c3yvESTy7O3SkuHXR8RY4e+co71lRVOYOgvXuZDDxzj3/uz7+GJVdgkYme7jOoGzIhWoY1QVUMJzE76t4IBJvRmRCxuz8J3gSJ+hTcdUYUcX0PylIi8ksUnKIpBhmHhKa0/alrqQfo8UFXApgSaDodnRAcsgOcX8PlntvjMN17kixe2ONdG2tEqcbyGNw19YP88DsT53mrxg4CaDqOKCw4bXYqZqRANBBPorSeYNNEcNGWwRoMLBjD0Jl23w3P48z8oftIbRt7QeIuoEETorNKPIPh5Sufd2eLBY5vYrW3ixSv8jb/443zycbgPqP0MO58xWlkHahYxJTdVDmrAxe3sIrcgSfyCpMMW8Su8lRTxK7wFyNK3qUMZGAGRwcXFMBsJxKXOIOz7QqOCF3AVCEoIC5zJafVdx87OFHFjms1j7AIXgN/61ja/8/Vv8tXLV7joR2yb00zDKFmTANZijFm6Qd9K8YtGoQ7pGL6CvqLxFS6YVBlgAr3t8dYTrc+BtFxAPsyyU4/J8xMPx1HOP0LVg14vfiYK3kBvFT829N0u0DF2wkbfU+/s8sEHH+av/cwDPETqW1r1u7h2QTVaBRkxDQJ1OrMkflsHxG+liF/hu0YRv8JbgBw0/PIaer4Mqpjn+InLApiImu7V23RPJ+CIaNdi+g5b2VRgjYGgXA0wm4zZyyL49NTzjSst/+RffYm9OMZ7T0QwzqHWEcXSq6CmIopddpU8aJOK5ukUmH1Fhle5zQGB2a9Kixaos6D5CrzD9o4qGkwEJBKMx9uQsj8H8UPSc6pC9G/CSKPDEY2Cyw7qAJWHxqdyB0iuzzkBt1LRtdusN8ripWe538F/8D/6ST5+L6xFOGOg9lOk63C2wUfLQhqqUbp6FWDjXi51sMAIb+qS7Vn4rlDEr/AWcPPGO4jLvmgMN/OGf1BWBKJ0ec53SrGHZDUZTccyBl6+dJHNU2d4eT6D8YQ5cDXL6xz4+gX4wy98la89+yxXpnO8GxPHG/hmjaudIKN1bDPBK/RtC6GjEqVyDd7XKDafd0zCvbRcBz9tkst8RvmrEETBxvTSNFV0i0qaOZjPX2WYgZful462L6TXXadDccO1fgNEkeRuNnE5P9EEaHpL7Rsk1nhb05lAN7/IyoZwzF/k4w8f5z/4kXdyEjgJjHP8M5W+pPd5cH0jyT2+391l+H0qgRmuaqHwVlHEr3D7IQFYZNlJ7c3SxLh9IvDsCy/y+a98mY/82J/gi8+/xOTsfZxYq2mz+I3y9n9+AV/4xhW++MzzPHt5lyu9pWs2mGqNRrts02WsUBswOEJosvUX84Bef4MADv0pk+CBRXNii6JpAO/Qnyx/EQbxzvrJ/l0OflxQSDMJDx3zS1fusKjkLi7Ler8AEVxw1H2DiTViGrAwmgQuPfdHfOLtx/gbP/M+ngDuASZAXbI3C7cxRfwKtx3JRbpARYk4IlVuaJ2IwJWtPXa7nn/0z/455/YWnHj8XXz9wlWaU/dy6p77efi+ewhesbWwcQLW6iSIzy7guUvwxW/OubS74OLWHqEPYCyVM0jw+C7g3CqK3Re/g8K3HPmT7JMkgHmkj0o29vx+66/hXgfK/G4Uv+E++Ve3VPySPZuOkV67ptcohogDNUiIbFSGFb+DvfI8/85P/iA/964NxsApNMXzys5SuI0p4le47RjED+J+M2tN0xw059JEYA/48otX+dv/z/8PKw++nRf3PN+6ssf9jz5Gv5hhjWCcBeeoxhNWjp9k7dQ9NJtjdjq4uKVcuLLN3nSRnxdC3+Nbj6sn2d2ani1Zf4MQaLb6BvNvmGWXklZUNIlfVr4bBY8DQjjcHpDbQPyEiFOPUcXGZNl6Y+ispF7h4qGbc5Ke5tzz/OVPfIhf+Oh9rHs44cDqnJE0mOVFKhRuP4r4FW479sVP8xijtAaRCVkAz08jsmL43MuB/8N/8fc58Y73cWEubLUd41GFEgnRs+g7uhCIxuBGE+xohdXNE8y6yHTh6UIqvDAmpfOrpnKIQegGSy8968E/l0HWcpbmAfFT8ajE64RveMTy0d9GABXymKDDisfRxM8QqGOPi4oLFRHLwhkWlULdg8xhcZUTu5f54Y1V/nf/40/yNgvttV2OHxvjQ4czzTKWWyjcjpR/nYXbjuR0s9dNBk/2R8QQsAqL1lM7Qxfh3fdZ/uQn/xSXLm0xmmywt1D2ZMSFeeTlaWDm1lg5+zDr9zxCaxqunr/IyxdeYWvrGl07R70n9h7fenoPQVPcDgmoROJypZ6UB9eQLZpOPI31OejeXOrmqzC0+RpuLzms5r1JpKcfRiqlzNdItW8J64Jxv8VJ3eEXfvT7ecRCM2s5sTZC+haXxxsVCrczxfIr3IYokYBKLodYip9iNAlOj8Ebyy5wLk+D+Dv/9Bt8a6vnxb2OPVdRbWwwnkzwMbC7t0ffd9RNxWTcMNvbw0gqs49q8DhCTPPmICJVRPBLUdKDplk+I1QQNQhpiKuoIFkgouSY33fAQQuQpb15ay0/p31uxzYiSE1nDNH2YHZYiZd5xFzjkw+d4D/82A9wOra4nV3Mygqx75GmQUy1/6GgULgNKZZf4bZDRfL09qEWzwKSraiAaE+tLYvdLSTA6Wyt/NWfe5z7VwwnamV10jBdtFx85TJXt6bEakK1dhwvNVvbU8S6VPAeUyq+M5aqbqAaga2SgOQY3zDRfJ+lXZe+y+ULgiIa0+Tz6+7x2gwW4EEj8VaGy1K5hqUzlrmztDaVKLgQ2Wh7zsxavn/zOH/5Yz/AGj218Zj1hjjfw4wniK2L8BVue4r4FW479h2ceQSSCGCzMy03gw4Ljq9Yxt02OltwD/Ao8Oc+8nbetiGE7YvU6jl++iSj1VXC7pQ+GprVDegjfUidXoTUik1jJOR5f9hUdJ/E68ZtPP10ZXUVtrfRxYLxqCH2Hb6dM6oNlc0NoCVZhdEHQt+nmYLfZsKEHlDLWyl85OvvscTRhNjO0dUGqQR/6SIPReGJaPmbP/WDPAyM1acBxQZYX8WLxb/KVSsUbjeK+BVuS5YW0HING+oBAfRzxrpgNU5ZBzaBDz1o+LmPfR9vO96wEmfMr5wntqkIHh+Z786ganJpghw48n5ZAoPFpiD7fs/rLL7pN5/l9GOPsX7iOHuXL7IyrmmcsHP+JdR3aAwE79EYcdZS1w1VVQEQ/atPaL/R+rtVqAiYioDAvWfg8nk2x5Z33HsS+/JL/Ed/7hOc9bDZpUY2EaHFsMDRIfhbbLkWCt8JRfwKtx0yjNA5IEJDHGwpQNaAKM4E1m1P3e+yCtxr4MMPCB977CyPrgmydQHZu8baqE5NrmctjFZBHCIpuzM9xyCA6clEJafqD7G83Hszn4O55z52tneIvqeejFlMd1kdVdxz31l8O8MZA1EJvU8t1kIg+pCEb+g3eoPgKUMSzS1GBfWRyjqYbsOKpX3lm6zNL/PXfupP8v5TsN6mcYQgeBwtjhZL/yo5sYXC7UgRv8Jth6BYVVzMEx+WwmDQoRfoEChzDlNXjPDo9Cp2tscx4EffdR8/8MgJzroOs3uZql9gJIlX1UzyBMGlvC5tumHXHhJYzJDUMgif5kQXYLGzzckTx3nyXQ9TO+HyhZeJ/Zzj6yvUlcPlSfJWDCEk1ycKpkmDdq8juzt1uH3j77+LCEDnWbUuDattdzjRXeUHHjrOn/mgQXaHe6aEpJiGUgFm+V4VCrc7RfwKtx1CxC4HvKbSBrJF4aUiSp1mAkQLwYBx4CpWmprVxnEMeP8G/PDbTvGB+zbZ1Dm6e41aI9RNUhmxCBYRk7ZsjajGPHFcMWowajHRYLL4SRY+FMJiwerGGq+cf4nLl67xAx96O+964jEuv/Iy29cu0S1mxBBwzjEej9M8OxFEJFlU17/gpeXHbSAeRpXKGGRni0cby8rFF/i59z3GX/vkg8y3YXNzGMQYwTgMFRU2NaoeRlTdeNBC4TbD/uIv/uLfuvGHhcKtRDRAbEF9ssjEEMUkl6BAFIu1FYgh+Jhm5qpBjMWYChHBIkxWHIsgXN5ZcGVBGpRajQkRJAZMLqEXIGJQsURJ45WcxryJH4w1GsgjmkZNje9a2u1rzKa7rE3WeOSBDc6ePEOMyqVru0QfiYBzKbPUty34nqCKtXmMU46PLQUvq0ZytB5FQg4voVaVNVcxP/ciZ+KUn37f4/zp9zzI2ybC5kgJfoapFCxoruqzeRKDVcXEiD10mUah8N2hiF/htkPwEOd5qK0gWZSC7A9FgpSUocbRefBRiDgCht631HZGjWV07BgLmfDStZatzhCrMTEoxkhyfOapA4ok8SPN06uzUzQJn8mNnpMICtDvbBNCz4MPPUDjDM987vfZm7W878l7eeRtm2zNxrQq9G2L954QI+rzBANjMC5Zf68mfOnmrRM/p8qoD6zMd/nAiQn/i599B/cbYXH5eTZXDVfbi0g9IojFik0GYEjLxh5DRMy+S7lQuB0pRe6F2w7RHvw0yZzUYBq8qelzWzOAbhFZGRkseTJ7NskU6PuW0G1jVtbYZsznduHv/usv8dlzc/ZW7mPKCBGL1UAd5lg8gUgvlt6kTiZ1TFaMIrmbS2pYnWr+FGsUK5HF1lWMUU4fWyd2C2pneNvb3saDDzue/uqCbzzzHNN5j6nGRHFIXVGNR8y7OWoO9AvNwT6TXav71mYW34PJPkgWN83FIDG3hEu3VXTZfQZN7t2h/VrqXDM8b57ZR45xIohaRqGn2b3C9x0f8+/92Lv56L1wBjDscXV2ifFkk44RwoixCtXQxlQDmDleItamuGqhcLtSYn6F2w+x4FbArYId5bhSmvzd5LWehU+WWaFDlibUrqEZncTRsELH+9bg3/jhB3jHxjWmL/8xa2NB1eEZ0/cWDTAZWcQuwOzCOvSup7cBbz3BeNR4VHxq6iyBoIE+Rtz6BnZlg6udsk3N5d7xhae/Qntpyl/4+Iif/sgT3D92VNMOsxBqu8ps2qPGpiGucQZmgTiP1Z4qBGqNiOTnNJqtzgpkBKzkNQFGye0oYKSnsnMqO8XZKaZpofZQGdTUqJmgTMCM0wcKKyAtsgK0VzB1JC5m1KaGbsGpjZ6f/uS7+b5701B303XghU27Dr3FMcaSTPGs22gVaKuO3nmiHL7DTKHw3aCIX+G2I7X2qlCpUXFojrwZTVmgVtNtk8sTBufaUK8ngBFD6ANO56wz57EN4QcfP807791A9i4jvsNhsLYiqrBoW3zoQDsIi9zTU4kyDJ5N0x0GiyudZy7GF4uXil5qOlPTi+PTn/40/+S//R1+5D3wb//8O3no2JiTlSdcPc/xFZdimlbSVPoQURXqusGKsNjbw2rA5CUaklUV81cNEGIq3YiKKgQEj8lLCFFT4o4PuBCoeo8LEXpN9RRBMKvH0a09JqfOEl65wNmNVeqdS9zbKH/yo+/jA2fgaoTgwCssrk0x1QbzrY4qpnwXcnlGsOBNIEU5S7FD4fanxPwKdyCCEejaFiOK2AYnE6qN0+wuLN967gKqBucctU2uwC70yaVq07w6YurOchgEofXCohc+/8fn+NEfvI9Pvv8Y33z6BeiuEdptXOOw4xX6agW8BZ8sNKdAjDhjcAqVRuqYpizU2lFrS6UdJi4wmqrq0nR0R5QxUSYoYwiOqhfGPjLqesa+owkeEyOqlmgn6F7ATI7RdLCBoi8/x/cda/jI287yU+/f4Lld+Nxnv8jps2dYHVmuTls2V1YYVZPccG55qVCT5NcScVgMdXF7Fm5rivgV7jiSZAnRd7iqQkxDBFZqQ6+rvPDCy8wXLVEV09REZ+lCQGxFVdXEEHNN4OHEDzGIW6GqV5htX+Pzn/4KD933GH/hE2eJ1GxffYW93V00CtaMoJoQTY2GZMVZW4EaDAajYDVS5WbTlXY47TChTY23GdyiDqRJ8+vVYSKMQqSOkUoDjoAISK6TVDMibu2xtrKO3dvhvkqxV17iT73vUf7Ux+4lGvi7/+Bf8ezLL9NiaY6d5PSxMbM5rNZ5yDsQTUAloHgMShUFEx0iwxSIQuH2pIhf4Y5DUPAt1hisGxEjdD1MHKyMDKETzl04x147p7U1oZnQR8A4xtYS2y41vj6k+CmOfg7z1vPAPSfZ3XqFp5/6fe65/xE+/O4TPPbow1y9cAk/nbPYmVGLo65GhCgEHwlURBnleegGAxj1WHocHZYe0Q5D7hQzTFiXCqggQhMDtQZEUklCsIbgHN5WYCp861lbWWXnpec5W0O1c56f+9EP8d5HT/LQhuGffeoiX3n+AtOq5ovPv8ilecdjj51lpYL5trLWCNCBbYn0qTYTwXgL0YGxOTu2ULg9KeJXuOMQlLad4qoGxBL6lKcyqmHDwYkT67z0ykXO72xzDUsYraJBQA2NQGhbxLlDjxQSNVRugsPwyvPP8PATbyMaz6/9y1/lxOn7eNdDG3z/k/exao8xvXSZ3ctX6doWr6BVA/UEjQ2RNBYoJYCmLE2VkL4Sc7c1SZamGBCDqiAaGGmHMZHekgbR1o7WWYI1CErtW07Wynh+FbN7gQ++80F+8k/ey/qa4TPf2ObXPvVFWDvF+UXPLpZrrWevrXn8gTVOjIRKwEqHSgt4BMGpBV+DunxeN16ZQuH2oYhf4Y5DiPiwwNUNAUvwMHbgQirEXh9B31Q8c/EiL3dKXDuBxlQOMLIGCZ7oDj9PzyqsiUV8z/jUCV78+jdYHDvBPY+9g9/+1O8xnyoffewsDx1vuHdyHDPfZXdnhyDgxxPUjUFHIDVqLMEYeiN4Y/BG8GIIxhBNmnhhjOCI1BqotaPRDqMLehOYVZZQ18S6RitLlIDojM24Q739Au863XDvhuGn/ux7aCv48hb8t//6s+z0I651wrVoqDZP0lLzwovncKzxxH0TnIATj6HDErBYiBWEJrmLbRG/wu1NEb/CnYdEovQYUzHrHRqhcRAX0O5eYbQyYeX4Kn/8/Is8N/Xo2gm8pn6h46rCoPSih55M4BSaEPG+ZzdGVt72ODOvXN3a5fiZe/nW157h4nOXeeK+h/ihRys2j51le3eP1nfMo6fb24NqnI8WwKQAmxoIJg3x7a0lGIea1KLN5nnrdY7v9RpojUGdA2eSGJFKK0Z+h2OLS6zOL3Gm8fzlv/gjbIzh2Tn8w3/1R3z1lR1Wjt3HpZ2W04+8nVcubTHvYby6yje+/jSn7n2Q+zcsFkNFj0NTSmisUt8zk3NdDnn9CoXvBkX8CnccKhFMJGDAOqxLgiQWqrHB2I6t2PHAO9/O7z3zEq/MetROYDQhzGYAhCOIn1WliiC2omvGdD6CbaCaMO2VcT1hfnWLrQuXEbPJY4/WvOMdp3FuwtUrL7G7fYkREe1mjOrIytoIbyFOp+AjNCugFrU1sRphXE1lLc6k2GBUpV49xgJH1KE7eAv9Dqa9ykm/zZmwww+/+zF+5pMf58wqfHkbfuUzL/DUpT26eoOF1pjRGrsLxdar2GaCV4UanvraFzj7wBnuW50wwTK7ssVotAE0vHThKivHJlAMv8JtThG/wh2HSiQQSN07XfLCDc2WpQMTEGm4oqBrJ3nqmRew43X6RZcyGGOOpx1y9zYqSEz1f521OfkjxeTQNE1i7MZcu7rDhVcuInaTx+8f8eQ9IyYbm0wvv0QdFkxMT793ha2LLxHbGe7kceT4CdS4bFo5CJHQB9q+T+OSYkSxXN1a4OoRaiI6v4YJu5wZBU71W3DheX7mox/hB7/vSR5ch2f34Fd/7wU++/Rz7OqIlZP3MveKlwrRClGHYomiqYDdeK5cOs/bn3iEqvOcXj2O8Zada7ts3HuMa1PPqEmJOoXC7UoRv8Idh4oS0Tyw1iHkAe1C7tCieBwzEU5tjvjWhR22duZENXQhUo3HBN2fufdGiWLpScXuyzZiEtLECBUiNcGusNMbLuzMubC1jVbrnD3b8I7Nhvc+dj/V/Brzyy8Qdi9xz6l1NjZW2L52BX91C6oG6hHYGkyVyxws1tjc3Ltm0hxDp3NW2x1O6x6rl77J6qXn+JG33ce//xd/lg89fIKVBp6+Av/i917h8199iVnvGDUreK/0NpVEmGgxmmQsitLbSLCRa9eusntlm/c88hCbTmhnwmh1RG9BnaGWUuhQuL0pvT0LdxwxW36pz0iNZDvJoFg6AsoUmDPiPPCb5yP/71/6Xa65Y7wyhY17H2R3d/vGw37HKBaNdTYde5CAEc0lCTku1kVGo5q62yVefZ5TeoWPv/Msf+aH3s27NsdsA9d6+N0//Bq//Dt/wAtbLav3PkZYOcH5nRatV5PwGYMRMNEjoQPfYbxifcXZtQlrcYtJf5kPPnaSn/j4B3hgFa4p1AK//xL82u89zxe++TK9G7N2/BTRKBdmU+bra2Actje4KCgQbCC4BcKUDb9Hdf55/qOf/CR/+t2bPOCgAs5dm3LPsRWa3CC7ULhdKeJXuONIhd9J+lIj6v1G0cPXLnjEVlwMsGXh//GrT/OrT5/jYnOK5tT9LObTGw/7HRMlZ6coSOypialzi1g609CbOvULcxZsoO63Wd07xxnZ5fsf2OQ9D9/Dj73nQbZykzADfOMy/PqnvsQ3X76IGa2xNesI4vBARMFI6vFpBAecXl1njcAHHr2XT7zvOGfGsLMF1QqMK/ivPrPFU+e2+er5HXZ6g3UNzlhGVtBxw3kC0VokJJdxel1KNIqox7VTTtLTXHiRv/7nfpyffU+NtnCyAWLPmqmwRfwKtzFF/Ap3HMLQWjKkGJ8oAYPHEaiQ3CTbAIsetiv4vYvwn/z9X+KVY2/jmowx7vBOu9QLNIAqdVRcSDVwiqO1FZ11UNWwmIIJ2BXHhp9ity6y6eecboQfeM/jfOi993L/BGZA28JqA20Pr7wC17anLDrPtO9YeE+wBjcaUa9MGNWWR+81bDpoFKyHk1U6t0+/AP/sU3/Is1PP+Q6mbsJo7ThGHYudKZWPNKsTtkzEW1KfTs3l/moAh1HBhMiqBBbnn+W9Zyb8lR//ID/yAJwEqtAytjWm7CyF25gifoU7DtFh9lEAmYEJRLF0jPBUGGASgTYp4CLCy2P4P/3yN/nnL7dc0gYzqm887HeMSIdjhtGIiSMkjCAXrfdG6G2EsYD0ufwgQOuRVpnQsGmBrXM8dGzM+97+KB959xoPH4NxgDWBDZMGqUdgobAI0NnUYJrs4u1QAh5HRQSevgz/6jPf4g+++SKveMUfW2cbwFoYTajdKnSGMPWEtqdeqQnGE2yKkQKpX2hoMKGmblbZvXiOex88xt4LX+BDp4X/+M9/jCdsx/11tnwPmzFUKHwXKOJXuOOQmKfeomDnYD09ho6aQI0D6kWeStB1sFrzsoVPXYH/1T/4DbbXztC6Eb1UyYWZN3GjEZMtIZU00UHF5d+nmXpO0zNZWaRHxTEaRsTYENXiDUTjoQ7UKxURj5/OwFtsvY4JDWFvyoYsWNUWM99hEua8894TfOy9b+fJBx3H6lS0X9mcxJMklDnZSgQ8kYt7Wzz11fP80VfO861XOuZuHTZO0Y/HvDLbptpcIzoh7M2gA+o1DGPioqc2ihpPbwPJhJMkfr7BxBofDcEvMHXHqdGC/rk/5JNvP8Mv/vwnWG09ZxpHpSG5meXg7I3sfNb0/lz/0/Q1UbalwltLEb/CHYdESWoAUAU6G1ighNSEiwrDikK/67HiYAWuGPiGh//u95/j7//GZwhn38VefRzvLVQNzXiMn+8Sp9cY1xUeQ2casJNUQJinz4/9Npae3tZEbLLD1KK56lsHt6ikobPLTV4NkivZbRSsRmwMSOixoafSnlo9DZ4Kzzsee5hJbVmZjBg1FSrKol0wnc/Y6z1f+tZz9KZCqQhUBGqCVHhjCSIEkyzFfcFJ7d1ETXJrajq3YIQokkzk/HtRQwweQsfqSFh1HbpzgTUW/OgHnuTf+PApHtqb88iqI2JY+IBXoamSy3mxmLPS1BiNeQ5jOn7Kzk3t3My+77pQeEso4le44zgoflrB3EZaIjHLUY1Q9VBpBQZmEXZquAr8xtMv8/d+/dO8UD/Izvhe5joCcYhz0E2p2h0aZ+gwtGYMbj2VGmgPcY/V/jIGz8Ku4uWwrlNBo01TDDXN7TNEkoQqhkC32KMywsgZKisIgeg9vu9YqCGsnaA/5PML2dhTQcUQMUQZWrYIoDhRtF/QiKeiJ8y3sbHjsYfv50cePsHfeHKVE9pjJAUbFej6HlFlXDusxiSwy90n5eLGfAJF/ApvNYeP6hcKtztLy2Z/2862RbJc8rg5DRB6WAUeuvcM73rbo1jf4aKnsgIa0XaBhoh1qWg+23AH1puLxohGxSBYYzDGZPehEqJS1SPEOhY+srfo2Jv3LHxEbYWrRwfch4chvybRA4Nph695WQPW4FVpvSeIIYjhxfMX+a3f/0OemcH5zjBNNjFBFRM9NYFKIyYmcQWDiiWKSTHLo5x2ofAGKOJXuDMZNtHcZis77pZfnTGQnR5WUgKJA+7ZcLzviccYaY/pZlQxjeuh7wHFWkuIMR1aFbJ78GaZPSIa0wIkDeIDEYImGWomK7hmjG3GSNUg1QjbrGBHq9STtUOPY9onzalPIhiT+MmwFO97MAY1hmgsph7hxqt0Krx0bY9//Jt/zNNXWmbALjCdz1hpKkaVha5N102TPRswaSCv5NZ0Et6SDxSFwkGK+BXuXA5YfiavZbF7ZfHzPbTtGVUpgcQAa8A7H1zn9EpF1U+hnVLlDV/EYIwlhGFzzhbRUgCTZOzL7FEYLK+DxyYl2ohh1nrmfaQN0EbDQg3zKEx7mHYRPdKf9iB8WexIr/86kfd9stRcRTSOaCukGSGjFfx4g1/5wjf5neeu8EJOxnH1CIkBok8+TQVS+hBB9hfis62YhL9QeKs4yl9IoXB7MhhfWX8EuU6Skssy4n1HCC0INJL2+TFwj4F3P3iWTRuQxS617lsiYgfHKWlQ7CASS5m9PrPxcKRGpGmikqIaU7s2ATUmTW63DlM1mHqMG6/ixmtQT6Aep4bXhxzHtM+Nr+2ACEpyeyqCGks0lk5h7pUeS5xsctGs8alvXeLTzyzYA5yzLBYLmOXmAflyDVUpw7Po0sK87mQKhTedIn6FO5O8eWbJIuVSyjLmB0pdWVxlgIiJkYlRVnIB/Efe9TbOTAyu3aWKPQZFY0jjg6y9QRz2t+909APKe0hs7tgCkaCRGCNR0+BarKOPSheVLpKsvwBdNLTR0EaOLMBpeG629F7N+qsqQPE+1VAGcSy8Mo/Cwk0w9zzGV671/OsvPsMfX0zlF9KMDpxX+hpJWaf7Hx+G6zp8mCgU3hqK+BXuTCTnU+RtdnB7GmRZs22aGmqXiuF9xwhoABsi7z4jnGqg7udUocNoru8DjEuZMoMFSe7mAqAypOwfHiHF+QQlakRVUYWoSVwRi7EVGJcTRVI2ZhSL2gpx1RHFNwlcerU3/xxArIUQwXswBlwFpkot19yYfvUkW4z54ouX+PRXnuXFFoJtkNUN/HQOYg8crVD47lPEr3DHkZMIISVI5mo7wQ3Wn5gkVjZZfWikqgwm19CdsIaRwsfe8zjHaoF2yomNdQiB+XxO7wMikv94DjjtFEQMcqAw/kiIYK3FOpeWTaORFAikQnuMBeOWXxVD1KO6Xm+2XoWDSqVo36fuMHWzf7GrGoyj80rbRlg9QTve5Le/+DV+7+mX2AJe2etwmyeYdT1qk26GMLxHSeBTPtFRzr9QeH2K+BXuSOJg+eVsz8HqM0uTMCvjcAfIA5CUBlhTeOTkKqdWKmr1dLMpddPQ+2HUUbb6skW4dNodWXiut4b2bx+4lQ9/ndU0aNX1mnUosm23LDq/bqrvddmtB223/asMBmYLqs0T6HiDLW34zae+yWdf3EPWVrjUgV2pU4IL+bMD5JpGwZm6mISFt5wifoU7juW2nDdXIfX7TGswCU2yNYYhs6TfG4WayCodj5+seNvZE5i+pZ1NqasquR9J8TAZYmHD7r1UnqNbfktZkaEjzME43I33GmJkgwV6UJQOwyB8g5gN1y7/eijxWF7oA7eH1x09GiMLtfSTY3zu+Sv80h9+g0vApdyGrc9n7PKgJ/UBDSYXnZStqfDWUv6FFe5AUrbkcvvXZPVJUpBs46Wsyf0YXd7o1eCIjLXjBPDOR+5H2ykW8L2nygJ4vfAcmHzwpmR77uvovoQtlWeZsJOeaWgRNlih+fsjIbmXzNCWbbCbBdH9vpwHFO96VGFc469cYjbvMOtnmK2c5nefvcSvfKNnXsM1UjvREAKNDVgiI+uIwRBLtXvhu0ARv8Kdh5BS5rMwGIZ9el/4Yu5I4sUSDoggGCRCE1ICzDseOkZjYdxUtIsFdd2gg8RpTPVwuh/3W/anvPGc3iCvLivXC+C++AXMcnmEcOQzSK9jX/gGMUplI4pRMKqvssDGwNhEmO+CrdgJDj35MOdZ47/+7c/z1Wmy/AJgTI+EOagHBCMVff9qr71QeHMp4le4AzlolRxw0R34bc7RzF8H+ylbhgqNRKDjnnV48N6zWJNbjkFqNbY0zgaX40HeHMtlkLfrj7X/utJZp76fhpimTmjIpeM3ntN3TnrOA5afGli6jVPfz5tFb18QnQZktkMzrlhZWWN3Z8GOXaU/dh9fPL/Fr3z2eS7HVMpeiaJ+Dn2brnuVZvwe4fQLhe+IIn6FOxhNLciGnXTQwgMCeEO0bImxBqc9I+D7nnw37XxBPRqxaBepv+dw/AMHlpxh82a4PfdFb7DhBssrSaLJwrdcedySybePdgaDvWxRHSzidC4Hz2q5sit0+Go1UocF65WgMUI9pg8Vi9ExqtMP8Okvf43PfPFZrvg5ELB4aOeQvNW5vrFQeGsp4le4I9nfqm/64U3f3vDj9J1YKhFq4D0PGWR6kc0RxPmM6Go6U+NNqhG0dBjtQAK9sfRmmAN4VA4I93XSfL1Z9Gr3ODrpI4EcLHbPz3DT81x3IZMgjlyFdj2znas0x9fTZKegnHj4XZybOf7F577BVy/O2GOMH4/xDjA+Hd8n61Jy5qySxiot1wGLeLBG0/unOTnopjMsFG7izfgLLRRuK0RTZGppp4jktlzJqymAVahIy+Xvhf1NPHqhomYS4J3r8K7NiGy9CE1FLzXBjPGmQuipdErNHkJLMBXBNEcWv2VvzWzZDeIzSFD6SbLQhhjmEMeMuRbwsCR58Qhp0rzgQQIqkZjnEEbJnVmWS/cXhq63RLU0Y6HdOweyByby0isz3KknOS8P8nd/7Sm+geUqG7TjEb2m1mdLt2e20oMkF2mee0/IiUD7mizLDNflf0UAC6/D0f5CC4XblKG0gew2XJYKHJSMA/GqwcYYygqCpvl1EwmsAw8dG9GEKaIhKY+p0hw/iRh6rPYIIQ22lTcnVf9mi3RgeF2vtnJt3rd55HfKQZfqvlM4CcpSc77NShaaI2LTNaED7VLDarG0MuGF7cgV2eSffuarbGG5QiTY3G3nBt268fg3/eK6H93cl6ZQeDWO/hdaKNxxCCIGRamNxQEP3X8fEnyaTBDyBq0sp5szWJpl50WBkEcdoRaJNo2PigFii9LhRdkNyu9+4Rm+Ng1ENmkZodamAYsZOZBrejDv9KCVPtxTh6YFhcJ3QBG/QuFVcK6ibdtl260H7jlLRcQOEx5U9wXvQOwJbrZG7jaigLeCN4LisNGk4bXRIywQaWnWV7g867kWJvzap7/GNrAVLR2wCIsh6Le0ZdME+2Ek1Q0SJ+x367luFQrfniJ+hcINpG3TYHR/FNLpjZqJMzQoxpql5bffNWaw/F7FF3eXoQK9Fby1QIXTispHat9h4wyYE2vD1V7ZNSf41FMX+d2vdcwMzIFYaR5ou5/JajXiNGA1lXQs3bE5ljvEQMlN7O7yt6DwHVDEr1C4iWQ51K6GGKmB9TEcm4yoNFIt23tJqoEjuT5TB5lB++7e3TdKsvq8sZAtvypAHT2OBUhLR0RXNtnSdbbkBL/22a9zTeFyCOAavOyPUjpYzrFsLJCFT0Vzu7n03MJw6YvlV3htivgVCq+GCs45CIExMLFwam2FSj34Llt4AAbNAmiULIrxbta+9NJtGnKLWky01EGpYsDERYr5OYHVTWb1cfrVB/jqxZZPfbljC8scQ4/k5uT508TQvo2w7KijOfNUZT/JZSh7KNJXeD2K+BUKNyH43kPuWGKBsYX1cYUNPdq3eYvPESmxuXVa6n2Z+nzexeonQ3lJckMaUsNwqxFDKplQETSAbza42tfsmTX+h9/5PDsWLtHT5kZty3L9wZpWXVp9kWHt/3roQFMovB5F/AqFG1BATOriYo3BR1gFHjhzAhs7KmK648HG2HkyhFlu+nc5uaWckoorRdIyxqT2cFFhsoZ2kdaNcMfOcGEe+Ie/9ClgxB6Gq4s5EcfOzjRP3jCE6SwdPpc0DC3q8juyrP0rZX6F16OIX6HwKgzGnDVCZaAGJrWhlkhlks0HkhqKSWo2lvbbu9zq42DMLTUXSMXvkq+TQ3EQ0vUjDdJgLsIujud3en7/yjYBmOdS+8n6JvQRfMSurEIIJPtvaF9+wMucxa9QeD2K+BUKN6CkDTlmy6/KKfabKyMqidRusOzShh6w2QIcfl523xSwU5RINBFvoBdLpEG1AW+SdWg86JyOnrm1PHet49f/8BtMgVBPuNL2RBFmC5/MPAwxamp5hixdnxyM85XLX/gOKOJXKNxAsir2LYoU2YO1lRrRHiPZ6SYCuZ1YxOQi68JB16NKwJtAb4XeVHgZoTqC6CB4UnHDlGBa4mjEldDwheeu8MUrLZUxzKPgAUydFgbELu3r4T1aprwMll8RwMLrUMSvUHgVcl4hMQ88CsDaZITGoY0Z2dYY+momS2SZnXgX774C2Ag2KognmEhrhdY6esZEHYOpMaEH3QW2iDLDTBr86ASX2obf+vxTtIA2jlmEalSBM9BHjK2IuXHadfE+7urLXniDFPErFG5Ac9G0jxA12RYRz8rEoLHftzckJb0kAZRhFOBdn20hCi6C1VSsHkwgGIimQmUEOsLaEdJ3VEyp3JyoM4KFODpGV23yxW88z7PTHA/sIecf0fchWdsHLPTlR43hst/dl7/wHVLEr1B4FZSUkJgULm2zEwdoRA66NwVYWn0pweNu33uXll8uS1ATwaQxUTACGiqpMcFTsWDkWqJOWfQtrTR0do3tNvBbv/dZFgpVA30286qmIeh+zO+gjV0sv8IboYhfofAqDF5NkbzNaqQBjEZSvku2OZbtzA7aIdflH96VpMLzJFIHUlGyMzlgLKhGjHFYN6IPgm8DwUd6ccTxcX7vS99gy6dxRnsRpj7Nn4oxYjBYLBaXKwmT5b3/dHf39S+8PkX8CoVXoY9QGUB7+jBjTRp64OTGGtNrV3DBp4SN3HVkmKyu6q+bSnA3knp7Kr0VlAqJNcnv2QNTRHZZ9NtQOVpdYdquYN1pzOg4YlKV+q5Z5Vp1gl/53Eu8oNDXoBOIJpWfWBUqDBWCy+3FowawCzCL3BqtUPj2FPErFL4NyYjQXLOuxAAaA4bU+WVp5eV+k6nvZLE4lKG2D8h9T5OmRQwdIh2IJwoEagJjIiPAIUSiwFYn9OMTfPrL32AP2ElTAQmAsQYbU1yxiuCGri6iYGJad3nctfD6FPErFF6FoUfkIIEhW4MhAiaXNSigqQxiX/QOuvgKh0ER1I3opOKbL1/gq99aEIHtzuernFzRZrj2+dKnjyMpAam8D4XXo4hfoXAD10WpRFCxeGDRBfqgOXGD5Xabpg3sl7iXjfdoRDE0a8fY7pTx5ml+4/f+gBbYW/REYNEmt6Zkd3NqL5DcnJpLTw6+G4XCq1HEr1B4FUQGEUxF1R5D65UuChi33Fwll1tfL3xl4z0KEYN3Y6Zas3L6Pr78rRf58ksLVtbHeECczQ5Qj6jH5hbY6bFDS4JC4bUp/0oKhVdhX74M4OhJ9WZ9ENRUy3uIKkZ1afkpQ2PrIoCHJYphZ+GJzRrT6OjchF//zOcBmALG1tnqTgKIhvQeZMsvrXL9C69NEb9C4QbSWJzBfjCELH6LILTRgKmW1kXaapPrLQWksvCVvffQKAZ6RZtVtjpBx5t85YULPL+AmYLHpGQaSZm25C486ZKnd6S8AYXXo4hfofAq2KV+pc20Bzq19DiCuLTB5gzG/ZifLsWv5BoeBQFb0YujtyOm6pjLiM889SJBYA/wMmxdOeP2ug8fhcLrU8SvULgBQSEmS0IRrk3nGOCZ516mGq/TeRAxKS6oMdf4ZbmTFCMsm/AREECEZnWN7UWHWdmkPn6W3/r8U1zLUrfnI13cb26mweP7HkjNZAqF16OIX6HwKjiTpE8RbDXCA7Me+mjB1MuYkkGT9bd0u2W3Z+FoCETVZAHahsszz8WZ50svLJgB3o2JrgFbgbGItThrci1KofD6FPErFG4gGR6C5o20qtNYne1ZR49FbUp4Sckuud5MNdebDeJXBPDQaEpmCf0CrEGrhq0etmPF7z/9LaY58aWlImJyam6eEi+K73y5+oXXpYhfoXAT2ZWmaZSRAxbAtZ0ZairU5JhfdpFe5/YswvcmECH2xPle6p5TN4R6Qphs8tTzF7gA7CrM1LKIEH2AmLq6WAGb379C4bUo4lcovCqKScPIUWBvAVu7M9RWRE2VfULKCr054aVkGx4FQ25T1k5BI0EFRqvE0QbPXdnjj56NdAJBIJoRXgUNYdlk3MrwXhQK354ifoXCqxEDxqROLh64tg3b0wW2GqUuL8sI31BVViy/Nwsh0lSAeMQos7Yl2IoFjh1v+d0//jKLA7MzTFWnB2pMZe7DJ5ZC4TUo4lco3Igq2vcp11NSQ+WtXc9s3uKqEdHHAwKXNlqBNM6gCN+bgFIbxZlIXTtC19JHYaGG0eYJvv7COc7vwW6u8gObLv3g7pTi9iy8PkX8CoWbUCR2QKQn1ZVd65WpCuIEtMWQkiq81HRmRC8NUQyiHWiL6FGzDg+6T7OLFcVqwKnHaY/THqueNNdciOKI0hClzo8ZslBfa4XlQvJK9hSoRUkrSuqZmZbklfV+OFsFq2A0ne9SjN7gEhSNAWstrqogBLyx9OJYP30P263nhYs9F2fQpiZnxKGrjpLKTcqHkMLrUMSvULiJADXMd66wDcyBzz53ji0RbBOhvYrTOaDMzRq79jh7dh1vHCPdZRS3sHQ3HvQNIFipcaZJE+uiQQJUqoxFGdMzDjOaforrZkjfE9UCY2AV4gjFYDXmFTAEDH65ZFiyv/Z/rphYIToCHaE0QA1SgXFgLViTp1ukJgCiBhsNVTBUIWXCJsfkG1+K4oOiUjFd9LC2ScTQGsvF3V3c+jq//pnPMJkk8QsYpm0PxoJYtL+75ykWvjOK+BUKN6FAoG4q5sBV4FuXr2FW1pgu9rAji8EDEKVGzYhoGgIGqx2VLjBHtPyC7wm9T2EsMWAcQQ1diPTZ7WpEMPmP2DAYO8kCSpHIbLXlrwe/j5qaskXdX0ElJfNo6llqcylHsmIPWmcHGSyubKnqm2N1KXls1PDqRFAxeLF4sWzP57y8m86mA0zVZIvPINa9KedQuLMp4lco3ETazE0zQYELO3D+lUs0kwnT2ZzRaPTqYiAsa85ulIg3Qsol9aB96l9pLMEm9+pCJszsCotqnYWd4G0DxlCJp9I56E4uzLD0MqaXMV7GeMZ4meBlTJA0PDbq9Ut1jOqIqBZLj9Mplc6odI6LC0zs0jT26EmTfTVnWEIUIYjQG8EbWbpDD4uqQjxwFfNNMQLGsLU74xvfepmYX21Vj5NjuO/Buf3HFQrfhiJ+hcJNGIhCLxUGePbFGQsfMK4iKlibNtelxB3ILlzK4ZE2f6V2gjMpLocR1FgwFbgx1Gu0Zkxnx3hTo8ZgCTS0TLJgQZ47KBbEpcWrrerAGr4XRDqsLHAsqLSl0o5KO+rocTFgY8TEobA/GX7BgLdZ/G58SYdgmNNw8AOGIkQs8z7y7IvnWGTLTxGCKn3wNz2mUHg1ivgVCjciQsAyV0sPfP25lxivH2PRB6qqoe99SkF5i/ZYIeKsgvbE0BJCnyytGAGbBNA0qGkIebagEHDaUeuMOs6x6lPq/00rW2vDigdXCruldm09SIvQY+hx6qmip4qBKkSqqLjsGiWLn2avp6bPDkdAiArKcJ5xaVWrWKJxBFNz/soOF/tUiuKBXnNLtOyJLRReiyJ+hcINRDEscCxEOB/huQuXaNY2aH3E1TVd190wuT0xaOHNv3njhBjwoSWGFqMdxBb6OfQzCN0B4Upf0rcR1ZTBaeiRvMywtMcOSwJWAk4CTuJ1yxolGsWbZM3FIYkSyRmdglHBxBQbTINkNbloh/VmoMP/9j9lqJg0VaMec23e89XntuiAHghiMJVLHxQKhdehiF+hcAMRw0JqPPD0857Ley1tTJtuxBBCamKdBqjmjTnrXZQU7zqKQag57xGUximbjXK89jQyxfotxv0WVb+DDXMkelTBY+mloqOmV4OhW8brhlUfvE37KqujpsNKpDeGhalpTU1narzUBCoiFYoFNciBLjfLwbLSg/gjC+CBcOKycwuwtPy8adjzwlPPvsAii59HqOoGPWKyUeHuoIhfoXADAZhLyvR85txlZtGw2waiuDQ0IO/KQprgnlBUUqpKsvwOb/0pyb1nrGWltpwYC/c0PfeYXc6EK5zsL3Osu8pqv0Pj59gQ0GjotaYl1RwCuX7P31zHJxERTcuAmPQVo2CUaAzB1KgdE8yI3ozoTIOXhkC9FEDF5FeqmEH8sgztK9dhyddveZgsfhi8ODqpmEbHty5cZZHLUbyQu6we9bkLdwNF/Ap3JSJpc+26jr7vUVVUlRgjXYS+ghnwm5/7AqNjp+kwjFfXCVGpqiZZOzGiQywuTxWIKD4e0fIQoV30GFvT7mwRr13gf/Ozb+Ov/dT38+NvP8bklS9xj7/AKX+FzThlHHuMCkFrolkj2jVaL/RRk/yJIZhUItCpoY0QXEUnllmEaYBphFkUZgG6XmFyHMbHQMawEGJn6GREJzXzRSAsBTAlpRgNWPWI9kj0qT/nUVgWredYZb6mUYRoKrRewVcTXtlt+dZl2MlPp4AP4ajPXrgLKOJXuGuJMaYuIs6lcTjGYK1FDEwVntqCvWDZ7SHYhi4my8La1PNzsPMgZXumW8ufHBrFIKNVmnrE2MCm8ZwCvu8k/Nz3P8r//Kc/zonZeTamF5jsXWaln7FuhWOjMZNmTOVqxpM1xuNVqnqMczViKhCHikNNRTvv8K1HvaYMFdsg9RgZr8BkDbb2oIswXoXNE8jGcarxKqYeQTNKnV5INX2SigywUXExFdYfLd8zCd/wAeXg1YySLL/gkjU6jY4XLs2Wcb8IGFu2tcLrU/6VFO5KvPeIJCEzZv/PQFXpgV7g9586T+vGTKOBakwf9melLh2cN7n3BrfnEVBB1aABXPCsiWcFeFjgQxsNf+E9j/Af/8JP82/+6If58IMnORmmyJVz9BdfRK+cR7ev4vemLPYWdNOWbtbj20D0IGoRqRmvH8etbsJoFdwIoqBtQHcXsLWTXmjfQ9fCYobu7dLPZ0RVqtEoxzbza1VBchKMi2kNJRCHRXKLsjRTeP/jhGLosfS2obNjptHytefP0Q5JL+nyHfHjR+FuwP7iL/7i37rxh4XC3YC1FhEhhEAIYen23MNy2cB/81tPc1VW2WGMjjfQ3hNDh9GIE0BzEoyxYASRiMQ2bdamOsJny1Q053zHSrfN48cafvhd97MZO45LZIxyZm2FB+/d5P777+Gh+x/knpMn2KgNZrZF3L3C8ZURE4FR9DSxowk9dfRUsacKHj/dJS6mmL7DSaSyQl1bXF74BZV6XOgh9sm9q0PfT0VJ8/MGqTfDUgBLlBQTPCwyWH6D8A1uUEkt1QTBxIjpWyq/4KNP3s8xkxq8WXyeyHHEDyGFOxqJ8WAbhULh7kBVlxZf16U+nFVVAfAKwm9dgb/5X/4y8xNv4xUdE1eOw2IOzKlDx1iUqJaFjOltDVbAeEzYQWOPMeOUFXkoLM5OaBY7nJy9yJ96xwn++o8/wRntOS6evl3g7SqdS0k509yC7coebO/ATgd/+LWXmAZh3rZMZzOmiwXzrmfhPV5TWUAAetXUnUUlfR88oe/ZWJmkjEtXY0YTtJrQYpl5pYuCLOsLU13gfg/RSBTojSEs3ZZvHIMBVVQDKhBVUl9Rk1uXRWUSW9YWVzkbtvmbv/AJPnwcTgBNmFHZJrdaKxRenSJ+hbuSQfxUlb7vl3E/gHMR/u+//Sz/xa//Eeb+J9mSFWjWIPYY21N1M0ZEVC1zRnhbo86A8UjYgegxdoTq4cRP1DCq15Cty5ycv8Rf+P6H+bc+/iD3G9ikg75PJQ22Yi4wjxAUKpcsHw/skBJ2FhHmLUxbmHew8KkY/OLVXea+Z9q27M4X7M5mbO/tsbs3Zb5YsL62zvbujCvTBQtT0Ter9NWEvl5B6wltNMRc8mBUsLng3aoSJdLbSDi89mHEIEoSP5SgJOGTFLskBGo8x/wum9ML/Dt/4v38zLvXOAWM4wxnivgVXpsifoW7FhFZil9dp4GoXdfx1W3P//a//xS/cyngT7+dXbsKWoEV6jogs+0kftGykBG9rdEqi59/c8RvbCawdYmz/SX+0sffzZ///k3uN7CR6+pmsw7bNKlzGeBQYnsNnV+h6yP15iP01Mlqkv0uKF5yYohJ33f7FXp0ARZ9+vr1585xYWuPl6/ucn6v5cLcc6mDqZvgm3XmWhGoAYdEg1XBRsEqSfxcRzxCrZ8VBxqz+MU0t08cmCZ1uYlg1XMs7HJseoE/8cg6//6feQ/3A6u0CA4p4ld4DYr4Fe5AUq5hihL5tL1LKl6PJNemJc88jZHYd5imoRPhxWu7fP7ijP/0l/+AC+N7ma+eYZcROu+hdoxGQrdzlYk1qBo6arytkuUnAQnTJH6myTmQNydgiN6cFjOkdKiAUcPYjWl2t3iEbf7qj32An3hcOKmwIqC+B1cRNOWkmNDTmBbMIk0fVCCug4zS6CFJUxGGryGPAQrLIUL7qwPmCp0ky7EFrkzh6Rcv8wdff44vn7vGhdYSVs+wMKt0MiZS5c4vKdtTJdA7f2jxU8ku6aiYIGh2yaqYPLbIpCSb2LOqc9bmF3lypeVv/Vuf4Algkz5bfUX8Ct+e8q+jcMexFBJI27fsAXtEFrR5Q++yJuIV07YAbAPbx9b4r//4GS6vnGFntM4sBIgLGCmYnq6dY5qG1jo6Z4lOEdMjsUVij4jFmAYNgi4HH2jq+iKpiFyMYjXiYqCKITWK1oAQUYkE41nojHm3Re1nPHmfsNbDuOtBF4jt6fD0kryAtq7AroKsglkHtw71BKomJd6IzX/qw7giwaJUQAOM8iTAFWATOCGwDpwE7lP44Ar8z544yf/+J7+f//WPvIeff/wsD8WW7tx5wuVtTp46RpjN6WJHr1OCTpcz1g9DugYzgukwaqnCGKerGMb5I43HaMtoJOz2CxbHNnlqd4+XfW5y3Q/RyELh21PEr3BHsm9nDU49jxKXFo61+U59C6OakGNkn3l+zrfmwm61QmsaoqSJ6EY9RtPEgIikhBGRJGjDVHTNNXMY5MaZPjlZMZ1XkmZh6I05WIFZsiWCCTSVsjmpWclZjCbm16E9MbsC90UeoFnOFlTj0qDZgyufREpSSZaa1dSgusqrVqXOlrFTmHQ9a+0ex5jzeBX40UfP8vM/+C4+8fgD/NATj3B8fcSlb73IaGOCsxEjPcbG687qjaPLbjSiBqMOiRUSLaKKUY/4NvUUFdhVmDcjXriaervomzRTsHBnU8SvcEeSLC2y4ligwuKWg3ws+V9/WIATZirsAX/wpW+yPYspmeMoZE/jUgQGn+YwqIA8TFbycFmSQEF26YWekRVOHdukdimZNB+QeKCDTNbUjN70k8NggComF+vEWSwQuw6DslnDo8fgRz9wij/9kTO87/5VuPQMJ6qOkS6w4jG5BOLNYCnuN7ys4H2e9yf0vcdUFd98/gUECHqjU7lQuJkifoU7jqGxtBKy+FWgFeaA+BHBz7ehVrDgDZzfhW+e36HVFTTd61AM1t31PSaHzTh1wlQxRDGE/DWKyXVxJtXKtXNGEjl7YhOX5uPuPz5/M+jBm73NW01e3jEwskJdVQiGvu/wXUtslXetw0fuh0+8/Rjvvm+M2XkZ1+1Qiab6vDfxpNL7ma+nJKty+RTWQlSsq/nWiy/TAdHaN0l6C3cyRfwKdyARxaP4lBxBBbGBUOEiuAhiOhb9DowtO7FnCnzphSmXFw293STkxJjDocnyG/JMJNWlDT7XlMBhCGKXK1maFtSm/tLtjDE99544Ri03mEAydM4cHJn7BmYS16NJoiFi+3kqcNcAYpB6RFU1rNWOY86zATwEfOxh+PkfeoJmeg7XbWOJhPgmtJZemu7pdagoKnHpZq6cRUMEW4FxRCwXr25zNaQPMkebJ1i4GyjiV7gDUcATCdmaqkBriCaNm9MI0mMaCCi7Inyrg8898zI7cYUFK0Q5vOXH0u5LEiCaJ55rnviKSaN5Dlp9YtDcJsxFZRR7Nhzcf7KmkqFzCiCCmCFgOcQNDz7v0YQPAFUqEyF0aNfSLXpCEBSLQVm3SrW4yhodTzj4k+/e5LETIzaqCKF/E+3RpPqKEkWXwocoTVXRdx3YCuNqFn1krw2cu6p0RxwpVbg7KOJXuAOJOckli59W+5ZTJLfp8lSThimGuazwuW9d5ssvX2Eqq/Ru5WgxP8kxP8N1AmUGf2zMd0rzhJatu4ZhsVUMbFTKybFw30kYDS4+zQfOf7avbuMNXUePQp5PaASRCo9j7g1dTHWR+DlrOme1v8oGLfcBP/bBd3N6bUTfLrI4H57la80vIll9mmtEUnJRXVX08wVWHNbU7M16elPx4uVrzLORXSi8FkX8CncgmrM8I5GsHIP4KennviNS80ps6RC+fO4q52aBhUutvGJSrkOxNPKG3pdZ+Ey27NKfXZYtYWnhGFVcVOro2XTK8RpOGqgPyF1ySg7idqCx9vK1HTz+EWgX6RhVTTWuMY1BDai4ZEvXhpEuGLMDcY8ffOdZTqyOc2KMOZrplR87XJplmUgy2wHFGoG2RzCp+L0LeNNwcXdexK/wHXH4v/BC4TZmXx5Mao1FtrhimsPX+kBHjZrT/PFux+e/eY6uWce7GqqjW06qkZgnikvqg4LFYMUixoBzyUXY1LCYYkSpDbTnzrFROZp2j5/4oQ8xAvp5/kuta2bz9I0gaYxQTgBJVlG2Jt+MP+vRBMQuu8D0y24wkuJsmvup9XM2TcUE+NiH3kc/nYMPR5Xe5UtKN/M3Roc3kb2dHcyowdmK3iuMVuhNxbmtKdMIXa6vFDk4GinFXw9+X7h7eRP+SgqF24vB9jE5szJmIyutVBsm9YQ5NTPgs199ma3Y4JsVPJFuNr0+kPYGSQZYdh0yDEhPrb+W1l8MMKphPoWmQn2H+I5T95xmdukCj505zpmJY0Sy/NDh/G3y3C6faRCE4fbBF3tYBpesJUiyoQ+ulJiTrEv1ycW8ApzZgPuObWJ9l4b9HhIhXaOhUH3f6ktLRTECtXXEkBubuhEzL1zcW7Dbl4SXwutTxK9wxyEINtlZKJJ6Ww4GkcmtzsyEbRzPdfA7X3yeHR2joxVMo+B3j9ShZKm+WQAl30wimBJgCAHb1NDPkUpwBGy/4J6NNXT3Gu999H7uWZXUPXPQNUCMzWeWI3vDpPMDYnPkGjcBjKRpDweklUFiJWWlQk1Qhw9JoO9bhSfuP0vdL7DZ6j0swzVTcrzPHBBAItakEozQh/RWjVeZBnj56g5bbXF7Fl6fIn6FO45kNSTxA5L1YsBbwESCMSxw7Cn8zh9d4sVrkc6t0YuhmQhUw1jUI5CNLyUphlEwMTWlNgDR46wkI6qfs1IbXOiYXXmFB09s8K4Hz3I8W30masrfAYxLo4QSgyoeUMcjW31LWSXIfsnCwaNGFYIXoMFUK8SQrvRx4B1nj9N0e1g92vU72CFH0w+uXyjO2GT5qaGerOGl4vJ0wfZi/2oUCt+OIn6FOxCBaBFN5QoxC6C3nmAC3ggLYLuD3/yDZ3BrD6D1On3XYWSGqRaIZLU5CgeK0QerL61krWnosutzj9XGUseOSy88y4effAf3HatpUpFGEhIfk4jmOXr7ApgsIRhaxww/P4oAKhGFlC60bAzglhuG0EUD0mCrNUQqkhTCY8fHrPo9nB7t+h0U21TicL3waYwp81QFxGFcA9WIeRSu7nXF8iu8LkX8CnceKhAdxNTpQ3PRQyAQTMRj2Gnhmy/BCxcXVKv3oG4FgqddXMXIjOTwOwJZ+K63nFJGp2gqgu8Wc+rKJJHxLRWejcbxgXfdw7oBoUN8TK3NdD+Fcd+qeTXL701ABvnzGHosMbWE02SFqkYwFaqOiMOa9CHDAQ+tO9a1xR3B8tsPtx64hgeEDyCGSOgDzjowlj4opmrANVze2n4zr0bhDqWIX+EOJPfzzFZQhCR8hCyClvOXW373s1+mnpxmdyF4dTAZ4efXcNIeTfy+jdGVNvVktxlroW/xfctkdcx0+xpOAz/0wfdzz/Gc5OLbVJBvbTpm3tH9deem+9af5OkRR5bCdEzBY+lw2lJpS6UdFo+oUtUjupCeWSSd70jhvjVYl/5NcXvKYMgur+cBoddIDCEJrxjCvE3lKa7i/KXLR3z9hbuBIn6FO5OcbJJaWoPDIFR4JiwQnr+yw6efeoq1U+tsbV+EOGd90kAfmJg6WTmpC+cbXin5ZD8zMW3Xst/JRQzGWPCBuFhwcjImXLvCar/gT7zvNBtxmOKQM0YryX+puajdKxZJ9XQMhfIp+5KllXl4sjyDpmnqRiNW09glowFBsc7hQ1jKkQNqgc0J1NYDEZXUh/QNr9zmDbWISsocjZqDtw4TK1Qq+qA4a9L1ni8QtfR2wsXd4vYsvD5F/Ap3HCpKsD1qPRXK2IPdU0ZU9Di+ekn5B//yX1Hdu8FOPM/6sRnOv0LcuszJ+hQyGyEdaVLst1kmhG+7JIbUYUYCSExT043gjaWXCk+FSIWtRpxeXWN27jyT3R0+8fCDfN86PNbAGjCpV8CYFCgcWagEA6y6hgqLxaWBfqZK1qERRDUP6j2C7aMGkREiY0RGGNNgxCHGIEYwRtnb26JpHG3ssQb2fI8BGoFjJ1dzIb479BJtMLHGKLiouF6wnaPqxlg/ITCmWlmD2DOSiMVSMyJOTnOpdUxD7qma8d5fNw2jUCiT3At3HFEigUjvW1wnuFhhbY3W8IWXW371i0/xy09/haujMdv1hNY0EBtcrKh9qmFbmEDYDz7dxGsVSvc2Mqs6okDTV9S+ogoVqMMbgzeKjGBv5yLH6sgZ6XmbE37hoz/IT7x7lYkHZ0Be4/nfSobyEM2fjo3G7Abed6h2vsdWI3b6DlON2Y09mJoW5f/49/6//O7iDJfrUzce+jtCFCTEA7G/m/HeY63FGEOMkRACIkJd1zyi1/gv/9KHecx21HUNpDFQQ4H7cLtwd1PEr3DHEUTT+Fr1uA5G1HkXhy88v8W/+KM/4muzPbabhj1X05saiQ4XHI03WFWUDpVvH7d6rc3T28jMdCDQ9I4qpGODpTeG3kZiA9u7l1irIveMLG9fGfMn3vkE7zt7iumlK5w4eyJnOX73eXXxG2oJh6zL1GZtaz5nNF5jhtIjLDTwX/3Sb/Cvn7nGnlu78dDfEQp0GvYTV18F7z3GmKX4ee8REZxznI0z/l//9s/wUBUYj8fAfrcXVSWEgLVH6z9a+N6niF/hjiMIpM6UwgiwEXSePITbAZ65ukV13yZ7wDxX9A2xwaG84PXiZq/1u8Dw/Pl4MZ8D0BvoTJoa3wOrpPjeOOzygB0z0T5nkVSpmPwWoJLSXZL45QzVg+IHYFK5xV7bUTWT5WsG+MNnX8Rs3kOfs0DfKEFgIa/dpSWEgDEpahNjJObSB2stm7HnyZFw2iVLkAPid+NjC3cvRfwKdxxehO3Q42zFKmB6aHfmjCdjdJQ21mtZ+Lr8mOoG8XOvI3CvRWr4lR5fZ/FzMYlKZ6EFtlkQiVQYLB0SdlnxkQ3jUplGtYHKUWYKHh7NLc0YxG9ooH0wjpgGFdKHiNiKDuhiaji9UDCHvXj5+n2nbQZkv8oRzd+PgDWNTHJz8kEcnUtirEeJhxbuGIr4Fe44vAgt0KNMECoPLDxm5MDAIvR0laFDCbmQu0KpgUbBxtQ2+rXk77U20CgQbepM6SKp9+RgNdlkBi5QZnQs6KixrGCpUWzoITio1tAjDdQ9PIP4acr5XFp/g9GXVGYYL28IqrQh0seIrSsqAYnx0P09NVt9r2X5DX0/b0RRjEItdnkP71PB/SB+vM77V7g7KOJXuOMIIvRAT2QFg1WgC2ANiDKf7+JWR3hiHnqkVCiVat71Hdjxa4rfaxEFfH5oHYYyvFRtiEniFwwsiOyGObUdUVPjEHzf0pgKZwbn63efJH6pRCNZfinh9EC+Sw4IJres7z04hwKLrqepK+ph3u5hOUpipmQ3p913c4rIdW7S14rZFu4OivgV7jiiwLRvEUllAaJKv7OLMwaZjMBo6vciaUq4oLihliySHJ92/JoJF69lOMQcs0KhjmkRYxqiKxFMZBE7tKnoESwjQOhCJPaRtZHDkvqA3gpUNIufYgYbeNlgJWfC+ADWgQi+63CjGgRmsw5jLM3o8PFK0ew3fi0BPPi7nMwE+4LbhgW2dhhjlrHAgb7vr7MCC3cnRfwKdxypsDwVY+9bLMM/8zRmIRCXGY3DBHU7BI9wBDdMT3jjDAk3DDE/sgBCmsCQlSSIEDg4oihh8iQHcyTT6fCoKJG4FD+BPIV+6NSdbx/kwLcq6Rq8ltvytbAKdrCYD0MWw1uVLVv43qCIX+EOJKbG1MNYneVGLVn8UreVFO1LWYuSLQ6ThShmC+4wDJmPeiCRJjWoziOIGGKAApLGLi01Oh/DSDqzW0ESvxT1S1P18ny9QQAZRPAAB69VHiF1FO2yaezioUlv+Y0nWSjsU8SvcMeRCrL7LDT7iRlpOzVpTp2a3ErretEhx7ecgDlkf8og0GbpciiWSDWUCgzuVR0aV9phu88typanecssF5WILovak+0nmm3ApfX3Gkgk4HPU8I0zJLwc7tHJkq9w141FKhRupIhf4Y5DCKB9st+GnpfZ0hvyF7s+7HfjlJwun786hVXnEe1vPPR3hoBHiQfCUann50GzcsiezJYUZj+DUgyYJM63hoiKX4pfUuIc/cvtRvUGY28fBQlo7FJ88xBEgf5AucUbxWCoaTA6BAILhZsp4le440gF2TloJElEUgQwCY0g+D4sXXgqeWp5tjisBtaMzwJ6CGRQOLLVeUDgBrMmZgtwUMRlVgkgFqRODZ5vCcltPMh3+sCQ2r69GvsimF6LECB2hw7aRUnNAA73aBAMFQ1Gb9X1K3wvUMSvcMch7NfV6SBq2Q2ZJCg1gDY5g1FJk96jQEAwRBo9EDN8wwziSyqvwBAxCC5bT5Jq/9D9DFDJZRCigEVp0mSDW0JEpF9afslCtnnSQ7rHQY/i/s0UzxQUon/tlNjXYOn2fHXT8nURFaxUyLcR60KBIn6FOxVR2c86JNWtsbRhcmnDsMgqaIb6NoPFHX7z1Jg2fxSsw4vFH0hfyTbgMsEGgYAnEghZJisq7GGf/4gIAa4TP7sUv3y1lq8l3X8gJ/NAjmUeDikJL4XvAkX8CncgadvU7EKLSwfcvg0jIWD0xmbNEIyiWIyMDm16GAVi7pFiLV6EIYI2cNAZylI2kvhZoMZiD/n8R0WIudAuid9guarsF1/cuGmkM02vYjkP8JAYwA35NochX9hblTBU+N6giF/hDmVfAG+0AgTNWnegZVfeKNN9Jce3Dis+6fhkt+swJeFGlnuzJMkY/i9L1+wND/iuMRRfDJcnqcn+7VdhebLpFaT46uGQ/c8ih6YIX+H1KOJXKBQKhbuOw/smCoVCoVD4HqWIX6FQKBTuOor4FQqFQuGuo4hfoVAoFO46ivgVCoVC4a6jiF+hUCgU7jqK+BUKhTuOYVJ7CGE5yX1Yesi2a4U7iyJ+hULhjkREMMZcN8V9+HmhUMSvUCjcsQzW3kGK5VegiF+hULgTiTES481TOWKMRfwKUNqbFQqFO5UbLb6DFAEsFMuvUCjccbyW8BUKFPErFAp3OiEEuq6j7/sbf1W4i3kdt+drDSZ5jYcd+O1Nj3/NGWXD71772N8RsvzfdVx/5Jt/v8+bcA6FQuEIHBiidNOf400/uO7PWUMEhBgjfd8TQsAYQ1XXuLrKcxz3Bwzfbbzu6/52W+PrPjDx7R4+8NqHeb1Hfyf3eO1n4LXETwRi8MymU1bX1ljMZowmkzSk0xiIgb5tsdZi6gqAfjYFoJpMbhAf2T8XHW4L860txpubIEJsW0wzYjGbMlqZ5CnbEYag9eDGiBGNMbk1qvyPOORzMtmQDTF/byFGvPeoajpXl851MV9QVTXWpcfECG3X4aoK54ZzfNVLUygU3mLavmVU1/i+59rly2nqvcLu9hZ92+F9z7lz57h05TI+etqu4/LVy1y5epW27VhM51w4d4HxeMz/n733jresKu//32v3fdo9957bps/Qho40gzSVIooKaqKiqD9N1MQeY8nXJIolibETK9HYG4rYARVrbFEBAZEywAxMu/2ce+rue/3+WHufe+YyQ8dC7mdea+4p++yyyvOspy806szPL+AHAac++tFc9PGP95kfiD3JU0az/tTZohCCJEmIogjTNO8SzpEkefnmfUDbk30sP25fMkpeJlETgiiOQUos00QCvV4PKSWlYpEwCHFsCwkEQUi326VcLmOaBmkq73L+Pa9/14vfpTzj8vcZ8uN0Q9l1W60WQ0NDAHS7XYrFImnGP/bJ/JI4QqYJpmXRaTZ561vfSrvdojpUASSB7zM0VEHXNFrNJkkcUy6X0HWdru/hxSEyK8iZF+bUJAgpEFLgOC69Xo/x8XEazSa6aaGbBp7v49gWreYimgBd1zEMA8Mw+gMexzGO49Dr9SgUCqxfv56xsTEcx2F8fJy169YxunrtEsPsP1RK/rSaYUDG9Hqeh2maWLaBlLC42GK4qp5zBStYwR8BAuI45Oc//SlveeObaNYbzE5N4VoWzUYDQ9cxTQPNNEhkQpTERGmM0DRMw8TWbXqdHqVyCc/3iWKl+jzx5JP44sVfojo2tsT8Boj9nxPz2xvSNCUIAlzX7X+2tydZ/tnge7mX73PkV43TBF1oKpYy+0xm30sUrSeTWXKaK6UkTVOSJMGyrexXS79d/nrwCZc/7R7v82sNfOQHAY5j0+l0KJVKpGlKp9OhUqn0tQD7ZH5CgO/1cByH27Zs4aQTT6TdbjExPsbCwgKeH1OtuNi2Ra/TQQCVSpk0TakvtrCLNqnImZ5QjI8l5tft9jAMg5GREXbOzODYDmEckUqJ0KDgOMg02cM1WUqZZWxQgp0QUCwW+4wwCALWrl3LwQcfzPBIjcMOO5xHPepEDjvsMCrDwyCWpEOv28O0bISukaQSXdfQNNWPnhfiOtaf/AJYwQoeruj0Omia4Ne//F+ees45jFSGWFxYYPOBBzI3M4NtWQhNEEYhXuAhBViujdA0kjgh9mOEFBSKBTzfx3Zc2u02Rx39CL7+jW/iVip/1syv3W5TKBQQQhAEAUKIPsPzfR/Htpe4UYbBJ0r35u26NwXdnl/3JaswDHFsh1RmzNZxWWwuUh2qsjA/T3VoCJmkRHGEbdsYpomUUt2b49zl3DB4faEE84xn7A19wXUfx/ihYn6DCMMQM7uPu5X8kClxHCGl5KYbb+Sxj3kMMk0YHxuj3W4xOjpKr9vB83qQSoQAmTEqYWhITSAz5idy5idBoJhfEie4hQLFUomtd9zBmrXrCKIQt1REIImCgDgKCcOwn57IMAx0XUcIgWVZxHFMt9vF8zwcx6FUKuF5HvPzDcbHRvF6HoVikWOPPY6znvB4Tjn10WzatAmnVAIhCPyAVAhsR+1C4kSi69nkl3/6C2AFK3i4Qgpl9vj+967kqeecS6VYZLGxyPpVq5ifm2X16tUkSUyaJqAJpJDEaUoYRyRRTMktYRkWmq7R7fUolSvMzc2x+ZCD+c53v4ddKv1ZMz9YUn3GcdzXkPVxf25/D0Yp73KKQSYTxRGmYZLKtM8IZ+dmGR8bx/c8LMNENwxkogQY3TSRSUIUx1iOjdxLDCb921aZeQY+uM/wfQ8n2wzEcdzvm8EQF/2CCy54c//dADqdNm6hgG4Y3HHHHfzgBz9gcXGRxcVFEALf92g2F0nTlOHqMLXaKI7rYJgmpqUmnWmYmIbR/2v1X5uYpgVCEMYRURQjhWB+QenlFxuLxFFMFEWkaYqm6ZimhWmaaJoOCObm5rBth1KpjG3bOI6D67oYhokmBN12G9dxsUyT22+/jcsvu5wffP/71BcXKZWKrF69BsM0MEydKE5IUolmaP2+XloWK1jBCv7QSJMEXddJkoRSocjhhx7GqokJ4iTG63k0m01anRZxEmNaFkLXieMITdeolIfotTtEUUwUR3ieh24YtNttRsfGeP7zX4Bumnuu8v5iz5nfnzZElqNUSpnRRa3PCJESTWRi1L7a3p6wzxckQkgE+25REKBrgjSOMQ0dTRPEYYDrOsquF4Voho7QBJqAOFTCjEwTSFN0IRBS7rMh7iEQIRcN5V4aEsNSAk0UqfEHMAyjL/XB3Ti8BAOc87Zbb+XKK7/HHdu2sWP7dpApt27ZQq/XpbnYoNVqIoSgUChgmWo3oJvZLiST9vqSnxQIBFEU0+50sAsuRxx1FEkqqTcXsSxLifFSomtLO4AwDGm1WiwuLtLp9LBtE8MwKBQKOI5DGIZ9kXpkqIqMEzrtNn7mlCN0nVSCbpm4hSJ/8+IXcdYTnsBhRxyBBMIkRdMV8+t2OlRLJTUIK1jBCv7g8Dxlz4ecYEtIU+689VYWFua54vLLuf766/jtb69hYWEewzKxHUfZcoCC7eL1fCzbIowiLNuhXq9z9LHH8N3vXamc5f6MJb9Op4Npmti2jRCCOI6VhKXr6Jp+zxJTTtv2dpyQINI9v1zOKzMGkmbXlVJi2rbS2MUxbqFI1OthWhYYBkSRYmi6TuL76I6z7ITLsLf7GsQ+bJ6QfSeUaa1YLEKuCnac/r3erc0vj40xDANNgGGa/TvqNJv4Xo/bbr2VX/3qf/nV//6Sa6+9lqmpKSzLZGRkmDCLqRHkDG9P5mc7Lu1uh8MOP5x3vuc9WLaDbhoUyiVkmmLpep/5RFFEt9ulXq8zNzdHu93m5z//Ob/97W+57rrrCMOQkZERXNfF8zx6nS4j5TJxEIIQWI5DnCR0PI9UglMskABnP+mJPPs5z+W4Rz4St1AgyoyxAnBNc4X5rWAFfyQIIQjDkE67zVC5TKNepzY8jOjTIcmdW7bw1Usv5evf+Bpbt23DcRyEgE67zdjIKPNzC5QrZWXiCCMajQZ/8agT+OrXvk6xWv2zZn6e5/U3B9deey1btmxB0zRKpRJCQhqGd+VXA48k5d2FsaXIAeYn2ZP5SaBQKBDHMX4Q4Ac+5XKZs84+mySKlOep0Lj8G9+gXq+zZs0awjBEQwlIi4uLmKa5dMq9dLViS3u5w0ygHXT4Wf5zKQRhKplfqHPmmWeyfv36vlcsGT8xDGPfzE8IQbPZZGhoiG63i22ZNJtNaqM19YCGgd/tKOlQE/zoyiu58ML38fOf/QzTNLAzb54+8xtweJEIhNBYaNR51Ekncdn3v59fFAREYYhSboLIQxgGQx2ShCAIaDQa/PSnP+WLX/wiP//5z4njmKGhIWzDIPUDgl4PTTcolktoukHP94hTieU4dH2PVrfLsccdxytf/Wqe+KQnI3QNz/cpOi4a8q7utStYwQr+IBBC0KjXGR4eAUAmypMTAUGnSxQGlIardBsN3vve9/DZz36WxcUGlUoFARhCY/euKSYmJ3Bcl063R6vV4pRHn8rFX/ryn73NLwxDbNtmx44dvOMd7+DLX/4yvu9TLBbxul21eR84XqC4RP6ZEEogGfxsCRIpkuzv4KcZBMRJApnNEeDoY4/h8ssvJ4oi3FKJq37xS171qldx1VXXs2HDKnrdLoEfUCmXaTQaFIvFPn296/VRn+YX7I/N0t/cIjn4WQ4pNDTLQWg6b3vb23j2s59NHMd9KTBnfvtUrKYSypUhUgluoYhumNRqNZAoQ2aa4hRLhEEACE4++WQ++MEPcdDmzX13VgFoQkPTNLTc+SUrMwJgWRZpmpIGAQhBHCtp0bQsNMNEGKaK1cs7QgJCQxgmTqHI8EiNZzz7fL72zW9x4X++n4nJVezcNYXtuFSHqzTaHUrlIvV6nU6njRAC0zQIw4A0TZkcH+fqq6/mJX/3t3zrm9/AQBD6HgKQqSSKIjVJhAqWzV8PGk1XsIIVPARIYbg60l/3Qsvi2CTYxQKFchmShGK1yhvf8lYOO/xwfD/Atm18zyeOEmq1Gpqm0Wq1lMehYdDrKS/zP3fkqs5169ZhZPbMiYkJ2u02Q9UhvECFohmGDsjMH0PHMHRs28IyDeWHYWbNMLCzZpkG5WKJ+XoL13aYHJ9QUpvrUiwUEAhcx6E6NITjOH1BxMhUsCQJo2Nj3HTTTdRqZTzPw3YcRkdHabVaigmlEtd1KZdKeN0eteER9Nw8lkpswyAKfEoFl3azyVC5TMFVkr1p6NRqIwSBTxD4FMtFiqUCmi7QdIFhGvi+x9TUFLVaDdu2+1JfvV7vv94H88t2QwOf5KbO/PsojjNJTZ3CdFwmJiY44YRH4RYUh813FXcrQe0RYLrUlnZl+2hCwymWIJWkccK55z6Fj33sv3n2s5/NTbdsod3tMDkxSgqMjI5QKBXoeT2arSZSKulRACPVIdqLTf79bW/jsm9/m9HqCPWFeXRNMe0cufGdbOKtYAUreKiwt/Wl7Dhq+Qs00wTDBE0jiSKe/ORzqFQq9Do9bGtPF/eHK9I0xfM8fN/H9312795NGIZIKdl///3YNbWLnt+jNlbDdR3m5+fwfA8plUpTSbeq7fFaQhgEHLhxPY7t4Hs+SZLS6/SYn1/AcVzmZheYnp5heqZBz0+Jk5TFekNtUnSDmbk5qsMjhFHM3PwiMzOzLCzUMS2bcrmC6xYIg5A0kYyM1FhsLBKFMZXyEGtWrcEyTFzHRdM0bMsiDMMscN4mTVO2b9/OULVKtVplYWGBVrtNqVzGLRTo9rqEYcjw8DBhGEImaAHY9tLc2Ku3Z94V+RxcmorqlQDiOOl7z8g0RdN1dNMi8AOuvPJK0jhCF0ri658hk/xyFWYQhaxavZpnPec5aKZBKlOEpmfhEPmV9t5CP1AeW0Kj025TGqqyfuNGasMjTE/t5vrrrqNYKhDFEUJTzxMnimFblk2lUsb3fALfp1wqceutt7Fz+3ZOPukk1q1VAfJ5iEXO7JIkQWaZYlawghU8NMgUcooWLxEf5MCmU9ERMlrgs/mgg/jSl75EfaFOoVDoh13phk6cJJimhe/7TK6a5PznPCdLcjFAm/qnVi8GLvsniTy0wTRNSqUSa9euZcOGDQDMzEyza9dOgjBh/bq1tNttxRxKJfbbbz/m5+aVzSs710Av9F/Hacr4+AS33LyFbtejUq5QKBbp9nqM1EY59rjjOeHEEznzzDN46tOewlOe+jQeccyxBEFIo95g06b9KJRK7L//AaxetYpSuUIYRHieT73ewLYcojBGCA2BwPcCRkfHEAhuvv12hkrlLKxNBdJLCWEUURkaops50pTKZbwgoNPtYdsOxXKJdRs28JjHnMaZj3s8j33saZxwwgmMjY31abg2INTs1eYnEf0gR6E+2GMy5O6uCEEUBiAlpmUh45ibb76ZJ579eOLAw9R1tOzhSJVbrhAaCA0podXtcPRxx/LtK67AcFSQu2EoLyxtSQTcK3rdLoVSCYBOq4WmaRRKJbxul62338pfPvXJzM/OUK1W6XS6/XAIXTfwPB/HcYmiiHpjkcnJVXi+z/T0NC972ct493/+Z6aGjfuBkaZpZgH2CZZlrag+V7CChwhiMMI6IzwDWREzCgVxFGEaBn63i1Mo8JhHncjNN95IqVBAad9UJhE/CHALRRqNBkcd/Qguv+I7mbfhEtn/c7P5dToddF3v06ZBbNu2lS233MRnP/sZbr31VrZt3Uq5WKK+sECpUMTQ9QEfjKW/DDDBIIqZXDXJ72+6kQ3rN7Bu/XqOfMRRHHPssTzpnCfjhwFuoQC6huMqCS3vsW6vSxLFCMBxHCzLpj43x69/9Suu/s1VXHP11fzmV7+GVKVC83o9dKERxzHDQ1WklHR7HXRdI5USy7YIwpAwiqiODDM9M4NhmWzYtJFVq1dz0skn88xnnceadevwej3cQpEgiLFt5d2Zm62CIMDJPIKllPfM/NgHA9RElgJNSowsrKExP0+71eLMM07D77QwNB1d07LJrJgfd8P8goz55ZLf3apLgSSOAbKYnUGkfORDF3LBm/6FsbExFhuL2JYSl03DIgojms0mk+OTJEnC4mKTkZEazWaTVROT/Ovb387ZT3sqCOUim6Zp37MqCJRdYYX5rWAFDw32YH4oApR/1GdSMiWJIyzdUF7ZccITn/AEbrnpJpIowjCUmeLhyvxySSYPcK/X6/i+3w/+X2jMMT42hu97vP3tb+dXv/xfrr/uOhoLDfbfbxO9dueuDJBc4BBousnu6SkmJ1dxwZvfzFOf+lQKNeV81GkuUhquog5XQpAEFuoLjIzUYMCe1u100DQNU1dSKkKQBiE33fB7PvmJT/C1S7/K1OwUj37UKUzt3o3X89AERHGIyNK4FLMUdWEcIYEoiTn+hL/g9f/4j5x46inZlVTgfbfXo1AoksYSx3FJs2B6TdP6goyKHdf2ZfPbE/mOa/l0CKO4L0LKNEU3DBAi86rJwhuW/YZ9fJZD3r3AtwQhVCqjNO0zQQCkJE1invu857L/QQfQ7LQolksYlkGz1aLT7WDbFtWhIZqLDRzLxjZMuq0WFbdIc6HOZz/1acIsMNJZFo8icya+ghWs4A+GnPHl9EECRpYoA01jsdnEMJQUNGirf7gijuN+5hIhBLVara/eS5GMjY3T9XskSN7ylrdyxXe/wyte+UqiBDzfV305sKHo092MOCdJysT4Kv7fG/6Jc899CmEU05pfACkpVYdpLTbp9noEYdT3B9FMEy8MCJOYhcVFoiQhIXOYzExUcRix2Gxx2DHH8M53vZuPfuy/OfEvTuJ3N/yeW++8nSAMcYslTMtG03QMyyJJJakETTdodTrsf8CBfOy/P86Jp54KCNqdDhKBblgUy2UMQ0mKZJ6dua+Gpmn9OD/27fByV+yNAQoh0DL7VxRFVKpV5QJ7Hxhf3vl3RX6GvTeZSjRdx7Js4jih1+2pdGWpRNMNSpUhzn/Oc+h5Ku+f5/vYto2VVaAYrmbidadDbWSEgu0Qeh6ahN9f/ztu+N0Ny28IsmdecXhZwQr+cMhpziDjU97kWZaTJKFUKql44E4P6/+Aw4thGHQ6HRqNBt1ulyAI+k4dQgi6fg/XKeA6BWSW6/Lcpz6F4x95NK1O+y7Mbo+NhYCFegPHLfC4x51FaXSU6uQEleqwMl8lKZVqlWKxiGXb6vxRyFB5CN0wMXSTanUYoem4hSIS8PwAhPLaHRkdY356Bs1xOOWUU3nqU5+G5wdsWrc/6zdsZLHZRGg6SSoxTAvPD1SiAssGoXHm485ibHIVnXaHVqtNqVRBIqg3F+n2PCRQqVQgc3ARWf5TUMJL7u17r5lfjpzsD55EJpLQD0EKwiDC94M9JupyLcYgBEuze5C93ROklMSRyi5gOzaFYgHbsdF0FRMYRREvfvHfUR0ahhQ6nR5jo2NUK1Xai03mZmZYu3oNYeDj9boUCi5CA8PSmVuY5Ybf/456vQ7ZQhsUn+8N7squ7317uGD5c92XtoI/LpaPx31tDxXU+aVK44UklQndXhfDsfF9j8Zi/V6v0T93GIbB8PBwP34tTVWeTUM3lMoPSRCFgKLLhx16OIcfdjihH+wxToN0Os3a6PgY6zduYO2mTfSaTWQYgYAojhGGRuAHhGHUP08cqjC1wPeV42Lml5Fnkul2e6QSgigCDUYnJ1TpOV3j6ec9E7fo0vU6TM9OEUUBSRITJRGaJvC8HmEUYVoWhUKBk08+GVBFDSqVIUAQJwkjQyOUixXCKCJNJY1Go99Pd8l9um/md1dWNdhZgiwrdubJKYRGqVyBVGJZNpqmEScJUhOQpQxLkZAxpjRLwyMA8lxuqNJHGqhktUik2HcTukA3dYQusiSsS/+QEtOwsawC5zzxKczNLDBcHsbv+CxMzzNUquBYDu3mIsWCi5QJPb+LVbSJRYxu6/z4Jz+mWlV6bdM0s8W2Z8jDvqCeK9cr3PcmZL7E7397oOhvWu5Hg9xuc//bA3+CB4bl/fmHbn9MPND5+6CO35Jz+B49pKqupEoNVykj45BC0aVcLhFFapf/cIaUkmKx2DfDWJaFEALTNJEShNTRsHDNAkmUUi2PkAYxxx11LKYw0NKMzsiM1ghIBCSa+ltvL7L/QQeATCgMD6lE47qGaVsgZT9WEKnobblQQEP9NYRAkwlDRRdLUzk8R0eVLdBxHVIyzmNoWCWXQtllcu04qQiJkh6FskUqld221+tiOxblcon6wjwCycT4mOIbaNn1wdRyxiawTCXtVTPtnsw89Af/5rewDyzJbuIur5cdNgA1TzOHmWzSSrF0WH6mPnLHlgGj6z05utwTJAKEDlJj44ZNWIaNkAJD19GEQEPrXzO/IykkkpRUSFKRsmPnDhYWFpBZHri+qKxp9z7UYanb7lt7uGD5c93btoI/DSwfl3vbHihyDwzY48TLt4Tqsz3/wjLPvP+zyDcgS0xOSOV82G/ZkTl9lgJSlOSXv+/TcHWqPfs2G+tBui0ATWbjIQfHZk/I7DoISSokiBRJCiLJRKUsvVqfUA+2wRPlYXHZ9fO251F7xd0wv4cB0pQjjzoK11VeP5qmYkbujc1u+/btLCws9L2pclXKoMF0X1DfDo7EfWzZIO8pC9y39kDRn8z3oyns5Yt72/ZSTuUPjeX9+Yduf0w8GPP3j/sEK1jBPeNhzfzSNOXQQw+lUqkQZYm2ZVYQ957QbDb7RtJBUTmKor4K9G7R3w7dz/bnjuXPc1/bCv64WD4e97WtYAV/4njYMr80y8YyOTnJ8PAwQRD0M7bcG+aVS3giy+WZB7iTGVDvCekDbH/uWP4897Wt4I+L5eNxX9sKVvCnjocv88si+9F1RkdHCcOw72hzb5hfjjRN92CEpmneK7XpXXbC97X9uWP589zXtoI/LpaPx31tK1jBnzgetsxPCIFmGKRhyOjoaF9qu7epyQzDWArgz46/V0yvjyXb3f1ty+1A96U9UAjuasq5t03hrs9z39ofF8v78w/d/vhYPh73ta1gBX/aeFgzP7IKvqUsB6gQ4l6pLMnCG3JHl/xcUubxRfeE5YTgvjdFAB9oewB4AD9/cO5dLj/tHxDL7+OP1f5YWH4f97etYAV/uvijMb9cEhv0vswlrHsdSnAvYNk2nU6HcrnM4uIizWaTSqXSV4GapkkQBAwNDeF5nopRjGNs22bjxo3EcYyUqrafpml7ZArI7ztXseb2wWazqfKT7qEFkqRp0i8nEkWq0rIAoijE9z1AIvqDkrkK35+WX1cIPM9DZBkORFYdO7/PvDEwDv3x2FtTDw5ZJQ+EUH/z62bHeT2PLJ05IJFZ0OtgSxIVpJy/lzIlTVWZKYGyyy6/p/y+c+elhwoCla4PgDQlzlIlAaRxzPzsrHoz0N9LB6jjkygiiaI9vk/jWH0GeN0uURBAfh32PF/W2w8ZBudsGIb9eS2yaiZRNBDAHEfE8dL7vOVju3wckyQhjlUCisGxy+3mYmC9D87B/L7uzQZzMGUV2bnyjWqekGIF9x+DiT3I+/k+ab4eGAbnzaCX/qAw8kDxR2N+DzU0TQVAalkxSyEEhUKhX0A3SRJ83yeOY5IkodvtQqbuNAyD9evX47puvwjmYOZ0KWX/HEIIdF2n2+0yNTWF53lZcLzEDzwWmw16XhcB6JpGHEcsLMwThgFJqhiAZZq4joMAgtBnoT6vmN/9bTkjyiZRvz8GnHUGJ1CapkRRpGpmhSFhEBD6PnEQkEbREoEWKo8imkaUMYQ4igiDQDkYZUTLLRT2YG5JEtPtdeh02/S8Ln7gYeiqyGacRERxqBifgFQmpDLpJ6ANgqDvrET2HHkap4cSQtOQcUQSRxiWCUlMq1EniSNGx8dUPwsgTYh8j6DXJQ58kCmGZaKbBrquEYcBSRiQRiHIFN00AIlbLKiAYZUhHhlHyCRGJksM8qGEpml0Oh06nU6/4onIMiPFcYxpGsRJRM/rEoYBmib649VYrBNmWTjIGGCSxsRJhJQpuq71NSc50jTtry3YO+PLidu91c6sYAUPBA9b5kdW9SFNEqanp0mSBNu20XWdMAz7VRryBdnr9fpSRRAEHHLIIXvsMvKFrGXJUfP3ObEoFousWrUK27ZptVokUYRtmAwPVSm6hf7O2DYtxmqjlIslDE0nCgK67TZ+rwdpimPZVCtDe0pc96MFWYHLQVsnWULcfFeXE56c4FiWpZptYzkOhm2roqHZRoKMwcksoS5SYjoOluuimSbCMPrMUtd1hJREQYAhNEqFIuViiaJbwLUdhJSIVGLqBpZhYuqGqv8oIeippOJRFCGE6I+b53l7hKA8lJifnSVJEvSsVFccx1SGhjAdB5KEoNdTz6rrmI6DXShg2DbouuqrNEWmKYZloVsWmmmqvkwS1YA4COi120oaN4ylls25hxJhGFIqlSiVSvi+z8LCAt1uF9M0cRyHXruDqRsU3QJFx6XTbNFaXMTUDUaqw9im1R8zkUqSMCIOQtIoRsYJrVaLIAgIwxDP8/aQ5nKJIt/ND0Lkc3gFK3iI8bBlfrlk1mq1mJubI4oi0sxzM4oiDMPoL8i8uq+VVQyWUnL44YdDRoDz3+bH6LreX7T5OXNGYhgGlUoFwzRV0m8pqc/Pc/ONN3L1b37Ddb/9LbfcdBPTu3dTn58niWNKpRJuoaCkjSQh8gOV9y69/82yLGzb7jP5/B5zCVDX9bsE7/elvyAgDkPSMCINI2QUq/uRZMUlNTTDJPIDkiCkPjtHGkb0Wm18zwchSIKQJI6xLKvfD36vx2K9zsLcHDu2b1ftzjuZmZqitbhIHIYITaNQLNJutbJE5BZBENBut3Fdl6GhoT2qMT9UGB0fR0rJ4sKCklpsW20qej1838cuFBQzA0gSQs9jcWGBXdu3c/utt3LTjTdy2223sWvHDpr1Ot1Wq8/o0DTSKMKwbQrlMpbrkkaRqiSSJFmh1YcWuq6TZrkgpZSMjIxQLBaJ45j5uTkKrku33abZaCDTlOrwMEPVKs1Ggxuuv57fXXcdN1x/PTfecANbb7+dhfn5fn09PVsD+fjlNdRy5OaFvIlMnZ2vsRWs4A+BfdTz2zMlWb4PEyx584lMh69r2U4XQEq2bd3Kk590NvWFaRzbwtB00iwTuK5pIAVpqoratrsdjj72WC674go0xyGOIwxTFbNdbkq5rxBI4jDk+uuu4y+f8lSajQbVShlNQhonGIZOvb5AdXgI0zQJkxjbsWm2W5SGhvjsFy/hkSecSBiGJEmCpmn9On5CCObm5hgdHd1j5yql5Pe//z1X/ebX/PaqX7MwN8vu3btptVr93+UMplKpUKvV2LRpE4cccgibN2/mgAMOYMOGDWgPmLgLwjDGslU5pjAMiTNpLZcAcxvgcqeePiSQSpLMHuR5Hr7v9/tj69atOI7DqaedtvSbOAZDqfV6rQaFchE0jU6jwS9/+Ut+9KMfcfPNN9Ptdtm+fXtf4iwWi0xOTrJ582aOPPJI1q7fwCmPPR3fD+h2VSHi3GmJAXvVQwWBZH5mitGJcQAiz6Pb7VKt1fpSybZbb+WOO+7g+uuv56abbmLXrl0sLCzQaDTo5DXMTJNiscjw8DC1Wo3169dz8MEHs2nTJo4//ngMw8B1XYyBsllJENDzfMrVkUxp/NBACEG32yVJEorFIlpmz1bqSg1kAknMtttv59prr+Wqq65iy5YtNBoN0jSl0Wj0N4aGYVAul6lUKhQKBXTT4tAjjuLkU07llFNOoVAokCQJYRhi2yr373IkWVxuzhBRpsTMhTiLHRT0VftJEivVeZqqTWMQcO6Tz+HqX/8mMyEo+vRwred3d5Co/tKEsrsnoaqTKsOQj150Ef/8T29gqFwGoTLxKFovB2i+oLXY4fzzn8MHP/hBhGki4xiR5/IcvNZysiFQWh3UZlmtF0G6TM4SQp1KI6W12OC0R5/M7PQUupBYhkWagJQCLStoqxsmvV4PzdD5zne/xyFHHvmAx+/hy/wERL7Ppz/5Sf71rW8j9H0cy8TSDdI4Qdc1ms1FCkUX0zTxI1U8sdFc5NTHPpYvfPmrFMtDkEl/MksemzMxgJmZGYQQjI+Pc8MNN/CBD3yAn/zkJzimiddu0u20abfbxHGCZSl1kp5li9Gy4oo5UyqXy6xZs4YDDzyQdevWsWbd2nsxfHuHRNDqejzqxJM44YQTiKKoH5+oZTbQ2267jSAIaLVaLCwsMD8/T71eV+oqz6fVWCSOIjzPo9Pp0G636XQ6eJ5HFEX4vs/BBx/MJz7xCTZu3Nh/HrdcJvZ6GK7Fjdf+li9/+cv84Ac/4Oabb6bV8Sg4JtVqFZGpvKIootvt0usF6DoMDQ1RGaqyev1GXv+GN3DWWWcBsHv3bkZGRnAchzArSvlQQSBJQh/d0Ekyqd90XYhjLr/8ci655BJuvPFGGo0G9XqdICtw7Lpu315lWVZfhd7r9eh2VaWT6lCRWq3G5OQkJ510Ek94whM49NBD+6VXCpVKttK0h5T5+b6P67r912S1K33fZ/eOHVz2ja/x22uu5le/+hXT09MYhoHjOCSZM0yxWCTMNkb55tDIwoMkAsMpEEvJqlWrOOOMM3jGM57BcccdB9lmTGSe1/laSjJnGE3TVAFstBXmdz8hV5jfvRq/hzXzazUavPTv/o4f//BHmLqOhsQ2TEI/wHUdZcjX1dN1vB4qtbXkjW9+My951WtIkqUs4GmWGzRXb05NTbFmzRq2bNnCG97wBr761a9SKpUol8vMTU9TMHXszFEm/13+25wJ5WrX/Bph5kRi2hZeENxlYt1bSAR2ocQrXvkqXvWqV+1BlMMw5Oabb+b000/v39PyJiSIVKrFk91r3nKmlSQJlUqFSy+9lE2bNmGaJlamYr3ztlt59zveznXX/pYbb7yROI4ZHh7Gtu0+kfM8D9d1KRQKfcYZZokIpKaRaAa7pqc55phjeNe73sVpp51GkiQ0m01GRkb6fflQQC2clDQM0DJJ+SsXX8zb3vY2brzpVlavGqPX6yEyydnISqYw4CWXv9d1ve9klT+fruu0Wi08z2d4uMoZZ5zB+eefz6mnnorjOCw2WwyPjj+kzK/T6VAqlZbWsa4zMzPD5z//eT79iU9w+8034loWpVKpv+HwPA9d1ykUCtTrdRzH6UtyuVe0rutopsli14OsbzRNo1gsctRRR3H++edz7rnn0srU2rkKOx1wIDN0fYkArTC/+ww1e1eY3z3hrvqHASydemDeLcfyh8/aYMBzNn/V6+U/yTOH55nE898PnOO+NzX83U6L6677LWHooxtZaSUpiZKIdrdDnCZEcUKcpGiajusWWbdmHU964jmAoNlpE6cJCIGmCdWhMoE0ZnJslHf8+79x5mmnccW3v8261WuYGB3DNkz227iJ6tAwxWKJkdoojzj6GP7q6c/ghS9+Mc989rM546yzGBoexnEL6IaJbTsUiyUqpQpFt4htWoyMjNyLVltqwzVqWRsZqbG4uIgQgmKx2N9d5+rCnNgZGXO2M2+/nBkVCi7VoTJDlRKVcpGS6+BaJrahY2oahhCYmkZ7cREhJcWhClbBJfI8fnTllTz96X/FVy69lJtvuQXHdZmYnMQwTVrtNj3Pw7QsqsPDWLZNGEX0PI8wikAIDNPEskzSOGTz/puY3rmdZz/j6bzkxS9iaucORkaGadQXlk27fFYNtsHZlE/cgYz2e2v56SQQp2iGzc+//2OefMbjef75z2dueo4D9t9IlMRYRRt3qEBhuIDh6kQyxA89BBLXsimYBbRYEnkdoqCDJlJsSzlXpVIyNFxm1eoxpJR89Stf4wXP/Rte/IIX84v/+QnDteGMfA3ef7qsqc+zIl5Zy0Pkl/fFnqtOAOVyCa/XhTRB1wSXfuliznzso3n9a17D3MwUq1evpjQ0hNQ0/CgizKpyJ0AsJQds3syhRxzBkUcfzf4HHUS1ViOWknavR6vdoVQqYuhatmZSZmem+e4VV/C2N7+ZFzzveUS+TxJGyETZ+bSBTZYimAME5C7In0dTf/uH7W3MV7CCvWOvzE+wnJlkbfmBGfrMK2dk+dSUquXny1/3fwcgBDInzlkhizhNlk62r4YgjRJknEIKaZSQRgkkMnPOSLnoog9y551bsR0DISQpCSPjIyRCEsQhUtOoDFVxCyXCIKbT6XHOOU9l3X4HkiLohSFoOoutReI4AiHRhKTdWOD55z+L/3jrm1nYvZvxoSpFw0RPJK35Bn6nR5pKnvK0v+RTn/kMX/na17jwQx/kLW9/O+/90If41Be/yA9/+lPe8d73cOgRR7BjegbbdqjXG4yPjhOHKk7Ksm1a7Tazc3OkEqI4odlsKacTdGQqiKOUOJKkCaSpQKY6pBqlYhnbtun1euiZh2suYVmWxfz8PDMzMwAUCgU6nQ7NZhPHcRgdHcHz2jiWRrdZx9QklYJD7HVxdIGjCSquQ8EyaTfqSM8j8T3e+9738NKXv5Sbt9yCZugMj9ZwS0UWFhvsmp6m63sEccTswjxhEjO7ME8v8InShDCJMWyLVECr1cQipeqYaKFH1G3y1S99gRe94P/jpz/8AcPDwwAszM+DEKQS/CBidq4OAsIoyeo+JiAUo8jnYE4XIz8mjSRppIhv6Id0Wh0EEHS7kGq8/81v5y8f/xRu+PUNHLzpUGytQBJDN/AJ9AjfCtnVmmIumKdYK2A4gna7ia1Z0ElZPTRO3O1C3MK1JO12kyRV2oVIBkSpUhmODU/iaEP8z/d+zvOe/gy+8qmPAQlCpAiREoUeQqQkSYAkJgh7SJEgRTpQ43KpjFif9AsIwgQ/UIVIUwm+pzxpvXabQsGlMTvN8575V7z0hc/HX1ygamtMDFcplMt0gohEM0g0Az+RPObMs/jk577A9370E777wx/z7e9eyVe+8S2+9u3Luex73+fTX7iY5/3Ni1i3aRPzC3M0FxcoF1x0JKvGRik5NrO7d3Hpl77E4047jf/54Q/VxkxKOq02ge8jNC2r57mc0efrXgM0dN0CNJTiSiAEKo6WmL2YFFdwHzHoDEe2cV4u9T2UGNRE5c56g68fDOxzmuR7q7zdE/a25+r//u4YJ0sXuK/7Nc1UNoMkC4jWTAN0jTAK+flPfszP/ucnIFNc10E3BGEYcOf2O7Fdh9Xr1pKkqSLKnkd5aIiNGzfxipe/ChC0Oh1Gx8aQgOf7GIZOHAbUZ2f46+f/f3zvissZHR5m/40b8Toduq02YyM1As/HNm0+9KEP84pXvYpjH3UidrkMhkmcpkRxTBCG6JbF05/1bD70kY/w0pe8hHpjEdctsLjYzNzNXaZnpqkOV1m3fl3fuSCKIqanZpiZmWVubp6FhQYLC3XmZueZmZ5l9+4pdu7aRbPZvEtlCjLP1vHxcb71rW9x4YUXctppp1GtVlm9ejXj4+O02222bduG69oYusDQBUkUkkQBhgAdiUxi6nNzFGybdWvXIByb97///fzLm97ITHbPrU6bRnMRNMFhRxzOec8+jxf97Yt50jlP5qijH4Hl2Kxas5rFVhMpoFgusWPXLsI4YtOmjaRxyPz0blaNj3HApo2YmuAnP/4f3nLBBXz1ki9DmlKpVNT8EhAEIePjI0xP17GsPL5sYEblu7IMpm2gGYLZmTkALMfKpA5YqC/wnGc+nQ9/9CK0TG3ZajRIfB+/1buu1DcAAI8YSURBVGT9qjEqto4lQ1aPlpmslghbizgprK6MIDshMoTpnTOUCgaRnzA3M0e1MkKpMIxrV2g3OwxVqlQrI5iGi0hNTN0m8Lu8/GWv4B9e8TKajQaB72PZFt1OB8Mw6HY7OLYNfZlv72sPAfPzLWxbx3FMbrppC7omcAsFvG4Xt1Tkut/8hr982lP53hWXMzFao9Wo4xgazcU6U9PTCMOg0Wpx+FFH8Z0rr+RLX/kKjzn9dIZGRvrhLeg6hm2zau1aTjvzTP79He/gm9/+Nhdc8CbWr13L7bdvY6hcZseddzI+WsMQgonRURZm53jp3/0dH3zfe+k0FilVyhSKReJsjvd3KssJx94edK9f3hdKsoL/i9irze/eYFB9lnNiKSVbt27lnCeeTWt+GteyMHSdNFEZQXJjeJpKEBqtbodjjj+Ob19xBbpt40chhmmRyhRD6PvWegA7duxg/fr1ADQajb40oCQbg+c+8y/56qVfp1i0GBmuqSBsBIuLTSYnJ5mfX6BardLt9rBMmx27d/PDK7/PCSecgO46JLrOYqeN69g4holGysLcLP/wylfwtUsvxTZMarVRdGHQ6XQxTBtdN+h5Pm984xv525f9HZgZERaQRBGaoUNWVcI0jP7C3XH7Vv7j3/6dSy7+EkJCZXiIZq+NWy70g4+ndk9z0kkn8azzzuOmG2+mVCr3ww5ytaZMU9JEEssUL/R53OPP4pRTTsHI4hh1Xe97rHa7XdI0pVAoYBgGv/rVr3jPe97DT37yE2rDQ4S9Fo5p0m62MHQDHUESxbhuAc/zMU2LZqvFL371v7znwgv56Cc/yX77baLT61EouDztKedy2mmP5TGPeQxWoUCrXsf3fYaHhzFdl6kdO7jhhhv44Q9/yCc/+UmSJGH9+vXcdtttlAsuw6Uii/U6hWKBdrdHeWgIKXTu2DHF5s0H8s9vvIDznn0+fhBgOzZhqOairkMQxFg2yu6ABlJDyGyfNzCnkliF5aGD7/k4BYebb76JN7/lTXz7sm+RxjGH7H8wrfk6IoxZt3qS6ak78Pw2xYrOzFxCqQCOBZ0GjFerjBTGuHPHLOMbDuCWO2/iwEPGCFOfnTsWEVqZdidlpDZCoQydziKhDxvW7k/Qi7l9+w1sPqDKYqeO1Cscf8KpfOrTn0IChWKRMAiwbGWDVPJqbtkYVHUubTq9XoSua9i2ThynhIFPsVAAJFf97y945tOfTn1hjtWT4+zcvpvVkzXKpTJ37NiJVihjFUq88pWv5LWvfS0Ac3Nz/RAGOeD4NegQBiBlyvzcDD/58Y+44I1vYtfOnayamGRudpbJ8Ql8P6Dd7mCYJs12ize9+QJe/4Z/Ik5iDNMkSWJ0LRNh92EzIvsqjdUzEvk86ewncM1Vv6ZUKCFTQZLIFZvf/bT5ddsez372+bz//e9HmCZJGKJbd3UyW7anRD5INr8kln2bX5KmGKal7Oy6xne/dyWHHnXUAx6/h4z5NQeYn1zG/JLM4WVvzM80LRKZoou7T3EmEEzPTCtHCsum2+tSLBTZPbWbL3zm01z4rv+g12oxOTlBHMf4QahKG4URcZwQJwlpKpmYmODWW2/jpS99Gf/xnvfQqtdVwHKhoJifbeGaFjKJ+I9/+zfefMFbWbd6jEqxRLPZwvMChqsjWJbDbbffzrOedT4f++ynCdotdFMnFRAnCYZlYg0Y9zVNw+/2qC8ssHrtOnbedjuPO+NMOu02pmUy36yz+dCD2bJlC8PDwzSbLU499VS+/q1vQZySxAmapiO0Zf2k6ZCpgDRDfRdmXqWmafYzpwyqNAZx0UUX8dp/+HuGy66y72k6uqYTBSodm2VY9HoepXKFOE2YmJzk5ltvpVytMjs/xzHHHcdHP/pfrFu7BqRSUTiOgxjwzvQ7HZxSicjzlBdlkvCC5z+fz33+Sxx6yIG0Gg0MUooFlzhO2LV7muGREQrlMtt37KJQKrFxvwP48Ecu4uijjyFOUwxT5847d7Fhwxq6XY9i0VRkQIrMc3DP5w2ChDAMKFcKBEGEbgjm5mZ5xStfzqVf/RobDlpHp91itFghWmwjej0mykWCdoOwB0ceMYrX62BaNmEg2bWjRRJCyR2lHQqSyjCLUYPqaES7s0ivC6WSha4XGB0dZsfubZgWaFqB1mJMqTiJJGbdxhK/+/0WbLdCt5fwzPPO4+1vfzu1sTEQkk67RalczpifQr6AcwaYkwQBTE/P4zg2w9Uy9fk6I7URfvnzn/GqV7yMa6+9ns0HbCQOApI4YmS4ypYttzE6PkbTj3jHe97HM5/5zL4naqfTIQxDarUa3W6XQqGAyNKJ5c5bUkriOMKxLXRD54pvX8brX/taOq02nXabibFxGo0G4+MTzC8sUKqUmZ6Z4TWvfx3/csGbmJmZYWJiXFHGuyGeZF+tML+7YoX53bvxu+uMejCR2x8G7RB3g6VHuedj/cBncmKSNE3Zum0rxUIRgEsuuYQ3XXABMknZtGEDGkIx0lSyWG9gmSatVou1a9fR7na4ecsWnn7eebz9ne8giSPK1SHsgsvM7CxDpTKmbuD5Hr/4xS+44IK3ctihB9LpdKjX6wghcF2XMAzxfZ+RkRov+tsXA2AXXIwsU0qeVo0sw4rv+3S7XZxigdXr1oGUrN1/f573vOdRLBaJoojJyUnqCwvINKVULFIulfjZT3/Ke9/5TqIwRLdtxVB0XTWRpR7LOlDTdZIk6cfzFQqFPuPLXfBzlWij0WDLli0AnHfeebzyla8kTVM6nQ66rveDlHVdJ8m869rtNmEUsdCo0+126XQ6XHDBBfzoJz9hzdq1OI6LUyrjlisITadZb7C4UCeNYpxSmfmZWUzLhkwa/+RnP8dll32Tnbt2U19cVIHeQmOh3mB0bIxyZYhGvUF1aIhSocgtN9/EP77+dTSbTZAQRSkbNqyh1epRLLqw3E49MBdTAYatUxoq0PUChC6I04R3veddXHrp1zjw4P3U8WnE/PQuxioOZRFSn2pwwn4TvPb8R3PeScfyhuc+g9ec9zSee9ZjeeJJxzBaMGn25hkeKrHQqDO5ZoL5+iJRCmc+fpjXvO5k3v+Bc/l//3Q0H7noCZzyaBiu9dDNkJGxiI4/xy9+s4VCxSVJNQ468GA+8YlP8sEPfFjNnTDF0G0gk2SlcvjInzH3UgVJGCZ4XsTk5KhSl3Y8Rmoj7LjzDv7pDf+P6669nsMOPoiF+QXanS5uociOnbuwHYuu5/GmC97M0572NFzXZWZmhjiOKZfL1Go1giDAcRxkVucyjmO0LO2cbdsqblDXmZ6a5glPfBIXvPkt7JqaZuOGTXQ6XVxX2Zh9z2N4qIquaVz4vvfxhc9+jomJcdJ7UWx6BSt4oHhomN+A4X2Q6OwNgwyv/1eqhZx/t7fm2io0Iolj9t+0H2EY8MIX/g2vfc1rOOqIIyi5RUihPl/H0HTKpRLdbo84SiiVymzZsoUoTjj7iU/iDf/0TwjTRLcsOp6HBEZGRiBzXS84Lv/+b/+GkcWhpZnECyo1WBiFtDptDj38MB558kmkQaiCvfXMcy3bHSfZojZNU7m/Z+/9Toeo2+Vlr3h5/5qGrjMzPc2BBxxAo9Hox0a9853v5Ac/+IFKkSWzPJ5xTBQEhJ5HEoSQpHQ7HeU0Y1l9ppe72ucu5jMzM31V5KZNm0jTlGq1yvOe9zwmJydJkoQk83aVAvUXiW7oDA1XAdg9NcW6Dev5/Oc/zz+8/vV0Wi0KpZJixHm+TyEYGhmhWqv1s6K4rgu6ThwESi3bbnPaaafxrW99i9roKAuNRTq9Hn7mqJOmKY7jMDY2RqPRoFQo8rOf/pQL3/c+NCGwTDWVu90ODMylHHfZhPXnZYphGnz4wx/kAx/4T1avHSeNI1rzddaMjFFzXdJWk6qA0zYP8bwnPIZTD1rLEWMFDh42mDQ8Nk8UOOfMv+BJjz+JdaNFuuEClapDqz2FbsLzn7+WN7/5rzjvvP143BMrPOkpQ5x97hDvv/CpvOVNj6RWg23bpliztsaaNUUsq8TQ0DC7d0+zenIt737Xe/ji575EGksc10EmA4xdDUz2vMrXE2QWwqO2kOWSS6vZBOCf3vAGrv7NVaxbu4a5ubm+p2+z2SSRkurICCc86kRe9opXKCcHYNWqVTSbTaampiCzG+tZlqNc65NmeVhVXGgXITRK5QpREHLOOefyute8hq1btxJlCeLn5+c54ogjuPra37JmzRqEhL9/1SvZcsvNBIF/L7a/K1jBA8NDwvxyAtMnNPtAn0ANHKyWskSXoEm5zxaHAa1Gg0qpxP/+4ucc+4hHcMnFF3Po5s1cc9U1JFFEJ7NXBUGIpulUKkP4QYBpWQhd55xzzuWTn/k0w6OjSKDd62HYNs12G9MwaNTrCAk33XQT3/3u9zn88MO55aabqdVqDA0NEWXZWrRMInr0ox8NgOZYEMfEQUDgeYRRqCQmIdANAyNTPzabTVqLiximiRRQHh3l+Ec+sh/47dgOlmnRbraQqWTt2rVEUcR3v/ddojjKOkyAYWC6LpbjoNsWGBrFcqmvriKzy+TEjCzDy9q1a7Ftm3a7Tbfb7atCN27axFGPeAS24+D5fj+QWQhBKiWartNsNrFtm4MOOogPf+QjnHbWWSzMzWE5mWo3y+gRBMGeXmJSEnoexSwe0rBtSkNDFMplDNtmv/324zOf+Qy265BI2Ljffliuw46dO+h1ewgJw0NVXMehXCzx0Ysu4ic//hGodJqsWjVOEifLtkoDl2eJ8bU7HQquyw9+eCXves87iWPJ+vVr2X77DnQvwfGhIg2asx41Dc495QQOHi3R3nYDdnsXi7dfTeOOawgXb6c2FHLqaYdx7KkH0U1b6FaHXbsWOOVkePELT2O/g2LS4Fe0p79BUL+M9sw3sbTreNTxQ7z9rSdy7FEGu7dP01rsYuoupm6xMDfPxNgElVKFv3vxS9i5czeRL5UmaVCyzXaW6n/lIWnqGq5rEUUJSKgOVfjkx/6biy++mMmJCbrtDo5lM1wdpt6oMzoxzsjoKD0/4J3vfhezM9NUq1WCIOCOO+5gZGSEVatW9Zldt9slDEOMgZywOSMtFApEsdpk7p6eRmgab/vXf2N8coIwc2gZHa3RbrcYHxlhx/Y7Ga2NEEUhf/uiF7HYqN894VjBCh4EPCTMr497kPpgieExSK6kIpKk+25hp8vvf3stT3nC2Tz+tNPpLTYZrQwxs2MnR2zeDFJiWTZr16zF83y6nR612ijNVov5+QWe8tSncfEll4DQGKnVSKSkUChiWTalcgXP96mNjGBbFhe+733URqps376dYrFIt9tlZmaGNE1xsyBtKSWnnX46JImSvkwjU3vaWLatMqxoGnESE0YhQRQyPDJCpVrFcB0s28ZrNjn/uc8hCANc16U6NMS2rVuZGB9ntFZj+53bieOYb3zjG8zMzNCo10misN9xkiw/olTMLs8ukmcgyZ1n8hhALcvsb5oq64rneUxNTeG4Lps3b6ZQLOAHAT1fJSbOGWmuAp2emeG1r30tj3nsY+l12tTGxhCaphipaWC5BRy3oOy8UUwSxYDAcgukScrY5CpCP6DZWMTveXjdHmPjE5z8mMfyqr9/NV2vxx3bt5MkKWNj4wwPDzM/P0+aJGgSlUg5ifnv//4Y01PT6H2flsxeNLD76r/M5qQQoBs60zNT/Ovb3srC7CzHHXM4V//qGo489CAmR8bZtW0nIkpZN6Rz6AHrWDdWJW7PsXnNMFWtx7gdcujaCmOFgIXdN2DrDTZvrlEbBeQiG9bCy//ur1i7ucaum35GyWxRHjPQgjnMuIeNR9lMOfHYRzBSKiISWDU2Qa/TY7FRZ7/9NrF79y6EEJRKJS544wWYtkDmWsHlqt2BSL9Eqo1OEkeEQcjOnTt4y5svYOOadSRhxHC1ShzHzM3NsXbtOnbs2Mkd23fy3P/veex/8CGMT04yOzuLaZps3LiRIAjwfR8hBM1mk2KxiD2Qhi/MguBze7LQBPVGgw0bN2LaDj3f481vfgutbgcry6E7MzON6zo4jo3j2JRLRa6/9louveQr/fOuYAUPFR4y5jeo9iQnPsuYYJ5OSWQSR2uxSbfbRRdZaqMgJGq28BbqzG/fwTU/+zmfuei/uOB1r+fJZz2eF5z/HH72wx8xNlTF1Q3inoerGxDHTIxNMDc/z+1bt1Kr1RBC45YtWzj++Efyn+//AB/7+McBKBaLGTHMguCzeytkJYYajQY333gT5VIJ13ZotVoUi0VMW1U/SJKEdqfDpv33Y92G9YRRpKSvTCWZq4bSzDVd0/W+5EdWKw2ALM/jYYcdxujYGFEQkiYJlmnieR5er0dtZIRyqUy9Xufiiy9meHQU3bL6FSFEpopFUwm2LcvCdd1+WjaZpVUbGlL5TKWUlEpKQswdUyYnJ0FKhmsjzM3PU66UlYpL04hTlX8xjmOEplEsFRkdGwPDUKrOjKEUioU+00HTELqObproppkZwOknb7YcRwX8Fwq4xaI6BvjrF72Ix55xJp1eRKfrUSiW6PU85fFomkRByMhwlTRJ+O53ruB/f/VLJOCHAYahI1WKCBiID0IsbbDCKKLguHzly1/ipz/+GWsmxmnMzlJxNNqLTfwwxiyU8OKEqWZCZXSYVesnaXXmmJ+9k9SvYxk+zd1bMP15xgsRcetOSvoim1ZDuwHHPsJi//VVaM6xZnQCK3KgW8CfM9G7ZSgfimyX0YMSTz7zL5kcLrM4V4c4wjJ0fK+DpkuESHFsi69e+hV+/P2fIXT1EL4fg4BWs5lFv0GaxKRpQhD4SCCKIyQpH/rgB5iemiIKA8rFEnEU0e10GB+foNvzCMKY/fbfj5e98lUEvg8SxsbG+vM3z+YipaRSqfTnU95UeI6yDadSkqSS6vAwvaxCh1so8oSzz+bkR51EvV4HKbEtC5DYlsnC/Cy6JqhWK7zvve9h2+234/V6ag5lGzYpodfzsti+FTycIf7c6/kNbr4H7S0C6PV6DA0NsWvnTp513nk8/vQzeMXLX87LXvpSzjrjDJ7yuLN48uMexxPPOouzH/c4zjn7bJ7/nOfwT69/PRe+773ceP31+J0OrmkiowjimOFyGdc0qc8vsGPHDvY74AD2O+AAZufm0Qydl7zkpVz4n+/neX/z10tcuU8O90QYxQhgeveUsodkxTld1yVN00ySUwNimqbKjFIsKqa2/HSDG4CsJWmq+MPgQFoWlUqFsbExkiRBphJNaOgiS4+WpmhZSq3bbrsNv9cjiSK1ecicXbKzPijY1/gNtuXPuvRd3q/3r42OT/DEJ5/D5OQYCA2v56NpOtWhYXShkWa2WMswMDSdD7z//f0qEhK5pGkdWDRLygSJbZrs3r2Tz3/mM0yODlG2HWZ3zjI5UoMkIdU1cG3csRGqkw6+qbGruYBHzMhkDU2XEPnUKgVGHJ3e7G4sv8uEayI8mBiG2A8x8Imbdfx2B+wyRCbldYdiOuN0f78dXRSpFGsU7CI7drcpFVxqI0PYtgYiJk0CHMcgTULiJORjH/0vpnfOq77OmICTJTCPYmVPE5AVmYVKucwPf/ADvvn1bzBSrWKbFo16HVJJwS3S6XRxbBdNNzj9jDMplivYrvsAZ1E+jqDpapOj6waWZXPYYYf1MwuJrBhyXgPQ0DVkmhIEPp/5zKdxi8UsfEeljNM0KBbV+lvBCh4oHjLmlxPGnHAux8jwMDJRThi/+PnP+fnPfsbXv/51vvDZz/GjH/2Ya6++hhtv+D2333obd2zdxtSu3fQ6XSqlMpvWrmfdmrWsWbWa2vAIpm4QhxFpnGAZJqVikUa3y9Y778QLAp78lHP55Kc+zbs+8AEOPeoodtxxZ3YX2SIdUB/1m4Q0lezYvp3m4iIyUYuwlCX0zZ0w4iykoFAsUiqXEKaePfzA8++loWXOuAL1SXbhQlElPo6zKuC6pqEJgUyWch+apsktt9zC/Pw8Ukqlfsr6OElTHoyN8dK9Lfs8c2bKv+sft8ex6s2SEu7+tbPOfgKHHnEEYRzT6XSRqcS2bHo9D9M08Xo9JZE7Nj/+8Y/59a9/tTR+mYs1CBBaf4+RpqlKiiBTvv+dK7jmqt/imgZxr0fJgJJhkIQB7aDHfNBlZ2eRnZ7PHBF+uYA+NoZnWkS6RbflQaJjJCZ6N2FELzCMTbwAfhNcE4YnJzEsUzGjcpFkcYFkYRYKFoVKAcpFMATTs1OsqlkMD1eYnd1NFHexLIlhSnRdgohZu3qSK6/8Llu33g4yY3ASbEd5zcZhjCY0pExVijiZAJJvfP3r7Ny1U9lJS6UsWUKM67g0F5vEcYJumjzp3HPRLRO5t4G/j5C5u71uqGHQBJZl85jTHtvP5woobQQqn6cmNJApURjyuc99jsV6nTAMiaJoj6oeRhbCs4IVPBA8ZMyPZQS0T4+z977vMz09TZokOJbNxo0bGakOU61WOe6YY5SKTYBm6P3K2JqhqwrZpkGr02Z6doZWp41TcNFNg93TU2zbvZO5hQUe+9jH8DcvfjEf/MhH+NBFF3HqmWfitdskUcS6jRszziT2ZHp5CjYJtmWgCUGj0cDveX3VmW3bhFkNtDiO+wG+pm2pmm+Z6u2e6IeWd30WL5mEIWQu467rqripnPllNsU0UU4zhmEwNTVFr9dTicA1dbE0u8cHSSuwNGb5+4Hz7mtTs4S7/fJuIQV0fY+xsQked9bj1WdIdE0njmNCP1ASTKOBbVo4to1rW3zhC5/H85WqTOg6ZOrzXFLQBJmEoVNfWOCSi79E0dRI/YCg1eKwA/bHqzcw4piq6zA5OkKh6NDy4dZdu9m20KAhNXa0A0JnmI506Xg6UeIyNLIBTauyY8cizUWIQ5jaDb/9xbV4ngSzCK0uoWagr12D32khHZOZ6e2EhFx303VEhGy9cyeFkokftND0GMNI6XTqdDuLuAWLxdYCl1/2LUjAMk3SrEZsGudlnpRnsa7rLC422L79Tn7+s58yNjJC4PlIKbNiwqryhCY0ur0u4+PjHHPscUghCOLoHsb2nqFpOlGsvE77e0FN41GPehTDIyP9NaTlCdMlIFWYhq5r7N61iyuvvJIoirAdB9u2aLU69Hr+gza/V/B/Gw8J88sJ46CqrP951izLYtWqVVTKFWZmZthx53bizHvy9q23IyyDSKT0YrULbwc9FnttZhrz7JjZTaJDO+gxtdhgpjGPVXI55fTH8Pp/fB3//elP8MUvf4l/ffu/c+oZp2MVi6AJ3EoF3bKIw2gP4iwyhpczPm3gptUuWTG4XO8sc/duKUmlBE307ZaDzP7uGESemio/XyqV56ZmGsq2khePRTFopNqPC0AXWZxdGJJm6i11LylCV7bLvM8fKPpjOfh+8PvlDHEvx9wfhFGERHDuU59CbXQUwzTRdZ00Tii4LlEYUCy4tDstkiRm06aN/PCHP2Dnzh3q6iLbWMi82PDSJsfQNG7+/Y385hf/y0GbNlGxHVzdRI8S/EUfO4xhbo5Cp8OoYTJWgt1TDX5+1fXMBxq1/R9BUF6NteZQ4up+tMxVRJWNXLu9yzd+eiONGIZHYdcu+Mznvk+QVHAPOIb5jqQeqk67o7GAtu5grJES3/rxd/jZNbciHTBL4JZ1hqoOadpD12JKZYdyxaXbbVEbrvLtb3+T+kIdw9RI4hik8q7NK3ekqSSMAkqlIpde+hW2b7+TanUIoUGruYhp6KpskFShOz3P4xFHH81IrYZp2Q947EDtO9LM7wiWJsSq9RvYsGEjvu+TpimGoaPrGkkSk8QRuhAUXIdiscill17aDw8iCwHKQ4xWsIIHioeE+eW4CxEcIJRz8/O0Wi18z2PzQQex//77s3HjRtavXUexXGJy3RpqqyYYGqtRWzXBmk0bOODQgzn0EUdy+DGP4MjjjuFvXvK3vOfCd/ORj3+MT37+s3z6i5/njf/6Vp78l0/FrZTQHRs0DYkkikKkVJkoelly3z2Q3axiNCATSeD5apc8kM0miiIsy0IMlLMRWRxfjtyZZTkjHESSLi1qwzAwLQsMHQyV+V9k2Rly49WgkVdJgao0UBzHSgKNVVUE/aGuAr43Zn5vP7vXEBSKJSSC/fc7gM2HHNIPm4iiCNuy8D2PyfFxFhsNgsCn02lTbyzw+xtv6G8scmcXFB/MzgzIlCu/+10VnN9oUnGLlCyb2269gyFbZ0S32Gg4mLMN4h3TjOk2sgu/veYWfn39bdwy1WJnT6dljdMurGKrZ/GbXV2+dc3tXP77kKYFARVMW+OnP4evfeu37L6xS2nkOCY3nM7MYo21+59OEhhcdeM0H/r4z2iG0AwAB3bNd0jw2D3lsVDvYplQrhTodJtMTo6ze2oX119//V362NAzT5hsjlimyeVXXIaUKa1Wk5HhYeIwRMvy4ebhLWEYcuzxx6teE1pmp3tAAwiApguSNMszP7AGjjzySGXTllnZrKxEUZIoj+I8DvY3v/kNs7Oz/WTc5XIZ2zZZMfmt4MHAQ8b8ljO95RJQXt/t4IMP5otf/CI//OEP+cpXvsLll1/OL3/5S75wyZf44le/wiXf/DqXfvubfPWyb/H1Ky7jW9/7Dpf/4Eo+9plP8a73X8hLXvVKzn36X3H0XzySobFRpKHTyyo29DwPL/BBU6VyoljlDqxUVZFa2AdnImOCqWRifLyfxsk0VU0pMwsazx0p0jTF9318Xy1SLfe5X4bBy6QySy2USXx96pwkSp2p68rWl9fYI3faUFk18jpruXedcuzY+3UfFAxIf/l47qXbBnBXG959abpmZrlKBCeffDJJooKokZLAD3Bsh263i+s4IGFxcZEwDLn22t/iBR5k3rVkY5QjCAI6rTY//P73qZaKdJot0jAk8X1qjsmxRxzJsfsfyPNPPYNnHXEcj1l7IIdUJiiGML0TfvyTG3nvRZfwg6u38NWfXcfl12/ja9fcyud+/jt+sqvFdh0WS5MsBDZoY2zbAf/xjt/zj2+4hB//T8JtWzcwO38UW25fx1+/+FO87p9+xpY7YGx1EV9CZRz+4pRVHLB5AwdtLjE8AovNBWZnp4ijgCDwaTeb/M///AQSME212dH6Nk6VxNy2LHbu3sGdd97ZV2+GQYBlWSSxqsOZFyu2bYfDDjsMPwgJoggh9HsY27uHFKq4iqZBnKQkqZreWlZ/7+ijj8Y0TeW4lNfx62/wlOo+TVPa7TZXX311f+On72NdrWAF9wf7nE05T9gHb7gL8qW31HJ7Wu5Qsue3Kg4tpOf5bNy0H0PjY0yuWs3atesYHqmx3/4HcNDmgznkkMM46KCDWbNuHdWREZxCAcOyGB6ukYKyT2QE0wsD/CjEcYqEUYzrFnFsF1CefqZpkmTMZY8b3xsMgeXYjI6NZQZ6HV0z8Hs+GhpxGGdbWkkSxQReD7/XU44qqBRaKtx4qSjLYF8OSnLqA/Wn1+3SaC6i+FiClDHIBE2TmWlPkqYJ1eoQ5XIJw1Sec6ahpM00lUT9IO8Hgvz32d98/Ab12fl49nc2g2P8wCAADUG70+aEE07AcVSspGVbBKHPSG2YO3btZGxsDNuycW0Xr9Nj+7btJFFCiiQhBU3FJQpAxilhz8Nrd9i2ZQurazXGh8ok7Say3ePsk07gMUcdzulHHs4G0+Cpxx7H8x5zOies3Y9VhsnqIpQrFXY04HtXb+Hjl93IxT/4Nd/4xRZ+eN1OGtiU1q/Bc1yk6+DFgrVrLcpFwS9+2uWf//FTPO70f+EfXv0pnv2ci7jiSmh0oJfC9GKXV/zDOXzwI2/iJS9/Oq95/fN567+9muc8/xxqEzZhnLB6TQ0hAzQSbrr+t8gw6K9gLXOgiiUIw0RD5zuXfYfID0njlLHRMe7ctQtN0whCn6FqBbegPCdHRoZZt26dUimmygHlgYygyDQnGiDTBHVnitoEnsfGjRuxHQeha8rendX003UDpHLcEUhMQ+eaq69Wx2Ye4p1Ob4+SRfl6kqgNpKIFLG0m7yfUWl1OBQe3Z6lq8u6afGha/x7uCtUfe/tmBcux18TWMqd1AxDZF30yN6AK7LsXZomtVSX32b1UcleVGpTUpNHudDnmuOP49uWXozk2SRxnsWDKk235PdwXiD5xvjvkqsXln0MiJbomiMOQIw49DB1oNRaJQp9SoUirucgBBxxAvbnI9OwMY5MTXH7FFRxw8GbQdVT+FaFqt6URpmagoVSwnW6bolvA0HQ0BEGg1KsA27Zu5a+eci6tuWkW63VKJZdVq9dwy5bb2LBpE1GScsf2HTzxSU/mM5/7AmgahmmpOmiounaubWZjtZcHuxcQpPzXRR/ita/5B2rDIwgEcRhhmzZp5nGK0AjCiM994Qs85swzFKHQdJJMlfVArp8vayFU/bn24iKnPOpR+N0OtmmgZbZYIZRazXZdoiTFCwLWrF3HNy7/FsOrx9GEQZrExF6oYtu6PoYQfPPSr/Dql/8drkhxIp+STDn9mCM57bhjoNMhnl+k5KVUnRI+GoHrMG8IPnbZN9mtJUz7PnapCGiYiUCiEWkaniloWwIpJKUowY5jDBmjS4mWakh0Yk0n0iWLUQtryKAVxhxwUIG3XPD3BL3dHHnYanbt2IrAplKaoNOB2akeH3jfp9m2pU1Bt4k82H/DgXzzm5dRGK2BZSORxIZOKDR0pT3lda96NR/+0AcZHx1FQ2LqOgvzs9RqNWzbZnZ+HqdQZGikxpU/+hGjExOKgTyAsSNnEQKSRKXdMQ09W2eSwOsReB6nnnwSU7t2qUxJYYBtW3TaKoY2SVN6QYAwDI497ni+9o1vopt2VnRabWRzZUkSxxiGThoGPOmJeWLrIiKFJE7vV2JrKfLnl0ipQi8KjsvW229XiQLWb6DTbqlfZ32l6E3eZ+q8e2dP94z8V7Zl4/s+nu+h6Qb/+V8XIcNQ5fTNJX2R36l6m18zlaBnca0ria33jn1KfmQdmp9in7xk2TXUhBisjr0kAaoJ0j9qaYJkM3nPa+yl0vZ9aHu/2eVQqrGlgqBLLU5iVcfPsnjBC17A1q3bcN0CGjpjo2OMj42zY/t2oiBkfHSMVqPB1O5deJ02IPEjHy8JCOJAeSgmERK1q64Uy5iaQeD7SJn247Tq9Tozs7Ns37GdIPJZs2acVasmuPHG29iwcR3dbpupqd0MDVV4xCNUTbzcppU9jiohdc/jfg/I+q8v7eWfZej378Bxy1fB8olxHyDIEgQAhqZTKpUYHa0pSSFNSGSCYRnomW1UphJSSMKYTrPNzNTs0u91JRmD8jaM04Qdu3YoO7DfQ09Tjjlof45avw4xN4+z0GCtpjNCihv6FD2fchBRiWHzmo2U3CHs0hC+7uJrLqHmkAgLiY6QAo0UQUIqElJNkmIipYMka9IhlQ6F4jhxamE7cO7TzqZYSahNCKamr0e36kh7li7bSe06aw8Y4tQzj6M8Am0vwC0YNOpzNBsLkCYg1LOlUhVxSrMk2J1mGx0NUzezlG9gmCZxGhOnKkBeCnAcW9mx+5vB+z92ZOOnKX0LmlAMRH0hsiQPBoViUU0bKZVjjARdN1WybklW0ijF9zx63S6Qaz72LtTlRPv+MpzlyG3yQghcx8UPfK6//jouvvhi3v2ud/Dx//4YH//YR/nEQPvkQPvExz72gNpHPvRhPvrhD/OZT3yCb33961z9618TLC6qHH5764A+43ogK+//Fu6W+f1fh+M6hEHAE84+G8uyiOOY8YkJdu7ciWlZeL5yHTcMgyRJuPLKK3HLZfxeD9d0sHUT27AoWQVs3SRJY5I07quV0iRBE0ol12m3qZTLXPWb36jMFpkb+MzsHLVaiTiO2b5znjVr1hCGIadmeUSXwzQ04ozQ/bkjTSW6rlMolVi/fr0ilMu8HQY/k1LSbreZ2rkLMxFoaYKBwLIsgihC2gaBlnL9bTfTTSOEbWHogo2r17G+OoFW9xgJdWqxyYiwsYMEO0xwYokdw6Gb9sfVdCyhIWS2NcycpDQJugQ9FeiphpAGUpokQifSNEJdEOqSSE9ItRjDSAh6PQ7ab5ST/uIILDOgUEzw0jq+1qAj5witJrHTRZQTjnv00YyuH8IXEOqSqcYcu+dns14QIHS0VKAlQAxet8f09DS6rmOaJlGmjs/DaOI47ntOVioVHEdtwPJ+fDBwF9V+5txlWVaWdWnJpp1/l/8mX1PNZpNGo6E2MwOe1g81wjAkkUvmA8d2qNVqjI7WGBmpUavVqNVGs781aqM1RvLXtez16P1rI7UaqybGqVaraIbeTy2Xh1at4MHBCvPbB9I0RQDtTpvDDj+MF/z1X7Nrdje6oRMnCc1Wi9roKKZl0mg0KBaLfP3rX4cszkrtfMFQ1eQw0DCEBkma2UHA1I3+PnVhbh7DMLnsW9+mXC7juAWmZ2ZpNrusWrNa1T4rGoRhyIknnsjhhx8OKHtW7tCR207uSnL+/KBpSq2eE7vVq1er2McMYVajMMmyf+RENY5jFusNDKGDHytNQB67pmskls7t0zvpJiHF4SGEZpAGCcJLKMY6q+1hrE5MCQMzkZgJWAkYScrkSI0kDAl8f0mtknW2JkFLBUbG/LTUAExSYRBpGoEuCHWItZRUiwn9FkEHjjx4P0wZEActPL9BZcQh0np4NDAqMYHWYtfCHVTGS9TW1DBK0Ap7NMOUmWYDTLMfzyhiiZGAkSrbcc789Ky8lcwSIuROJrquk6YpQ0ND2Bnzk/LBZ36D5xO6jmFZjI2N7bFpyccwh57VCW21WjQaDZVSL2N+e+GpDzpcx0UXOkma4AcBSarU/bbt4BYKJFnSiThNiJOUOElI0nTgtaoZen9akiZUhoZUdftCAdtR1ywUi/3E8St44FhhfvuAAMIwQtd0NNPkda9/HRvXbeTmLbeweu0aoiRGM1TOSylUZpXpqSm+/dWvUiiW0IA0jAg8jySOEEhMoeOYyg4ahyGO7RAHIUhYNTnJ97/7Xa695hosw8qK+sLEqnFmZuewLJuRkRpzCwv887+8kUqlAoNhFahK7gCWmdlYHgbICWReR07LcvuleQLljBLmEo6Ukm6no9xl+rGSEMqEGEhNnXq3DY5FomsEUUwcJuiJoCgc7NhA76UQpogETKFjaqqSvUglaeaS31eRZ/cpEOhSMT8j1dBTA1KTFINY0/uSX6ynSJGgEeNoUNKhoKUQewRhh0SPMMs6ZhkSvYeXLBLRRbMlmmOQmhBpIC1Y9LyM+WXGnTTF1sDSwOt0qdfrezAUss3SILOJszp9gxxlbxLb/UX/XIMMVdMYHh5WXp4DHtM5w1OHqLFVTi6d/ufLJf+HAoNPb2hqXumaQRhGLC4uMj0904/xzSXXPG1eilSq57vm4r9PbWpmmvmFBdrdDn4YIJFLscQDYVKDyO/7wRu9hzdWmN8+4DiqZlm1WiUOQ1Zv2MB73vteCsUiW++8A7dYYKFRJ04TqtUqYRhSHR7m3/7t31iYmQEJjmVTsB3SKCb0fKWvz7RlZlaBvdftggTLcXnHv7+97xAUhBHV4RGCMCKKU4RmcMeOGV7196/m+OMfCZnaFCH6EpGUSlpVeHB2739MDIYoDA0NkSRJn8GZpomdVctgQLqI4xivq7x5lUJZ9aemqeD/KIkJkxinWKDV7eInkiBNSTWDVDPo9AISw6QTx4SGTmoaJJpGqmnsnp1BGDq6bRJrEGuQaJAKZTzTpMBIBGYi0BMNPSs2mwpIBCSaJM0CSUuOw3ABdt62jbJVpGgXMTSbuYUWTqFCuVyh1+2SRgmrJ1bTa/s06y3CEJxCBcNxaXkBUjdUogMBmrbkkeZ5PTxPpYGL47jPBHOJT0qlUo6iaA+VJw9ySIEYTAwxwACLWZrAQeZHrnEZyMcaxzFhGPZVtMkfqNBtHEfZtQS6pvquUhmiVhtlYmJChRVpmpK6NaGaUO9l9jd/jvvaEAK3WKRSHaJcqeAWCiqTU+b8EWZFqPdARldyv4oVBnjPePBm+cMQelaMdmFhgdDzeOLTnsob/uWfKZZLhEnc3/0laUqlOkSaplx//e+46MMfYW5qChLl1erYjpIcsokZez5oKgdo0XHZuW0bn//Up/jVr35FqVTC0A3CKMG0XRZbHXRDFdp99GNO4o1vfBN+EGQLTU1xz/MQmfTzcLH3kfW/YRiQpko6ySTdXGIwDKOvuovjuL8Lj5LMmSP3kJAS2zDQAb/TRUbK7ppKEJbBbVO7uXl6N13Xpm5qNF2TBUujV3Lp2AaLIqUeBVyz5Sa6MiaxdUIdQl1JYYmWe7nl0p+GmYKRqtqTuUcgqGM0qaHFOmUTtt8yx++v3kLJGieNS+h6Dd+zIXDRfIeSNkJJG+b3v7qZ2Tvr6DEYOAjNpuMFJECQquq2wsioXxoTRyp9mGEoVXnO/HJGIrIkDVEU9b/LNQcPBnIn8j5Bz8+fNdM0iRJl187Vsup3uUenYs45tOz1H0LyQ4JpWBi6iZTK49j3A+YXFmgsNmm1OwhNQ9N00HXQdET+WtcQD0Jrddp0vB5d36Pr9egFyr9Ad2ysQkHd54CTywqzu+9YYX77QBhGeF1VQmdi1Sosx6bZqPPqf3w9f/uSl1BvNBgZG0XoGrPzc6xZs4Zdu6ZZs2Y1/3nhhfzkRz9m2623ZbNTKEkvy/kURxGJ79NrLKLbDtdfex2vftXfUy6WCP1ALSzdIIhiJlevYcfuecYnVnHxxV8mihOcYgl0vZ+Jw/d9QHnIRVH0sGCAfeKpKSbvui56llFHxYYpW1+uwsuJp6ZpmXooJcmqmQshcHQTE0nU7qKFCYkXUCgUsEpFrr1jO7+47WZaFZf2aIXdjka9aNMuF1i0TRZkwnwUcOOdd9CMQnppohhf1mKRSX8Zc9NT0GWKLpPsb4ouZfa5QEt1vHZEGpu0mnDZt38OYpSeV2Z0/AgadYvOgkWRVVS1NXjTkqt+9Ds6UyElrUTclZAYeH5EAsQiISFRzE+LQEbEWbaUXHrKGUn+evC7XMJ+MBlLLonvwfxy56RMumNAvZlvXPLfkW3mBqV/HuR7vDuEoXIs0YTAdQtZWTC10Wx3OizUGyzU69TrDRYaeasv/a3Xs2PuT6uDUCEXURLT9Xq0Om26Xg+Z2733wu36as8/f6XPHwQPGfNbPun3thj+pJEq1ZplWeq9plEZGiKNY/75TW/kC1+6mLGJcXbumqIyNMTWbduYmBhF01Ti5Fe87OV88uOfYMdttysnlySFIATAKZXQHYeFhQXe/pa38NrXvpYoihgeHqZWqxGGEVIImq0O9UaT5zz32Vz0Xx9lZHwcTTeUujNTI0kpGR0dRWbecK5jYzyIaqs/FoIB1U4Uhn1vt5zR5ao8kdV6K5fLfeIapQmxJhCOQ6vXIU1TdDS0KGHEKlDRLMxEQAKRpiHLJtfM7uRD3/smX91yLbuGHbbqKbsMuDPy+eHvruOSK79HaFlEhkGk6wRAahqESEKZqhgoTSOKInQNNBJ0GWOkMVaaYCUSKxEYiY6WWghRRIoheqHBT36xlbf8+yfohWNIfRPD1UdQKxzJhHM4i3do/Pe7vszvfnwHdrdIJR1GdjSkD+ViBQkIQ8OTHjExXtACW6AbgkqlQqfToVAokKYplmX11cZSSoIs40u+NnXDwNtb6r/7geWqzDAM0QwDzTCIs0QTBcdS9Tsz6d00TbV+stqWnudhGAalUknlMM28QFOVWwIp1XuZSf52Vl9zOcO8P9B1nTRzIAPw/YBarcZb3/o2nv6MZ/CiF7+YF77oxbzwRS/ihS96MX+T/R18/0Da+c99Duc961m84K//mpe+/OX84//7f8zPzyPMrErGPnA3X/1ZIecT+SZt+esHA3cb5L5cpBYDuwqRB7lr+pIuX0q2bd3Kk5/4RBr1ORzbQtc0kljVpjM0teNUlxS0O12OPu44LrtCBbnHUYSRBVIO7gD/GMgz08SxCqbWdV3p9XPleppwzVVX8c53vpNbt2zhd7+7kUM3H0Cr2aRcqrB79xTDwyOsXbuWI488klNPPZXNBx9Mq9Xitttv47rrr+eqq65i27Zt/SKhc3NzAIxPTNDzPebm53jhC1/I29/+dirVKs3FRVUz0LL7ff5gxTUNQiBVkPs//AO1kRGEhDiKsU1LBbmj7B39IPczsiB3XRsIcn9gdxbHiUrdlUriKORT//0x/uHVf8/6NavptFtqPKTAtl063R6W7ZKkKX4Q8k9vfhMv/PuXIdBJooCCbiJSAXFM6vd48pOfxG+vu4bqUAmSmLDXyaLwNCq2zUSlykSpTGv3LL3ZBimQCItFW6dedegNF9jtd9ANC6OXYAYJVcPBRCNMYjQpMZIYQaLsfJokESrQV2Ig0QnCBKdYINIimlEDUUlYu3mSDYeuYXK0yIiM2PG7W9l2/S78usAMh0mjAgkuqWkz3WvwgU98hHP/6skkhCT4OOjEiUdBL/C7q2/iKU9+Kr7Xo1Qs4ntdXMcmigIsW6mOozih3fM459yn8InPfR6ZSsI4xraXGOL9hhBqDLPyQ1EQYhoGaILY9/jH172OT37i45QKRQqFAp12i+FqFa/nYdkmYRLR6nYplip8+/IrOOjgQzAtGz8IsW2rH+6mwgETQt/jvGc8nZ/+z48ZGRpCxun9DnIn+zRJlGbBMPS+P1CaxARBgFtwswfN6EH/dfbrzN57/yCJQg9d1/A8j06ng207VEdGAOi0O5RK5WylLr+GUrCnZGbIP9Mgd1WLWgW5p1KiGyq1pGbofOe73+OQI4+8h/G75/n7wLdID0P0x1OAntkflvz61ERB0zjmkcdz8SWX8M///M885tSTmJqaolQsUV9YoFAoEEURt956K1/84hd58d/+LaeffjpPe9rT+IfXvIZLLrmEm26+Gc/3CeMI07ZYvXYN1ZFhGs1FDtx8MJ/9/Bd4z/supDxUJUlShoZH0A2T2dk5lYniLhP/4QPDMJByyUGj0+kgMuceI0v+3W630XWdcrnclyB0XWd0bIxIpsRILNNWv+t1QUo026VaLCNj5aIeAqFhEBUL9Io224Me1+7eyU+uu5GbZ+doAeCCNEn8hKgVkLQC7MTAwsDUDTRNI4pjUgHoGn4SkugpqSYVu0sldiKxEtBTjRQDuzbOPBo7YkHTHWZRlLnh5iku+8Yv+Phnr+Q/P/pjLv/BLrbtgFbTIvYdrLSEEZnEnQBHMzhw00b8KE/VpwLchWYAGtVqFSllv/iylkml+evczmZZlqqsnqmQlU31wVEtDqoo+3a9LH610+nsadPL1hnZxjfOChO7rstIRvTzcIc/BIQAQ9cwTZ0kSfH9AN8PkAjcQoE0VVoGmcqsDb5W5cfk/WxpmmCYJpphUCyXmVi1qs/4AEzL2oPlruD+YYX57QtpFsCsq3qCCEGaOVN4vk+cJgRZ3b7HP+EJXHHFFTzqUY9i965dlMvlPdRJtuNQKpVwiwXKQxUmJyeJE5V/Uhg6Xc/jlttuZ8ttt3PAQQfxz296E+9+73t5xjPPw3ELeH5Akkq63R4LC/U+MXg4Q+0MszJSuk6r1eo7u+SEVM+8FnOCLqUkiiLWrVuHJjSiVKmZkYpwomlg6BTKJRIkMvPiTDUdDAvNcjGcIpZTwTQrHLHpOM44+gmcfOjJHL/pGI7fcBTrC+OEU01sX2KGkpLp4Ji28kqMIxIkQRoT6kKFJKAC380EzFTlUIk0jemgR1MHuWaCNaecxHHPPI9jn/MCDnjCuaw/7iRCAXKkTHH1WqzqJJG08P2IJIogjrB1wfq1k8SRijlU0aQ6QphINCYmVjE0NNTvq0Gv2JyJpGmK4zi0Wi2iSFWBz+MrH2yI3ONTCDRTxcbmzE9mzi1pZgtU0paK2xwbG6NarWbqzgeHKd8bhGHSV2gZhoZpKvNHGKqcxKqvVKiTyBxelpqmwqD0+9c03cAPA3pejyBUMYYq3tDHD/x9Js5fwX3DSi/uA2GYEU6Ul1ocx0gkum5gOw6JTNF0nSgMufnmm/nrv/lrtm7dSrlcZnp6Gt/3aTab1BsNer2eMlz3ekxNT3Pr1tvxo5DJVasYn5xgYtUkf//qV7Hl9lv5/o9+yDPOO49jjj2Wnbt2s9hs4RYK6IZJnKSMjY31vfMezkhTxfhyL796vd4P0M6ZXKVSIU1TOp0OxWKROI4xTZN1a9dhoSOiFD0bP800wNBASCrjNUIBsSbQdANTM0i9mKjRw+ilDGtlnnTS2Zx86Ekcs/ZwTtn/eJ52/ON41klP5OzDT+T4NQcz5GuYrQg7FhQNGySESQymDraFp2sEhk4ilCuonmromSYoMKAnQpyjDmT/Jz2W0ZMfQbrfKsTGVYwfdSgbT3gkx/5/5xOunmDb/CzTsQ8Vl1BPCBOPYsmkVisyPFTA0JQyVUMnlhItdSAxsdwCa9asodfr9T08DUNJqbnDkMgqlXS7XTqdTqaievCQM1gyBteft1JSr9f7mxcGJMOc+Q1uZAzDQGS2QHXcQy/z5NeJwpQ4kmiawHFsXNfJ5mHmaCUliRz8q5rMtEX365+UOI6bOdrYyqs023wLIfpJ7FfwwLDC/PaBQaN5GIaEUYQQKlYMBIZucvu2rbzkZS/l5FNP4YsXf4VdWdb8I488kte97nW8693v5hOf+AQXffS/eMc738k73/lOPvbx/+bSr36VT3/2M7zvPy/k69/4Bjf8/ve8+73vZWS0RrvbYXLVKoIoYmx8gkKxhOeHRFFMpVJGZqEND3coKWDp/a5du/rEMyeYufNGGIbYtkoCvP/++zM6PIIF2FJDy1Snhm2BBqlI2XjIQXSSkG4UIIXAtRwK0sT2YVwvc/j4fpx00PFsKqxmPK2wTq+xOilT65ocMbyBZ5x8FhvcGraXQCfAQkfP4rp0y0QvuASGhq/rJEIHNLQs52wqIDQkpcMPYM1fHEbxiA3MliS/a+/mpvYUd3oNdoRtjP3WMHTEZtgwQVN6LCQd7GEHowCzCzs55ND90U0wdZUuXUdHRhqm0JGxQIYpmzdvpt1u9yU5MVDeKZec883D9PR01rdK5fxg4C6OJ9n71uIii4uLd1F75owyzRxkut0uhx52mJLas2PEH8hhTtfAMAbLiEmiKMHzAtrtDgzYl9Rr9T6nD2mWKef+tBRJGIX4UUCUxkhAE5qKa80d8O4GD33vPDywwvz2BqmqpQPIJCGVEsM01K49DpmZn+Vbl32Lc845h0svvZTJyUlWrx5HCMHrXvc6fvzTn/LK172OF770pTzzec/lr575TJ7z/Ofz/Be9kPPOP58zHncmZ599NmeceSab9t8PL/DxAp9ypUKxWALAMk1MUyeKY8IowrJNfD9k167dOG5ubL8rlArsod8ZP9SQGYNL4ph2s8n27dshI+AAjuP07Ua5l18QBJx44omqQkYMrmFBxvyEaRCkIaEOhz7yaKyhEnFmQzRTnVJqMJLaHFxdzemHHE+pLRgJXUbDAm49Jtq2QHpnnZpncPDQak7Y/zBGdRfZ8dHjVKWuA6SQhKQEuk6gGcRCV+nMM4t8oqUEesr4wesIR0x20mLa7JGuKlDab4zihhG0ySK3dKapHX0AG057JIy5zATzJG6CXhK08TjhUceAlmDqgpQUHR1DWogEiECmcPzxx/f7SmbqTpnZ3GSmagyCgHa7zfbt25Fpmqk/Hzj5VBrOPQPYQZU02rlzJ+12u38f+b3IgfydpmkihOCEE07oM1HZV3EPXOghQhSlpIkK3TNNDUMXmIaO69q4rpvF+WkqN69Qf1XTEUKFaCiV6H1vmtAxTQvbtDGyAHuZzf0kSej53j453EqYw73H3Uwj0W9qhzP4etlhA5AZAcj3Qktm2cFRycT7LEVUKlRwbu5t9GC0BwIpICIlRSI1gWlZWKaFBizMzHLrTTfznPOeRdj1SGOlQup5Hu98z7t5xvnPAssk9v2+pxOpJPYDZUdEYDsumq4cOmQicWwX13azWnwxSZZXtNPuYZsWQ+UigR/iOhZr1qzG94O7dnyGB/rsCnetG6beZxgYX0k+dnLP/n8Au/P8zABJGtPttJmbm0MmKZoQaGgUnQKdVhtDNygWS4RRSBTHHHHkkUteuRkRT1KVCSdIEkBj/4MOYtWaNRQKRZIoJfZCkm6IFiXU7BIHjK9BNloUwhTNj+nUO5jSYsPkRsYLVVo7Zjh6vwMZLRRIY5+QhJ5hsKjbzOIykzq0rSoNe4gFu8KiVaJtuniGRaTpJJqkPFpBFgQ9K0QWEhIjZsZvsatRZ6qxiDs2imdoeJqEkoM0Ba1ei0TGjBRdDjnkUGXjQ8fr+QiUvQ6yQrK2xiGHHorjupTKJYTIvK4TFfZBqiqAhH6A53nMzc4QJxFxHD3gNSQRhFHc34blGxmAwPeZnZklDIJ+Bh4ywp7KtD+P3EIJ1yly+OFH9O1tSZoSp4k6Z3/O5bQE0v4czLZ/A/SEbF3f5dlUch71fXYMKIanaRDHEt+P6HZ9/CAkSZT3Z5qmpFI1mSW7WGpp9tz3syGJE/WccZrgBb4q4YWGoZsYhipZdneQWZo1ieoX5dmp+gyWUsEMrm0hlYNWNmrZeTLsZTnLjL4toxTqr9QUe5F78ozBPh6EOkYp8POaIHvjPYPXAeXOKvt1HFVspBrnvVxkGfbB/O76wz0mEYPZ1bNvZIqUKUkSqwUkU5CJOlpTyWilUJnv0pzxaYAOiVCFRyMSYiQxKWn+EPe3Ddz7fUUqAMvEF6mKF9NVrkyRSm6+9nf83fNegObHrBufRE8kpm5w3F88knP+6mnoJRepgVEoKAYgBJgmhuuCppPGKX4vgFQgpIYujKyUjMDUDGzDwhSq7mGlUEAkCXEQY2k6MgGRgmvlyW33NjG0u7gV3x8IJDqKCWpClZPRNNC0PDg6IkoiCuUCaBDLhDCNiGQ0ULx3zwl7r5sgO09M12tz1VW/JokjLN1ASzUSP6Yx22BydJJOs4tMJJ4fsGrtGjYffiiabWTlhBJSEuyiSyITnKzfJqtjnPLIE5nevgtHmNSGhnEsBwOD8fEJAq9LSYsRUZvUkJi1Kl7BZarbo+OF1IYqFERM2ZZotqSpx+xMYhaNIu31j8A49vHYjzqb4qPOorl2M7tH1nJLYrK1G+EMjyGEoOxaRH6LRA/ATKHbAs1idGQ9JhX01MFrh4xWx6HlMTYygWsWaC50WLdqE6ee9RRILAytQLFQJUGiZRWBzIJaV+v338SBB29mZnaO0A/RpE7BKhD1IlzDQUs1XMtGILnmmqsIYx+nYNELe9ka2svY3JsmwLQMgijCDyNlP4tjkFByC1z1q1/TabX7M9cyDYIoIEwiSkNlwjSl0/U57vgTGJ9cAwh8PyCRKZZlEqMy2iQyJiUBTaCZOlITxDIlQZIK5f2a04M0own5e0U0lz7r05ts/ee/1Q2B7ZgUig62bamiwVk4j6a2HHv9t+fm8T42CYZmItAxNAvXLmIZdv/mTd0cWPt7IhcmImISJDGSRMuEDF0qip+RB3U9ZTNeSsSg/kpSgjhEswySWIU5xHEEmqpRqhjOUj/tSXcVI1tq6j5l/lWfl+RUWh0v0UEagK7Kc2WbgSTNcqei6ocr0UAgRVZSOBu/JB+37Kz3hPtMJfd6YrHUqXnWLdU1DPxCkcO+fKCpop95A5Ht3JZ2LPe3PVBIwE8jEDpBHCKRREHI4tw8l37py3QXWxywYSM3XX8DSRhx5507OeSQQxipjVIsVYhRQUhxFNPr9uh2uvieTxInaLqucikOzttUSYB5I5UQq3yNuqFjmga6oSPSlCQrR/NQqzfUwlg+jgNNExTLReYX5pBIgihEConQBGEaPuBxcCyLWMYMDVW46aYbaSzU8T1PMUA0im4Rx3LpdrqEYYTv+5x08skccuihGTFTRGBJC7FELgSCM047g0qxzMjwCPV6gyAK6dBD6hpRFCBiDy3xkSIhNQSpaRBrGkEQ0llsQRyrAr+lEgt+BJMbOfDc57H/KecyedzjWXXcmaw78fFsPP0c1p/6OCqHPIKgMkLdj4iCmE59EQdB1GpBswlDI1h2mV4rwtFKtGZbDNsVrFQHL2J+eg5N6Pz/7b13nGRlne//fk6uXB1muqdnhpmBCaCAKNHEmtYVXDCsgiggbrr39/N3XUFdV3dX3dWrrvmueg2Ys6gYQcEAqEiQDMLA5NQ906nyqZPP74/nOdXVPTOkYYRd+zOvM1116tSp88Rv/n7DMObU054JGKBiBrNlnKI4eiElkGKpxBlnnqlUnjGO7eC5Pnknj4ZG6PloQmCbFjt2bFd3SDGMR7wtHBBpn5NLkiQQRWiWzeZNm9CFVBsKIQjCgDiJSVVGk4SUZqvDC17wQjnVDBNdZXtJQUmMqWKm1fiqBZEKuSmCInB9e0I/scswt2HPv3a/+T7v2B9zc2v+0n60kPVPF9YnXXgcHKlAEikyjdqcpAzyPUjqIivEg5ZKmatXrqunkcte990/64m+Pj5oD+134gBQbZyT/LL3/W3NzsnXB/rNA/7+QfCwZ7lA9cfCD6An4Qgh0ISQhSgfDlK5QLLmZWqQbIAeLwggDiM0II3n0klsemAT373sOyRRTG1mFse2Wb1qFUetPoLt27ahAZ7n9hanLNqZp1As4OQcdEMnTRMpGSdSUs4OkNJxpin1vC5Jn8cpAIaGbhoYpiGv7xv6A0+FwwdNkzlLfd9HIG2kpjDQ0VUg/AE42kd0QNd10YTGHXfc0bNV2bYtvRZ1nVq9zsDgIO2OzPp/zjnnkM/nSRP5/f5ZuHBG/tlzn8PSZaNM1WbB0AlI0IXDTLsJpkaxkCNv6xgiQsQ+BjF5y6DgOOSsHL6XUKt7xGkBIzfK8iNPYv1TnoszsJ7c0HooLMcYWMXQ2qcweuxJLHnS8ehLltFKBOgW3brLSH6AEasKokAxN4gd6HizHSpWkUEjj+3FzO4cB90ijWI8z8N2HM486y+zfWAep9vfxiSSDi1nnHEGxWKRrtfFsm3CSDpQoOLmNOVFee+997Jr1y61zheOxSM81D6RJHFvL4hVSaX27Cy33XbbPOeVKJ57jiwWsVKpcPbZZ+P7nmqrsh9ykHCHwz/l/8th4Zzvp18LP9sfSux6EMi5sv+9eu8f/Ov7QU7ph7+PZWu8//cXvn8wPCzid/BG7v9wWi8z+f6f9UNDyM5VNTxE9l1Qm/n8xj2S47GAachae6auYwgNQ9O5/bbbcH2XSrmMaZoMDQzSabXxul22b9lKu9Wi4OSJwhDf8wg8jygISPrq0AlNkxna+4i+EAKhclhmh1MooFmWDD4OQyLfJ+x6RL5PlBHFBWPyWLX94SAKQtqtFtVyBdK0118CsM1DrzkWxiH5XI577/0D9913H+VyWdbrS1R8pK4x05xl5aoj8HyfY487jhe+8IUyBVQf85Uxrb3XakmNLBnlOc9/Hrv27aUwUCEUKU61xL1bNzFem6YrIroENKM2Nb9BK2rji4BQT/C1lM17JhgPXKY8wfJjTmb1U57NdFxij+cwGRbZ0zLY1UiYjGy6hSHyq9dRWLmG0HBA2Oy4byuNreNUPcFIksOc6RLubWB5kI90jqwupbZlFztvv4dyscJwdYCZmRmOO+EpnPKMp8uGSNPdPOKXtdUwZVzcUUcdxcmnnCJrxSUx+WKBIAp7iRWECkcYHx/nV7/8peyfh9j0Hhry+7Ia+1zYijBNrrvuOrZt26aSGKQ9bs+2HRl24bokScILX/hCjjhyzTxnF4FUNS74Gehf/wfYM/dbF4favP8CyOZ61ifZ64Vtn9c3vTfyInm93KfmMP8G2T336+MM/c/Rd1q+n/ud7Lfk+35Jc+FgLXz/EL//IHhI4negxmUcnoT6q6SjNDsO/Jg9iIzQ9S207NxD0M2HxMKOfqQQgKObhIEvvT5TIEm47ZZbqeRKUpWjXOw1Idi3b4p2o8l/fuSjxGGIbVrYtoPlOOi6Lt22Wy0815VBymmK0PXMiKY2gD5k7Y9VEmDDwLBtTMfBsGyMfnfn/cbm0Nqe4aHGL0kSZmdmqFarUvpTbfD8bq9S/aOFSCVxNTSDy793OTu2b8dxHJI0pdVuE6cJpmVRyBeZnp6mVC5zwYUXYOacAxb7PNCcSoELX3cRo8uXMdWo4SGTVY83Zrju9psYDxrU7JB42MFcXsIcKxJWdabTNlubU/z2/j/Q1UrM6g7ltceRP/JYdgYWwdBqGtYwSWklLTHAVJpnxiigj62itGYtWHmIwJuYZddNd5Nu3ceYZ1CaDRgTedYNjZHzUpqbdrPvrgdg9yS5WKDH0lvzZee8AmdkCWiqTFJmd1nYOAGGZVAeqHL+BedTrlSYmprCyUtPxa7v4eRypEoqM3SdK6+4Ej/wsQ1rv/56JBCqJFDOsYGUwPew1Zy9/PLLSZIE25bjpGm6ZHWFTJfXarXJF4pcdNFFBF0P07ZJVBJzeW9B2rP6zJ/v8zb57Fzf3wO2acG5hd//r46FfURfPxyoP1Lmq4XlyexC+Xf+/q/ufTACtOCkfJa+3WXBvfsxd2bhNfL7Cwn8nLL04eHgxK+P8M7ruKzhQsw9TJLIAotJTBzL6trq4v2QnZL5HxWXqSQ/Pds0+6WiR3EcoB8fGVRHJmHUc2EP/IBmo0G1WsXrdmk1W1imiYZg7apVTE9O8bGPfJT3vvs9/Oaaa+k0G0S+j9B1nHyeQqmEk8+jq+KjaRRBHM8dKtt9lrU36HQIPU86CvS5iidhiO9mKa0UDjbxDhUHuGl2qlgoYOgGzUYDWxXo1Zgbu4dSmTw4Ugq5PO12i1/8/Of4vt8L0EYTUn0XR1QHBrh3y0aeeuLTeOnLXobveZTLJTp9/ZM9b29uKHQClxOfdjLnvuY8Jmam8LUUX0vJDw9wz/h2rtl8N7+f2cm2tMG41WWnqHNfaxe/23k3V99zIxsbe7GPWEY0OEDdMtmXwGQK8aADwiBx8iRmBU/PMxtrxOUKxbFlYNuQahRigbtxK/tuvJPm7RsJN+1CG5+lu32CLTfexh0/uwZ/1ySmkcOdquG3XZ5ywgm8+OyzQJOOLdKdTB4L5770CAaE4PkveAFPeeoJNLwWtXqdBOlVLPQ51WO1WuXOO+7gnrvvVv10KOMn49IE0gyiCZkNZWLnDq6//npKpZIMHUol8UuSBD/w6XRcDMvipJNO5hmnn06r1YIFca39Yzhv3WcbYQq9soaqc/o3+f5+6v/+vM/+G2Be32Tn+vaJ/Qhfn+1zDorIyI1afVde9YgIIH2fKXuifK65e2W/k52b+7//kOfmnmN/Aij6L30IHJD49TrsYIQP+WGvManctJM46lW6PhB690xR/o2oNGLyntJ7Sp7LGvKojvk/+4iRtd/SDTShEaukvOvWrcP3fYIgYGhoCFLYs28v+VyOUrFIPpfjE//nP7n4jW/krW99K+95z7v5wqWf5WdX/IQbr/8tt958E7fcdCO/v/EGJibG2bt3gunpKZrNBl23QxQGsi8FWIU8Zj6H7tgy4jYKSQIfzTSwc7n5k0LMTZ75E+WxRf/46ZpOuVTi2l9dA5pGFIYIoOjklbv03Hx55IfED7//Ax7YeD+lYpEU0Awdy7ZJBbS7Lt3AZ3hwCedfcAFLxpbR7XZl6w9CeHvzGohiaft61fmv4Sknn0ioQZIz6RDhFSx+svE2Lt94C9+86zd8+aar+NINP+Fbt/+cn266kV/vvYNO1WDGiohLBpOJy6zwiO0Y1/fBFqTtCFIdLIdWFNKKQ2JDgzTG1jX0egtztk3jlrvZctW1TPzmJjb//Fru/P6Pmbz2eqLtE+TbEUOaQ1BvMTI0zN/+7d+y5IiVIFIiJfWlfe0Sfc2OglBG1qQphWqF15x/PuvXbmCmXiNMYkyV8BlNqtxty6I+W+M7376M2ZmZQxy/FEPXEMi9wdA1fL/Ll7/8ZWZmprEsizCKCcIQTddJoZfC76i167joda8DIQvegtQImaapnOES6U2ZbXaqvdJRY47wZZ/1983C7/RtZXPnFl7zXxBZO3uSUN+8OGC7Fjj9yFNyHOd98kgkwAU3lIohNT/ShRek6rky55v+385usOBZ+r+7cKwP1s4FOCDxm2vcHOY3VP1VVJw0JU0TGfuSxCQHIX4Z5j2g8jQinbP5PdyHP5wQCdhZfFEUoTkOJ5xwgkygbBg0mg2arSbrjzyK+zZulNysJkMi9o6P85Uvf4mPfeyj/OM/voULLjifs88+i7PPPotzzz2HCy+8gGc+8xmcfvqzed7znsuLXvQXvOQlZ/PKV76C8857Fa99zav5f/72b/jHN/4D7/nXf+XD73svn/7U/+WnV17B1vs3Evte38SYf+w3aQ4DBNBuSVf1q372M0ih3WiSqvjErusueI5HfsxMTXLZt77F7EwNx3aIYlnOCKDVbhPFMTO1Wc5+yUt41avPA6A6OECn4/Y2zd7zHoA5KufKdGOP4487gZef+0oCLSU2NO7bt52klKNZtNmhBdw2s5trtt7FdTvvZGNzN24ZimPDaIM2+6Z2QNRCt2KqFQOrkEJzF9ZSAUGboqExUMihpRGB3yb02+B1sEKfapJy/NJlrDQc8tMNys0u7J6A3eNUCyVWloeopgaGF2Elgg1r13HOuecCMvZ0oapz3ppJIV+UfRDGEaHvc855r+I5z30uQhVozuXzvbJRmq4RhRFpkvDTK65g78T4fuPxaI7A94giGTTfabX4/vcv7wW9+75PFMUqT6UgTlIsx2HD0cfw4rPPpttxcQqyaGsm9adpShhIJqt3qJ/rET51ZH0yD+p87++8fWj+d/+rI2tXxhRk7eMAhP0A3dI3jvT2fcnMzBGq7Nx+BPBAyGiFfNP3d+51776ZV6parNJjO7vmIMSzbw4oK7H6/OA4CPGT8cFJHKEJiMJA2aVVUKFSzfVMVbqGME0M2+LWW25hdnZWufMLYrVhZYbr7LXveRTzBbZs2szmTZuIg6DXdUIZyMMwxPd9wjDs5f37Y2R2F+q/+swspPQqJx977LGsOfJIWu12T4VZbzRYPjZGmiQkcYxtWpRLJQarVSrlEvmcg2NbWKYBaYLXdWnUa8RRSNftMDszzfZtW7nrzju4/re/4edXX8UVP/kxX/vqV/jcpZ/lEx//Tz74gQ/wtn96K+ef/xpe9KK/4HnPfQ4f+9CH2L1zB5DSrNdJ4xiEtLX4ntdTZ2X9mKbK6UAI3IVq0wMgFZBkttss7VKSMTgy2LxcLLHx3vt477/9G9WhIWanZwBZCSOOQpIoIoki+Wy9G6d0Ox35Mo57n/ndLp56rjgI+OLnv8Af7r6HJIGc46ALWdrEyefwo5B9s9Oc/ZKXcOHrLgJzLh2XaVsEYQjK81j0ORH11HBqnrU7HRLggtddxPNe9EK2Texm1eqj2NOskQxUaFgGbsHCXjGMMVRiNmkz49VIrQRNj9AdAVGb1q776ey4hxFq2EaDYOs9DGhdor3bCfZtZ/VgDq1bZ3zLfQgRYQUe5TTBaDYZjBKWJil2rcaSNGVpLoc+W6O9a4JBu4DwQpYtWcrrX/968tUK9UZ93rLONrh5EDIec/f4HkzTxLRtojjif/y//w9PPvZYZus1XN9jcHiIZqtFEsWUikUc22Zy7z7+9Z//Rd5HcfrtZpOOUkEC0oErTXvj2480jgl8jzgKMZVncm12hve8+9/Zvm0rpWKRTqdDoVBgYHAQt+vhByHNVpuTTzmVt771nwCh7OryGSxlH0TNwTRNCMJAMkNC4LZaCMNkat8kna7PYHUAUzcoFooYKrSo2WwShSFTk5MYjoOrcpmmSaq8iuVcyQjzEx1BECCEoNPp9PbE7PBVQg0NSOK45yAnTJPbbr2VvJPD0HUMVQVl3mHIv4VcnuuuvZbI65KmKbHvoZmmIk5yPXW7rvpt6LRbxFHIzPRUb/8E8DoqFVyS5W2V9CCJI7yuS7fTIfA8xnfvwfc9DMPAMHTCKCBfKKDpGp1Oh2KxQC6XQ9MEV1zxEzU3Mk/8hMD3cDtt4kgWIc76ol6vI4Qs+J2Nr1D0Q3/nO9/5LvmY8xEEQa+QaxJHRGFIFAaEQaDyy8lO8Dtt4sDHME22bdrET37yY+6++645b6407U3i7HWaylpZzWaTJE049tjjOOHkk+l22vieh2mYpIrjM825GB+Uo0XWsMMFgdz9c4ro1aamyOULDI2MUHBsfnbVzxhdNkqr3cKyLfKFAo2WzIzv5HIy87qSAqXNQ2DoOpZpYpmmNP6nKbqmoavit6ZhYFsWjm3jODaWartpGlimKSelpqEJQZzEXHnFFXz3e99F1zWe9axnSe/HyUls28J2HOVhJ/ss66tUpbhKVOHQg0GQcustN/Pzq64in8shECRxgqHrUiWt3M6r1SrNZpNbb72NdWvX8tSTTqJZr5PEMU4+j1AqtdD3CHwPTakuTcsk9Dy6XVc+axRi2jaGabJp40b27dvHJRe/kdrMLCvGRhXhlSmwpmdnGR1bxtDQMG+85BKe+8IXArB7z27snPQYDOO4V9C3N0tS+SZbmJ2gSzlfoe23qRarrFu3ll9fex2bN2+mPDhIqBvUWm183yOfsykVcwgtIQg9/CArQ2UT6Yacs0KwYniQI4YrLLEMBhIYdjQq+ZC4sZuJe3+Pf+fNsG+cEZEySELcbiLSmGqlQqVcRo8SUtfDTgRPWruBe+++hziK+dSnPsUZZ51FrTbLwPAQHb+L3uddq8mYdrQ+qpgIWcwWYPfuXQwMDrJkdIRqpczNv78Z0zSo1essXbKEJE1x3Q7lUolGo8HuPbuplCusWb2aXCGPZdtYtkV9ZoYw8DENA6/rYuUc6aUMdNttup0OTi6HbhhoukZtZgbHtLjxhhv49Kc+xe49EwxWKxiGSRAE7NyzmxNPPIlmp43b7fKRj36UZzzzmezYsYOB6gBpmhBGocx6FEsp0Talh6qciwmB2yVnO/jtNpd9+9tYQjA1OUkURYRBQJqC0GQ9Ttu2sW2bU085hRXLV0inszSV+5wQRGEICKwD1K17oiGOY5nwW23ocSxDYdI0xXEcfN+TPgmaRtD1sEyL1PP43ne/y1133kU+J1PeSefE+XlFU5VuLghDhoeHOeGpJ6AZOo3ZWdqtFjnHRmgapmX1JHfbttB1nVwuR6vRIAlDTMvG77pYlonneei6JhnvNGF6eoqBwUHSKORnV17Jb379awxNI2fbNFstSuUyvu+j67KNYRjScV06HZc4jjjnFa/A93zcTockTnDyeUyVBHxy7wS5fF6mixOSkdJ1WUu20WgQqXJZByV+URioeDKZ4dwwdAzTVJtmStDtopsGOilGTgZt//xnP+NLX/wiu/ZMUakU1CapDN6KCGhCZkCoVqokaUKj3uDOu+7i2c98JitWr8GybTTDIA5lHkKBnJQCWVDVNK3eoj/o0dvxHj2iMEI3dCLfp1Auk0YhIk44+pijieKI73z/clauWE6qNt58oUCxWKTVapEkCY6TU5zOfIkpm6i9iae4636CrgmBbVnSKUgxAZZiArJJbts2zVaT7//gx/z4hz/gtFNPZc3atYSeT5qmGIbZywKfHamKletVpz8I5hG//HzilyYpGoJKucK9D9zPspFR/CDgrrvu4qSnPY1Va47EzjmEnid190KgW5ZaKDKRcafZxCkUsBynx5XGYYhuGHRaLV7z6lfzwANbOe2Uk5iZnqbValEoFJiemcG0LDpul4987GOcdMoplCplEKCbMvO/piZ5Ngc0FOHrgxCg6yYz9RmqxSqNdp0jj1jDqaecwncv+w5hGKPrNpV8ibyu0ZmdwWs2yBs6BdOEMMLWDXK6hRYmBPUmcbOB7XUoeG2cThOn20VzZ3Fnt7N30+20774Jdm7B8ruMGBpVQ4coxIsDvCjE7XqEnk9BMxkolNi9aw8geOvb3sZFf/PXYJnYOZtU09BVVv+FhK9/2rddF9OyeupiWV8y4JhjjsHJOXz9m99ibGyUZrNJSkoQ+MRRxNq1a5memuZ3N9zA8573PFYecQRep0Pg++TzeRmCo+uYtk0aRXiuSxJFOIWCtEUnCZ12G0GCrmls2rSJ115wAZs2beXkpz6V6akpco5DFMWsX7eeG26+iVyuwNe/+U2e/+d/TrPVYnR0FFROVtOStRuz5NYIcN0OXdcln8vJsCFN5yeXf5+vf+WrDFSq7B6fYKBc6TF5AkGagmkaNBoNup7Hi1/6UkAQBUHPoQqg3e7gez7OAbyGn0hI1drKVMJCFdzOcqJapkm9ViMOIwrFIm6jwdVXXcU3vvZ1fM8j70gpKmNQNU2b9xpgZmaGG2+8kec//3mMjI3h5PPki0WEpsv93zAJg4Bu1+0JKEKZrpx8HgRYSgNo6pos16QJLNuipEwTe3bu4KMf+Qi7duygVpsl5+RkLloB9UZDMvO2LBlmWZLxmZmZBWBwYIAjjjoK07ZwG026nTamrlGsVmk0GhimSRjKDEO62ntyuVzP0/igxC8jcq1ms3dxEoZ0Wk3CIMC2TOktpmtsvPMuPvWJT/DBD/wHO7aP85TjN+B2XbU8AeXcIherfNVoNOXDr17Fvfffz9bNW5icmCBn2ywZGsZwHGkMj2OiUHLZJLKM0MOibg/jkgdDEifouo7neTIeCti+YwdDoyM8+1nPZMP6dfzqml+xefsOVq5cgWHImnPlcplSudxLIiyD2TOpd44YZYRNqImcpimJKjUTxzEaMoltRhyziZUir6vVahxxxBEsXTrMli1buPrqqzENg+OOOw6nUAChEUXSRTwb+Ow+D4V+4pfL5eSZfskPOQFPPflk7rj3DxScHLVajR/98EcsGR7m2OOfIomRsi/FQSBVmmmKbhhYtk2n2aRZr1OsVNB0Hd0wuP7Xv+bCCy/kgfvvZ+2aVTyw8X4sS6aUsiybOEkwbYsPfOhDvPK8VxGGIfVGg2KphGGapAJct4tt271ECT3i10cABRAlEaZlESu3eV3TWLl8BU86+mhu+/2t7JuYxBKCkmORN3VEFBL7HjpQyOUxdRvf9UmChLxlkXY7TO3YRm3nFoLpfXiT+5jccT877r+F7qa7oLYPXSSMCI1cGKBFEYlI8USCl8akui43JD+iMVun2fV4yz+9nbf8yz/T9WX9SNO2absdmetSZePQ+2xd/eiGstKFH/iUS1IC3Lp1K0uWLuFpT3sqR65ZzRe/9BVyjs3y5cvZvWsX+VyeMAjRdA3dMPj0Zz7Ds5/1LI5av16u+XyefePjxGGIlmlmHAdD02RiAxW6Y9k2uq6zbfNmXvayl7Jv7z7WrFrFxvvuY9noKPVag3KlQqvdxvN83vlv7+I1F16AH8hML47jIIQgjmIMU3L+GfeuCYFpSqnXMEyIYrZuvJ8vfO5z3HX7HSwbHaWUz/dsi6ZlEQQBsapiUW802LNnnHwux5LhYQaGl2AYkqk0TBPHcXByzvzOfAJC1/Xexi6UJiY712q1ZDssC8txmJ2c4itf+jLvf9972bxtO8ce8yRct9O/Pc9BZYPxfZ8NGzZw/wPbue6aX3LfPfdwzNEbqA4NMbFrF9XqAGgCXZfrWdM09u3dK+N905SwK5N06JqQNjRdA1K8rotpGERhwC+uvppPfPw/+f7lP2LZ6IjMZCUErVaLMIlApVNMAcu2pCkNCHyfH1/xU/ZO7CFv2QxVB6hUq9iFgpTmhcDJ5dB0yeh7nofrugh176yvRJIkC5aNhNd1sW2LRqPBwOAgO7dtY2pyH6FSf7ZaLX593bXcc8/dTE9OsWfPbgLfl84GGkRx3OtVkYoeZ6qpJHBCaDSbTdauX8ee8Qn2zUxTKpVZtWoVzzr9dOxcnuUrV7Bu3TrGxsZYtmwZExMTrF+/Hk2J3A+KA7ruPnyEYYRlmQTKu7NYKknPVAGQUp+eYtu2rVz6mc/ygx/8gCgMCIKAKIpYtWoVnudBH4emZVng1RGGUjedEbd+KTBNUxnjp5Aq25uu6wg1GbrdLqZlYdoWrVaLTqfDCSecwP/3v/4Xrzr/fEAnDGUqtIzz6ZcyH4wIChI+++mP85ZLLmFwcBCRCuIgxLYs0ihBoKHrBr7vM7JslHqjSbvbxXYcdo3v4T/e/z5e/oqXk8/nKBQKUn2cEeAkodNqUahU5Hul0nrXu97FJz7xCUZHR9k7PoGp6RyxciXjExPkCnk8P2BoyTD/+73v5ayXvAQ0nTSFMI5lInCVIUSSbkhVzkIj7QuES9WUFIAuaHku6BqO6dBsNUjDiOGBIX72gx9z8RsulunkfBeigFLOopBz6HZcpqdnqA4swQ1iEt3AKpXwSKi5LWINnGKVOM3TiRO6YRvSANO2WOo4lLsBcb2OJVKCNCApWOQGyggB3VoTGi4i1fn7S97Em/71HTLdlwam49D1PVJkLllT06Was3+Sq00sEeCrArau2yGfz+N1uxRyeQQpSRwR+B4//uEPeeM//APNeoNVR6yk23EpFgrsGR+n2fV5+tNP5nc3/J53vuPt/Mu73kVjZoZKpQKGIcNzlNqQWCYOR9MIPY9Op8O1117DJZdczJ7dk6w98gjCIMS2bEzDZGpymk63y+DQMP/5yU/y5y/6C1zfp1wpE0QRpm6gqfCiVKSS809k1Y44lqE/+ZzDru3b+f2NN3HVFVdyzS9+gddxCTwfy7IoVcoEYUgul6PjdjAtW5okAp+u5zNdr/PiM1/Mi886mxOe9lQ2bNhAsVwm8APa7TYDQwN9HfvEg+u6hGHYMz3MzMwwMDBAt9vF7XSY2LOHLZs38Ye77+GWm2+m1WgQeh612VmSKCaXc3qOJVlcX/Y6FSm+51PIF+h2uwwMyhSAtUaLpz/9VF7xynNYtmwZo6PLqA4MMDg0LIlPVm1GzcvJXbulxiGO6Hgus7MzbNu+Ddft8Mtf/pLbb72VifE9RH7AQKVC5AfYpkkYRbhRwNLREWqqHurg4BBJnNBud9B1qQ1oN9sYhsGaNUdy3HHHc+yxx7JhwwbGVq5kybJlBHHEypUr5/Vb0lf4+qDETwomKZ7rkiYJb/yHf+DKK68gjkI6nQ5xHBEEKdVKjnKxyOS+KRzHZHR0lLbbQWjS4V0chPgViyVpXymXKQ8MMDNbY2jJMNu2bydIYnJOHtOWBM513V41509+8pOc9dKXykX3YDhE4hfHCYYxV0g1q54+Pr6H4aFBLNuiMTtLuVSi2WjwrW9+gyuvuJJdu3axd+9eikqs70l1SgLMjkwaE5kEuEDtGfoBliltnxnnqum6lIR0Dc/3KRSLzNZmEUqVuWd8ktNOO4kvfOlLrNvwpN5umMVdZoMehuGDqj4z4vfmSy5h6CDEL03BsizGx8dZu2EDtXqDru8xtnw5d/3hHk5/9jN5yctewnnnncfQyAikKe1GA8dxMByHdr3O9PQ0t99+Ox/+8IfZtGkT1WqVqakpVowtx++4TE1NMTo6ykxtlqeeeBLvff/7OPYpxxPFCUkKhWKJFIHrdYmTmGJehkSESSzV7Yr4iUQRwLkGgiGYbdQpVSqAwPNccpaNkcqA68133cO/vP2f+MlPf8qSSo7hwQG2bRtHKMenXbv2kSuUSNBo+y4YKXbeIkx9mo0WJja67RA7BgkpegJ2BI4XkfoB5YEKtaCDn9fB0pnYvRvhppx58km8+lWv5ty//x9QyEv7sWmg6Qau30UD8paDiJOe915/uxJNEj+h6TLJcxRiGAatZouBSpVGo4ZtmnTaLZYsXcLVV/6UN73xYtx2C8sw2b5rDyc/7QTaXpftO3fIrDpRxIknnsjrX/96TjrpJEZGRtAzJ5RMHalpTO3bx+9+9ztuvPEGvvzlL1GvNVmyZJCBSpU9u/dg6ibDw0vYs3uck089lX986z/xvDPOII5CvDDEUUxOzrbQUql9iVNJxButJr/4xS/47a9/Tbfr8sD9G5mcmMBttpiY2MdgscCGteuYnNhLuVxmujZLokojtdttSpUKKWBYJl3Px3ZyTE5P03G7jIwtY/369Ry1di1nnHEmZ5191uOeYvGhIJQZQwjBZz/7WT7/+c/j+z7tdpvA96WjWRShaxqTk5PYuo5lGCwfXYbjONTrNUnuRB/xEzKvMkKaNrI9a9++GketXYVp2+zZM85MrY1taaxYsQLLdsjnCzzjmc/k3e95D/lCgfrMLNse2MyHPvhB6o0G07PT1Bp1ul6XdruF2/UxDDA0nbFlo+Rtmz07d2EIwUC1ShhFtAOPlatXsXdiAtftMjg4iNf1SVPI5/O4HRev66HrBvl8Ac/zaLXalEollo0txy4V0UyDt7/97Zx66qmyFqLycwgVU3RQ4tdpK8MmoBkGr3jZy7jyyitYsXysZxz3vC5CpQKT3lIyX2Db7WDnpbpMuqDuT/xmpmdYtmwZhmnidj3arsvI6Ci1Rp04SdFME8uxlfFW2rG2bNnCJz7xCS666KI5LuNgOETiJ4Sg2/XmqUA836Ner7FsZITp6SmGh4cAaNRqFPN5tmzezEc/+lG+9IUvs2x0aU+1mRG/SCWlljbBg6tWBIIkirBMCwQEyltTEj6dlJR8ocDu3btZOjLCyMgI23fuoNPpsGLFCoqlMt/6zvcYXTbWs2VEUTTvdb8qdCEECZ/59Md5y5suYWjgIMQvSRkcHCROEianpkmVZ29loEoYhdSbdbzAw3EcNmzYwNOf/nRWr15Nq9Vi165duK7L9ddfz/Yde1h1hHzOOI6pVCrcd8+9bFi7lm1btpIvFnjTm9/Mua9+NctWLEezTOIoRjdMvCAgCCPsnIOu6p7FqpyMUMnVTZA17jLpT8ij02mRr5TZunM7Q8PDlPNFup0OhXyBTr1OoVqkNTvFV7/2ZT7wgf9gz3iTo49ZRS5X5g/3bqZSXYLtFIjjhE63jdBj8iWLJPXwGnWWWAV0BIltgWYS+wlxN0LzEjTNwBmsMht71I2IgIiCaXDy+mO4+LzX8hd/dQ6YOtO1GQaGh6l3mnS6XUaHR/A9l5KThzDer00Z8YuFDB5vdtoUCjKJdZzIZOitZoOhgQFQ4SSVUhnihDe8/vV88ctfZc2K5TL2z9DZOzXJ0NAQvu/TaDTI5/OMjIxwyimnEMcxY2NjDAwMUK/X2b59O1u3bmXLli1MTddZuWIpge+zatUq9o5PIFKB23GpNdu8+Y0X85oLLuDop5xAHATojk0QhjTabQYHB2i1XfKW9JBOUsmp15sN3vOe9/DRD3+YNEmpVookYcjI8BLp0CE0RJLiex5RFJEvSUYIoNPpsGRkhMmpKSzHRmg6nh+gmyblShXdMtm8eTN+GPA3f/23XPq5S5/wxC/zXtR1nbe//e186EMfolAoYNtyz87bNtOTk5SKRcqFItVymYk9u8nZDt1ul2IhL/UjByF+WXFm27ZpNlvESULHdRlbvpxyucL2HTtwnBy1eoNOx+O0007hN7/7nVx4Kdx72x2cfdZZzNRmiJOEJE0ZGh5kcGgQz+9imxa12Rn8rgdpwmClSjGXw+102L5nkspAnkK5RLvdJufkSJKEwA8ZGhqi2/WolMs0Gy08TzrF6JqG1/WIIqmRSE0D1/e47LLLOOOMM+b1Xbb/HZT4CRXqQJqi6Tpn/MVfcPXPf8maVSvYt28fpAlDQ0N4nozlKZdKtFpNPE9y/41Wc4749Yjg3OskSRkYGGBycpI4SRkdW8b0zCy1Zp2xseV0ut1enj/TNBkaGmLnrp187tLP8bq//uuFj7s/DpH4IQRtV6p+NeUlNFitIoQgiSM2b3qA311/PTffdBN7du+m1WrS7XZpNZvMzszS7XqYpollSYNtZphGEcMgCOZJhf0HadpT3wjlzWWaJrlcjlRAEPh0PU9K2a0WrXab4SXDxHFMvV4nly/wha98jScfexzLli0jiiK63S75fL5nF8gI4YEgJb9P8OZLLmZocAgthSiIsC2LJJJBxrZts233Lm66/gZSIXjzW/+RO+68S3rnmjphFJLLS9tNo9GgXpeu8qVSnnw+z+zsLOVymeHhYVzXpdls9lSzhqYT+gHnvepVvO51r+PoJx2DUy6DELidNppuYDo2mtCJlSSLCoQWCFTFN0TmDLJQ8kOqPbfv2M4Rq1eTIhOJF5wcM5NTDC0ZIk0ChCYzj9x51518/otf5BvfvIx202dkbCVCs+h0ugihUSoV0I0Ez2+BCKnmbPJBjNto4UYRVq6AYxZIQkj8mASNuu/hWQLXgtXrjuRvL7yQ/3XRX1PUbNJGiyRvo+UcZho1LMfBsXMkxFjouK0WRSffUy+BIn6K8CWyhCRhGGI7FvVanaGBQZI0QReCIPRJoxgn5+B3XJI4JpfL8ZtfXcP73/9+brrpJlzfY92G9dRqNdJUrtVmU85x3/cl56xcyNvtLpalMzg4iOM4hGHIzOwMRx55JA/cfz+GrjM2OsbRG47m4osv4fTT/wzh2PIhdZ1GvU5loEoC7JnYy/Jlo5BIU1HX65LL5fCDgHe+85189CMfppDPUcjnaTUalIslHNOi02xSbzY5dv0GJicn8cIAoWnEcUwUR6xevYYtW7di2ha2Iz1SW6229Aw2TTzl0PP3f/8/eO9733uA+JEnFjItEcAb3vAGPv7xj7NkyRIsy8LtdDBU4oJivsDeiXF0BL7XZeWKlUxNTmIqZ0ZZ6SHbL+cqQGhCYFnSpFKpVAlCmXpucHCQqalpyspsEUYyhGHt2rXcdMstzExPMzS0hO2bNnPySScSRhHlSolA7TlCF4yPT2KbgkI+TyGfp1GrMbJ0KeO7x8k5FpVqlW4U0HI7mLosM7Z7927CMGLNmjVs3ryNcrHQM3OEQUCapFiWLfdMXSdMU8b37eVHP/oRZ511Fu12mzAMGRgYkFo0TXsw4id6K2vnjh188pOf5KqrriJJEgqFgsy23n993+uFNxR9J1Vel/0gP1aSkipAqqks/kmS0FJeYBdccAGve93r5g3+gbDwGRYi+34m2mfnNFU2pa3cyWszMyxbOopIE3bt3Mns1BRvuvgSpvbtZcumzQwMVGk2GpTKZTzPw3IsLNvhOc9/AUcf8yROOukkjjzyyJ7hNVRSXLfb7UmDvu/jui7tdhvXdfF9n2a9yd69e2l3WoRhyOYHNnHnnXeQJAmr16zCNAzu37hRqh5Mk/GJcaqVCoZh0Gy1WXv0k/jFNdcohxFp/M9sjRnHeDAIEi791CfnqT2jMMQ2ZZ5FSZBT/CDksu98l2c8/3nUZ6a55rrr+OrXvs61116DqZwIMsKdPUcURYRhSKVSIQiCnjE6DEPK5TLHHHMMGzZs4OKLL2ZoeJilS5eCpsnYLhV+I5T6lnnhtWr6yNPZnyxOdv8Joa7JFj7qurkZmBLHEbpiEvzA53c33Mhll32HX/3yWrbv2EmaSlWy49jk8g66LghDnzgMMJIU27TQLYskSfE8n8CTeV0RGvlSidOe9UzO+quX8oxnPZPlo6NYmi5tlL2q8PNL7tDXnoUOLvLDvjb1nes/kbUviqLeSpROExppHLNz50527tjBZz71aTZu3MjWrVtJ05R8Po/oixl1HBlWkkns2dwGGc4SquTZS5Ys4fnPex7nnvMqnv3sZ2M5DqHvK5u9ihtWz5GFOaMSS2QbNMC+ffu47LLL+MlPfoLrdtAzm/W8cZvrl0ya6Ud/vzSaTTRNp1gqYhgG0zMz5PN5zj33XP7u7/5OOXo9cZHtX7t37+byyy/nF7/4BTMzMz2mttf8lL4g9QNhgYzbt3b6sXC6BYFUHQZBgK7rnH766Zx//vms37CBMAjZ9MAm/uWf3879DzzAuvXrqNfruK7bE5iyeL/+tdn/mwvn/ULIMk8HgyCMI5aNjfGa17yGv/zLvwSk0CHt4O6Dqz19X1Z4rippZ3Jysudybqj4ksONTDzNHrjdblMulxkZGekRrEcLoXTm2SH6QwLoTx2V4rZb3HzDjXzoP/6DX/3yV2w48ij2Toyz+ogjmJ6eJo5j/DBg6cgIr33thbzsFa9g+ao1mCqxNaotkSoho+syn2FGbFEDk6gwiCRJMHUT0zJJk4TJffvYuXMnd95xBz/60Q+5+uqrGKhWcJTdzrFtfF+qe3KOw2y9QaEywNe/9S1OOeUUyeX0qWD7nV8OBEHKpZ/6JG9RxI9Uhn7YpkUcxwihIYRGu+Pyla9/nT9/8ZmSTU9TJqenadYbfP5zlzI1OcmOHTuYmJig3W732gwwMTHB4OAga9askfaWo45iw4YNnHDCCaxbvx7Xkw40mZ5+IR7s+R8LCCFUFhLpYp09h5Ri6/zsZz9j+/bt3Hnnndx///29eZARhH5Cr6mYyKOOOoonPelJrFy5kpe//OVUKhUGBgYwVExsRjz0vrjWw4X++ZD0eQT7vk+n1WawOsBtt9zCr3/9a+655x527NjB3r176XQ6aJrGzIxMaJCtH13XKRaLDA4OUiqXedrJJ3HyqafwZ3/2Z6xcuZI0TXFdt9eXDzV+2TOFYdjr+06nQ61WY3BwUGpIDgHFYpFutytVgMUiQgja7Ta6rlMulx/y+R5vtNvSvgXQarVoNpvk83kKhQKapvUc7g4XCoUCURTRarVwXZdSqSSdoZRNzTRNJiYmyOVylMtlarUajuNQKBTYs2dP79rDBU3TmJ2dZXR0FMOQznlxHMuSZ5mwczDil00GTdPIq2Dvfhzq5HsoRFHUy2KQcZ0o541sQzpULJzgPUIE7N67h7HRMXyvy7+/69/4zre+hee6uM02hq4zNDiAAOqNOp7vc9555/F/L/0srUaDfLGI7kibpyQWD+5deSD4XR/7ALFGv7z6Kr7xja/zncu+zaqVK5lUev1czqFWq1EsFKg1mrS9gH9+xzt429veRqri+zIp97Eifl3P50tf/SrP//MXkGhCSkmqjA1AGkVMT0/3PLYyb9g4jhkYGMBxHCqVCsVisfdMtm1LL0LFW2XzrL//+ono4UJ2/+x5s37rJ8ZhGDIzM8PMzAy1Wq33NyP05XKZJUuWMDw8TLVapVKpUCqVcPqYomxMFrZn4fvHGlGfDTiT5kwVFE3ax+qrUKOZmRm2bt3K+Pg4ruv2nlnTNEzTpFQqMTIywvLlyxkcGsLMyZR0oXLHz9ZrqlT+D7V+s/ZnDEHW79nvPtj8fbjI2lEoyJjkNJUu/qmSbJ/IcF23Z05ZiD/G+kgSqYnpH1vP83rnut2u9PTO5YiiiHa7TbVaBUWsi8Xigjs+tsjol2EYOI5Dp9PBMIxe2F764N6eUsWB4kSzjctUge6PdDM/FEgxWW6M/ZLSoWDhBBHzssakuJ5Lzslx8RvfyBcu/RzVSkWWWNENSoUCQSBTII3v3culn7uUc1/1KlIBZi5Ho1anWC4Tq2woGSefpime5+H7PpVKhTRNe5LewvZoyOujSKrKCsUiCIHvdpiYGOe8V53L+O7dNJtNhgYH0XWNIAiwLQvX82m6HmeedRbf+MY35m2uGVe28Pf68XCIX6fjkiK47Hvf4/Q/fwEIqarygoA0Tsg5cqzEQvVqmhIqdWe2cAxV6WIelPNUpLwJTRXkn/VZRjwOF7rdLo7jzJvnGZHINv1UST2aCl+R4yWJZZIk8yTGDFm/Z5x5Rjyy30mShPAhvHEfC/i+P69PIxWXKoRA1zQiP5CVOg7yHIliTFnAoAjTlIyLGk5fpQqzlP0axcA+1P7h+76M11TjnV0fqmK3B2LIHwk8TzpjZcgqR2TqzgdbH08ECCEZ66gvlClQAftRFPW80w8XUsXEGCr+8mCIlIOfZVnzxvKhxv9QEQQyHK9QKPTGOdtnpR2zcnCzbqbeyBam4zjk8/l5BOhwIiO8ALZtE8cxnU4H13XnlTg5VGREbyGnlHdyvOmN/8DnPv0ZlgwOkUYxJCljo6NMjEv32yhO+Ke3vY3XvO6vMfJ57tm4kSiOqQwOyGButflpSupCLa5Mlayp2DTTNLFt6dmaHZZtYTs2hUKBglJvJGpTXH3UUVx44YV0Oh0cx1EeWTIZQRiG2LZNsVhk7969oCZghmzDPlQUi0VM0yTOyjEBumFQKOQplovoKtPEvPyeSUKq1FmlSoV8sShrEwqpMgUgSYjUBqcpm6+tgqZR43UgbvexRsYgJEoVHat0UtmY6rreW/jZdZoKOcnlZHxjRvgiZdcNshyLQpDL5cj1ZZvoJyDZucOJfulTKGeh/ue1cjk00yTodvE6HXzXJfQ8GdMHaKaJUIdu2+i2jdB14iDAV7FmqLVr27acC32ah4eCowLdM6YikyCzfehQsbCPs/Xn+z6zszKDyH8FZOtBKM/Mcrl82Akf6ncz5sT3fTzP69nv222ZzzOb9xkjJ1Re4WyuH05YlsXQ0FCP8GVrVAjRkzoPSsUyz8CMWqMWZuaccLgRhmHvd7IHLpVK5PP5x0Ql0U/0RB/hS1VWlquvvJLfXncdlq4zvW8S2zBZc8QqdmzfwdjYGNWBAcqVCm/753+mNjvDzOwsJzztRBrtNkEc0+64PSeAUCXm7sfCjTU7MsLkdT3CIJROIa4rK0uYJsIwCD2Pc889l8HBwd4mm3Fh/WPjq6TgGfeFavdjgWx+RFEkN0jXVRKdTxCEkvPXNDTD6GXlSdIUhEyh5HW7hEFAFIaEKo6RNCVJU+Jkbr5l45P2SVV/DGQELgxDGTjsuj3Gy1OB3EEQ9BgYXdlxXdelXq9Tr9dlzJUaF1vFGUVR1NskMi1Av7T4x0Ym8aHmhq6kcZm8OsHK53CKBexCHjPngKGTRCFe1yX0PdI4mpP0dA3dtrBzOfKFAolyVGs2m72+EkpieTjInsuypMYhUB7S7Xa7x8Q92iMbv1Alz0+V1JsRkCc6+hmJRGkLXNel0+n02nM4D9d150lxGdOe2R1rtRqGYfRsg4nyZM/lcj2G5nAemVdyJg1ncydbrzwY8UvVxPN9v6e6QG0KfwzOO7PzLRzMQKnMDhXZQuxHmhGkKOb+++7jvnv+wLKlS3nyMUczOzXFrp07IE1IkZnfL3jthTTbLQaGhxkcGqLpdihXB9F0EycnJ0PGUZumSZIkMhyi1UL0SX4Z55YqRiOKIpycg2nJ72XPlSGOYwaXLmXdunXEscx84ThObyOL45hQBXJGSlXdL/0tbPejQb1ex1c5Ea1CQSWWtWRSbpXINowyIigQuoZm6DLlmSYwbZmdxrBMTNtCN6W9MKvZlz1jf59kC+jhbp6Hgkg5q+jKkaNUKvVsGNlC15RTS/ZsmrKPV6tVqtUqxWKxt3HHyvZrqhRaGRNn29I921SSsud5Pc75cKOfMUr7kp4jBJphSNtrkpCEIUkY9iR8zTRxCgVMx0GovSCNIuIgIPQ8PNeV+T2FoFQqUS6Xe/2QLEi3dzCEKk1XhkKh0FOdPhaSXzY2ptLMZAxOkiR/lP3tUJE9p65MKqZp9gjPQqn2cCBjDvuJSYY4jucxENlYpv125cMMS4WYZX8z7VEmkPBgxC/bLHWVTLn//GOxeT4cpMrOl6lNUPkED5cbco/IpCn/+bGPMVip4HbazExNUS5Jp5KRkaXMzs7S7nR4+V/9FeWKTC80PTtLQWUY6QRdNG1OHZYRLl1lPS+VSr1NM1bSXj8hzCZTmqQITSNXKGDatqzsHgQyd2ccs2LFCjqdDq1Wi1wuR6jCGDICUS6Xe/fLmJns76HCsmSuvUylkUSy8kcYRqSpVFv1q9Ey7isjAv3PkalNsnOiT9rLCIemVIrZojvcyJgT1GLuJ7xZP/ePl1DltoJAprnLvpMq7jx75jAMe8xboiTFTJsihMBxnMPuDEDf+s42hWx9JUo1nRE6NE1qHJTqPlNjR0FA6PtEQUASRQjDkAnMHQcnn6egPChDpfnIiF7WTw+FbJyzazOTBwfQ2jyaIxurUNnAi8Ui+XyeRDGoT3Rke3Kq/Aj610+2xg7nka1t1HhkazxW5gFdOb34Kia0UqnMWwML7/dYH9meGyvhACXw9K/FgxK/TOIwDINisUiqJC/H6SuFcZiPrBOz96iOzl4fKnzf73VSs9nscVDXXXct9XqNUqmA73UhjalUyniedI12HIeTTjqJoaFhPM+jVK5QrlRJATfwyFm5XvRMNhgL25YNQr8EOu+aRHLiGdI4xrRk3BgAuo6v1Jr5fJ44jikWizSbTXK5HL7vI5Qaq91u9/Tzj0Rqzp4ra4O2IDdptnmgdOlzhGB+W3SlSsu4vuxc9nnGnbGgD1AMQ//3+j87nMja2T9GWR9kxG7h82TPmj3vgcbVUCrQVKnZMttfxqD8sdqnK5slfc+XPb9Mj6PssOrIKmZkh2GamMpZSdNVjs++o7+9/f2V/fZDIVWxhdk8yefz5HK53j36++rRHFlbF/a7ruyKT3RYyoGEPrsqql8WrpU/xpGt8f7fzpjjhdcu7PPDcWS/oSmmuf98ti4PSvz+FNC/QfVvBLVajSSRHH6aJkRRSBTNZVAPw5Bms0l1aIhSRbrvep5PAmiaThBHygjy6CE0gWmZxMpZRAghK0REkXQ6UKrAUqlEqhwChBBUq1W63S6GYfDkJz8ZTWW5SNVm+1gt7P6NfRH/DXEo0/dQvruIRfyR8CdL/BZyARnx63a71Ot1ycGQSPuTLglIdk2o7GmZe74ALMtGA2zDJD1w9MijQk/60zREpr7UdQLfZ8+ePfNsNi1VyiSzB5x44omg2tZR3neWZfWk3UNFxk31PDX71OEpfRlKHukx9xOLeJywOH6L+O+OP2nilxE++lQxaZqiGzqaoREnMfliXlYbZ85FO01TioUCaRDQbXUI/AjblJXbBeAcJCvJI0EcSZ2+aZrzYuUyXf++ffvYvn07nidziOZyOdrtdk/fv2LFCtavXw/KeSgj3CwIfXi0WCj59felPDEXK/1Ij0XJYRGLWMThxp8s8cs268wxIXtvWRYjoyNohka720EzNAzLkO73KgO6ZVqMj0+wbcs2bEsWug186eihAVGUHjj34qNAVtA3Vh53GQH+1a9+RafToVgsoilbpWma+CpP6Ite9CJWr15Nt9tF9BmoI+X9eaiYR/xSGcIgz/cRsUeJQ/3+IhaxiEU8FP5kiV+GTAWYbeamaXLkkUcyODSE6/m4XZcgCoiSCKFshE7OYdMDm7j11lvRLBPTNAg8H0PIXTsKDj0OUtr4JAnIbHqaaaKZJo3ZWb72ta+hqzyEnU6HdruNZVmEYUipVOLcc88ll8vN8wrLvO72k9IeBfYjfn3I3i6U6B7usYhFLGIRhxt/ssQvI3qp8ggSfencVqxYwXHHH4/jmHiB36unJzSNRP1NSfnud7/Ljk1bAMg7eUQK3U5APnfglFCPBJouY49A1lPM1JadZpNvf/vb3HLLLRiGId3PVXWIJEkoFotcdNFFHHvssaDsff0E8LHCQrXnPHvfY/g7i3h8kHIAW97DPRbebBGLeALiT5b4ZQShH1k8SLFU5thjj6NSHSRNFaEUGkLXiJKIKI4ZGh7iBz/+AT/+yY9ozMximHLzr01PoSs6sN+m8DCPDGmS1ZZIZW3FJOL663/LBz/4AYQAU5VJKhSLFFQ4ytKREd785jersjJRL29m5qLPQdou+g5U7cWFmHu2VP1L6FVUTZXcloKmitM82mMRi1jEIg43/mSJXxbHmP1NVXb3TI33d3/z96wYW0mz4RKECULXiZKYJE0xbYM4jbAtg/f/x//mY//nQzRrU0DM0uGyJAhCVhT3owAv9AmTiISUmIQwiYhJiEmQ+WJSojQmTCKCOCSMAxAxhVIOr9OEOMDQ4Ztf/yrv/vd30ajPsmLFcsIowAs8Gs06rXaL455yPP/yjn8lX60gNI0gCkkFUlJVHLllWfOC64UQqsZi3yEEmzdtktWSm00KhQKe79FsNckX87TdNpohEBp8+1vfAJEQtBuQxiReByFS0ihCQ6AhiEP5utVooiFw25254sYHOxYO2CL+qBAcYEwe7rHwZotYxBMQf7LE78EhGBlbzlve8lZVOxAGBofYMz6B0DUMy0QzNJ507JPouG3e87/fx0UXXcg9d9yGk7dp1maABEGKbZg4poWp6WgqE0ro++gIdGRV+MD3iMMQDbB0A9MwIJa5FZ1CnvE9u3n3u/+dt73tn7j5ZqnunJiYYGhoiGXLltFxXZaOjPDGiy/mjLPPpjY7A0JgWhaaJh1kojjuBd4bSo2qaRpJFNNuNglU8HsaRUxP7OXee+/teZIKTWDZFoZpkJBi5xyEJqg3muzYuZ1tmzdhGjrEEc16Da/ZRKTgdbv4nkejXkcAhXweAZSKxYXkdr9jEYtYxCIOJ/R3vvOd71p48k8dcvNNWX/0BuIw5Oc//zndbpdVq1bRbDYxTZNOp8O+ffsolUqsPWoNW7Zs4YMf+hh33XEbp516GpZukkQxuhDoQkMgEGmKgcDSDbqdDkkUYQgN27IxdQNdaES+T7fdJk0SbrrhBr78xS/yjne8g+9+74cMVMsce+yTaTabxHFMvV5namqKs88+my9+8Ys89eSTCbtd8sUiaDKZdCbXRVGEoetoSgXqeZ6Kc9QwVLYZIQTje/Zw91138fnPX4rve+RyOXTDmBdPiBAMDw8zW5th6/ZdbNp0P2NjY6xetw5HETbdkomcDZXRROurJh+oml+LWMQiFvF44aD1/P6UIUhp1mZwbAsrn+fzn/kMb37zmymVSliWxeTkJGvWrEHTNGq1GtPT01iWRblcxnVdavU2z376aaxbu57TTjuNE088kVWrVvVyNsZxjJXLgcoT6bous7Oz7Ny5k23btrFvci/X/fbX3H33XYRhyPDwMJ1Oh3q93kus7Louy5cv5/zzz+e1r30tg0uXkqjM+eg6iWYQxgmGbiAAP/BxLLsnVWU5DEM/oFgoYFgWu3fs4JOf/CSXfuYz6FpKuSST/0YqD2nmEGSaJnv37uO4444ln89z++23MzQ0xPHHH8/LX/5ynvK0p5EvV6lUBxgeHu7r2bls9NofIbntIhaxiEUcDIvE7wAQpJDEoAlmJicZWrqU2akpzj33XK677jesXXsk4+PjaJpGpVLple3Iqk9oqcBrdiCWiZCTJME0TarVKkuWLKFarWLbNr7v0+3KfKHdbpd2u0273abjddEck5GxUVzXZXp6ulfOyfM84jjmla98Jf/zf/5PNmzYIG2XjkOzVqNer3PEkUcSxglxCqZhIoAwCjENA5FCrVbj8ssvJ45j2s0WW7ds4c4772Tnjh1omsZApUK9NsPgQLWXyi2TDKMowrIsCoUC7XYb3/ep1+usXbuWrVu3ous6Q0uWcvzTTqRcrbJmzRoqlQpHH300z3nOc6Qa9THMz7qIRSxiEY8Gi8TvABDKw9JtNcmrQrLtRoNipcK9d9/NG97wBmq1Gnv37qXT6fQcZorFIo7jEHR9rFTD1s1estckSXqJoOM4ptasoSOTC2cB6kZWFdnQSC2dmIR6vY7jOAwNDaFpGs9//vN529vextCSJcxOT1OtVtFMk1hVE8gVCkRxjG7axNBTe8ZJjCYE3Y7Lnj17OO2002g0GpCmVMsVcrkcgaq8oGsapUKOfD5Ht9ul0+n0ElNnUluaxR6qJNdr165lx44ddLtdTNum6XZxu1K1Wq1WecUrXsH73vc+yuXyYxZov4hFLGIRjxaLxO8AyIjfxj/cw9FPfjIAke9j2DadZpNCucytN9/MNddcwx133MHu3bvZtGlTj1AZQqdk50lCWTYlSycm+kpuFIvFeYmyXdedqzKha2DpLBldytjYGE9+8pM588wzOf300ymUy8RBQK1WY3hkBABf1SHL5XKgaaBppGhEaYomNASQpAm60Gi3WmzdupXnPve5CCGwDBNLETWU96ttWzRqs+jaXOUCoSpEaCpRdhZTGEUR4+PjFItFbNsml8uRCAG6Qb3R7BUePeecc/jKV74i+zKKFm1+i1jEIh5XLBK/A0CQ4nba5AsF3HabMAypDAzgqgKduUIBgMDz0HWdVqvFH/7wB3bs2MGuXbvYeO+9NGcb+K6UmrI6V7GqxJDZz0xTSoa2qh49NjbGmjVrWDI6woYnH83A0BAnnHACQtdx220pIdo2freLnctRn50ln89jOQ6B52FZFmga7XabQqmMpyo9aEL0bH+B77N582bOPPNMcrkcIgW30yGKImzLQtd1WcFCE8RxRC6Xw7KseZWQA1WdPCtQWalUsG2bVquF7/uYlpQ6TUvWYex0OrzgBS/oEb92u01B9eEiFrGIRTweWCR+B0SqpL9HiRSiICAKQzzfl+rEMCTJgsv7auMZhoFlWVimiaFUn5qS3g7F5z8WQoWaz91GIOOwAB544AF5ri8ua+7nVMD6o0SqstLEamrZtk2xWOxJh7CYBWYRi1jE44tF4ncQHBLxQ1KSFFnJfV5AeV9xW5QqVMuKpfZTu0P4+RRIxFwLDkT8Mix8P4eDfvDwoNSjmcpX76ugnPXFIhaxiEU8XlgkfocBqZCJv1LS+QTtYSD7jgaI/lxnjxBJX47FAxG/HvE9XBk59AcPZViU/BaxiEU8nlgkfocBqQA38BC6lPKymLbMeaRf8jmQBCRSgaXJsIRHg1Q9w+NJ/Pww6Kl3M0eZfiwSv0UsYhGPJxaJ32FAKiCIQxBIlaYiL0kqKzAkSdJTAfZUoeqaLCfLgVSUDxcPh/j1iO6j/I2HQhRHPbtmhn7iv5AYLmIRi1jEHxOLxO8wIAWSNJbETzzKTT59pArTOTwc4tcLvziAw0v2vUOZGKmQdr6DEblFyW8Ri1jE44lF4ncQZJ6SjxZpEgFztQIXon/z3/+1QGiy/NCjgnK2eTDid7glv67XRddlEL+mguLp+91F4reIRSzi8cQi8TsIDpX4aXPGNfXnwH/7PUD7C8Imh+DsAtLpph8CSeh6hLCfIB+OGbDg8TOv18wGuEj8FrGIRTyeWCR+/02xcFAfipQu/Hzh9xexiEUs4r8T/n/V963I4NijlQAAAABJRU5ErkJggg==;" vertex="1" parent="1">
          <mxGeometry x="580" y="163.08" width="80" height="72.84" as="geometry" />
        </mxCell>
        <mxCell id="UPaCZ7ILLn1rJXRc9_oi-7" value="&lt;div style=&quot;&quot;&gt;&lt;span style=&quot;background-color: transparent; color: light-dark(rgb(0, 0, 0), rgb(255, 255, 255));&quot;&gt;&lt;br&gt;&lt;/span&gt;&lt;/div&gt;&lt;div style=&quot;&quot;&gt;&lt;span style=&quot;background-color: transparent; color: light-dark(rgb(0, 0, 0), rgb(255, 255, 255));&quot;&gt;&lt;br&gt;&lt;/span&gt;&lt;/div&gt;&lt;div style=&quot;&quot;&gt;&lt;span style=&quot;background-color: transparent; color: light-dark(rgb(0, 0, 0), rgb(255, 255, 255));&quot;&gt;&lt;br&gt;&lt;/span&gt;&lt;/div&gt;&lt;div style=&quot;&quot;&gt;&lt;span style=&quot;background-color: transparent; color: light-dark(rgb(0, 0, 0), rgb(255, 255, 255));&quot;&gt;&lt;br&gt;&lt;/span&gt;&lt;/div&gt;&lt;div style=&quot;&quot;&gt;&lt;span style=&quot;background-color: transparent; color: light-dark(rgb(0, 0, 0), rgb(255, 255, 255));&quot;&gt;&lt;br&gt;&lt;/span&gt;&lt;/div&gt;&lt;div style=&quot;&quot;&gt;Sentinel1&lt;/div&gt;" style="points=[];aspect=fixed;html=1;align=center;shadow=0;dashed=0;fillColor=#FF6A00;strokeColor=none;shape=mxgraph.alibaba_cloud.redis_kvstore;" vertex="1" parent="1">
          <mxGeometry x="1270" y="95.5" width="52.5" height="41.4" as="geometry" />
        </mxCell>
        <mxCell id="UPaCZ7ILLn1rJXRc9_oi-8" value="&lt;div style=&quot;&quot;&gt;&lt;span style=&quot;background-color: transparent; color: light-dark(rgb(0, 0, 0), rgb(255, 255, 255));&quot;&gt;&lt;br&gt;&lt;/span&gt;&lt;/div&gt;&lt;div style=&quot;&quot;&gt;&lt;span style=&quot;background-color: transparent; color: light-dark(rgb(0, 0, 0), rgb(255, 255, 255));&quot;&gt;&lt;br&gt;&lt;/span&gt;&lt;/div&gt;&lt;div style=&quot;&quot;&gt;&lt;span style=&quot;background-color: transparent; color: light-dark(rgb(0, 0, 0), rgb(255, 255, 255));&quot;&gt;&lt;br&gt;&lt;/span&gt;&lt;/div&gt;&lt;div style=&quot;&quot;&gt;&lt;span style=&quot;background-color: transparent; color: light-dark(rgb(0, 0, 0), rgb(255, 255, 255));&quot;&gt;&lt;br&gt;&lt;/span&gt;&lt;/div&gt;&lt;div style=&quot;&quot;&gt;&lt;span style=&quot;background-color: transparent; color: light-dark(rgb(0, 0, 0), rgb(255, 255, 255));&quot;&gt;&lt;br&gt;&lt;/span&gt;&lt;/div&gt;&lt;div style=&quot;&quot;&gt;Sentinel2&lt;/div&gt;" style="points=[];aspect=fixed;html=1;align=center;shadow=0;dashed=0;fillColor=#FF6A00;strokeColor=none;shape=mxgraph.alibaba_cloud.redis_kvstore;whiteSpace=wrap;" vertex="1" parent="1">
          <mxGeometry x="1270" y="168.3" width="52.5" height="41.4" as="geometry" />
        </mxCell>
        <mxCell id="UPaCZ7ILLn1rJXRc9_oi-9" value="&lt;div style=&quot;&quot;&gt;&lt;span style=&quot;background-color: transparent; color: light-dark(rgb(0, 0, 0), rgb(255, 255, 255));&quot;&gt;&lt;br&gt;&lt;/span&gt;&lt;/div&gt;&lt;div style=&quot;&quot;&gt;&lt;span style=&quot;background-color: transparent; color: light-dark(rgb(0, 0, 0), rgb(255, 255, 255));&quot;&gt;&lt;br&gt;&lt;/span&gt;&lt;/div&gt;&lt;div style=&quot;&quot;&gt;&lt;span style=&quot;background-color: transparent; color: light-dark(rgb(0, 0, 0), rgb(255, 255, 255));&quot;&gt;&lt;br&gt;&lt;/span&gt;&lt;/div&gt;&lt;div style=&quot;&quot;&gt;&lt;span style=&quot;background-color: transparent; color: light-dark(rgb(0, 0, 0), rgb(255, 255, 255));&quot;&gt;&lt;br&gt;&lt;/span&gt;&lt;/div&gt;&lt;div style=&quot;&quot;&gt;&lt;span style=&quot;background-color: transparent; color: light-dark(rgb(0, 0, 0), rgb(255, 255, 255));&quot;&gt;&lt;br&gt;&lt;/span&gt;&lt;/div&gt;&lt;div style=&quot;&quot;&gt;Sentinel3&lt;/div&gt;" style="points=[];aspect=fixed;html=1;align=center;shadow=0;dashed=0;fillColor=#FF6A00;strokeColor=none;shape=mxgraph.alibaba_cloud.redis_kvstore;" vertex="1" parent="1">
          <mxGeometry x="1270" y="241.25" width="52.5" height="41.4" as="geometry" />
        </mxCell>
        <mxCell id="UPaCZ7ILLn1rJXRc9_oi-10" value="" style="endArrow=none;dashed=1;html=1;dashPattern=1 3;strokeWidth=2;rounded=0;exitX=0.027;exitY=0.794;exitDx=0;exitDy=0;exitPerimeter=0;" edge="1" parent="1" source="UPaCZ7ILLn1rJXRc9_oi-7">
          <mxGeometry width="50" height="50" relative="1" as="geometry">
            <mxPoint x="1405" y="224" as="sourcePoint" />
            <mxPoint x="1215" y="154" as="targetPoint" />
          </mxGeometry>
        </mxCell>
        <mxCell id="UPaCZ7ILLn1rJXRc9_oi-11" value="" style="endArrow=none;dashed=1;html=1;dashPattern=1 3;strokeWidth=2;rounded=0;exitX=0.049;exitY=0.456;exitDx=0;exitDy=0;exitPerimeter=0;entryX=0.999;entryY=0.863;entryDx=0;entryDy=0;entryPerimeter=0;" edge="1" parent="1" source="UPaCZ7ILLn1rJXRc9_oi-8" target="pIxflDysJiSax5W7jK0K-7">
          <mxGeometry width="50" height="50" relative="1" as="geometry">
            <mxPoint x="1296" y="180" as="sourcePoint" />
            <mxPoint x="1240" y="206" as="targetPoint" />
          </mxGeometry>
        </mxCell>
        <mxCell id="UPaCZ7ILLn1rJXRc9_oi-12" value="" style="endArrow=none;dashed=1;html=1;dashPattern=1 3;strokeWidth=2;rounded=0;exitX=0;exitY=0.694;exitDx=0;exitDy=0;exitPerimeter=0;" edge="1" parent="1" source="UPaCZ7ILLn1rJXRc9_oi-9">
          <mxGeometry width="50" height="50" relative="1" as="geometry">
            <mxPoint x="1286" y="220" as="sourcePoint" />
            <mxPoint x="1220" y="160" as="targetPoint" />
          </mxGeometry>
        </mxCell>
        <mxCell id="UPaCZ7ILLn1rJXRc9_oi-13" value="" style="endArrow=none;dashed=1;html=1;dashPattern=1 3;strokeWidth=2;rounded=0;entryX=0.975;entryY=0.583;entryDx=0;entryDy=0;entryPerimeter=0;" edge="1" parent="1" target="pIxflDysJiSax5W7jK0K-8">
          <mxGeometry width="50" height="50" relative="1" as="geometry">
            <mxPoint x="1270" y="130" as="sourcePoint" />
            <mxPoint x="1200" y="466" as="targetPoint" />
          </mxGeometry>
        </mxCell>
        <mxCell id="UPaCZ7ILLn1rJXRc9_oi-14" value="" style="endArrow=none;dashed=1;html=1;dashPattern=1 3;strokeWidth=2;rounded=0;entryX=0.952;entryY=0.611;entryDx=0;entryDy=0;entryPerimeter=0;exitX=0.004;exitY=0.456;exitDx=0;exitDy=0;exitPerimeter=0;" edge="1" parent="1" source="UPaCZ7ILLn1rJXRc9_oi-8" target="pIxflDysJiSax5W7jK0K-8">
          <mxGeometry width="50" height="50" relative="1" as="geometry">
            <mxPoint x="1256" y="410" as="sourcePoint" />
            <mxPoint x="1200" y="522" as="targetPoint" />
          </mxGeometry>
        </mxCell>
        <mxCell id="UPaCZ7ILLn1rJXRc9_oi-15" value="" style="endArrow=none;dashed=1;html=1;dashPattern=1 3;strokeWidth=2;rounded=0;exitX=0.049;exitY=0.711;exitDx=0;exitDy=0;exitPerimeter=0;" edge="1" parent="1" source="UPaCZ7ILLn1rJXRc9_oi-9">
          <mxGeometry width="50" height="50" relative="1" as="geometry">
            <mxPoint x="1267" y="380" as="sourcePoint" />
            <mxPoint x="1220" y="240" as="targetPoint" />
          </mxGeometry>
        </mxCell>
        <mxCell id="UPaCZ7ILLn1rJXRc9_oi-16" value="" style="endArrow=classic;html=1;rounded=0;exitX=1.01;exitY=0.363;exitDx=0;exitDy=0;exitPerimeter=0;entryX=-0.039;entryY=0.807;entryDx=0;entryDy=0;entryPerimeter=0;" edge="1" parent="1" source="UPaCZ7ILLn1rJXRc9_oi-6" target="pIxflDysJiSax5W7jK0K-11">
          <mxGeometry width="50" height="50" relative="1" as="geometry">
            <mxPoint x="540" y="330" as="sourcePoint" />
            <mxPoint x="590" y="280" as="targetPoint" />
          </mxGeometry>
        </mxCell>
        <mxCell id="UPaCZ7ILLn1rJXRc9_oi-17" value="" style="endArrow=classic;html=1;rounded=0;exitX=1;exitY=0.75;exitDx=0;exitDy=0;entryX=-0.039;entryY=0.557;entryDx=0;entryDy=0;entryPerimeter=0;" edge="1" parent="1" source="UPaCZ7ILLn1rJXRc9_oi-6" target="pIxflDysJiSax5W7jK0K-12">
          <mxGeometry width="50" height="50" relative="1" as="geometry">
            <mxPoint x="630" y="353" as="sourcePoint" />
            <mxPoint x="665" y="310" as="targetPoint" />
          </mxGeometry>
        </mxCell>
      </root>
    </mxGraphModel>
  </diagram>
</mxfile>
